<?xml version="1.0" encoding="UTF-8"?>
<!DOCTYPE svg PUBLIC "-//W3C//DTD SVG 1.1//EN" "http://www.w3.org/Graphics/SVG/1.1/DTD/svg11.dtd">
<!-- Creator: CorelDRAW 2017 -->
<svg xmlns="http://www.w3.org/2000/svg" xml:space="preserve" width="70px" height="70px" version="1.1" style="shape-rendering:geometricPrecision; text-rendering:geometricPrecision; image-rendering:optimizeQuality; fill-rule:evenodd; clip-rule:evenodd"
viewBox="0 0 70 70"
 xmlns:xlink="http://www.w3.org/1999/xlink">
 <defs>
  <style type="text/css">
   <![CDATA[
    .fil0 {fill:#1E83EC}
   ]]>
  </style>
 </defs>
 <g id="Camada_x0020_1">
  <metadata id="CorelCorpID_0Corel-Layer"/>
  <g id="_2094392132784">
   <path class="fil0" d="M64.17 2.35c-3.22,0 -5.84,2.6 -5.84,5.8l0 38.71c0,0.5 0.31,0.94 0.78,1.1 0.46,0.17 0.98,0.02 1.29,-0.36 0.85,-1.04 2.11,-1.64 3.45,-1.64 1.67,0 3.18,0.92 3.95,2.39 0.2,0.4 0.61,0.63 1.03,0.63 0.09,0 0.19,-0.01 0.28,-0.03 0.52,-0.13 0.89,-0.6 0.89,-1.13l0 -39.67c0,-3.2 -2.62,-5.8 -5.83,-5.8zm3.5 42.45c-1.1,-0.75 -2.43,-1.17 -3.82,-1.17 -1.13,0 -2.22,0.27 -3.18,0.79l0 -36.27c0,-1.91 1.57,-3.47 3.5,-3.47 1.93,0 3.5,1.56 3.5,3.47l0 36.65z"/>
   <path class="fil0" d="M7.17 58.32c-0.65,0 -1.17,0.52 -1.17,1.16 0,0.65 0.52,1.17 1.17,1.17 0.78,0 3.33,0.17 3.33,2.34 0,1.22 -1.67,2.33 -3.5,2.33 -2.92,0 -4.66,-2.37 -4.66,-4.67 0,-2.16 2.35,-4.66 5.39,-4.66l3.94 -0.01c0.64,0 1.17,-0.52 1.17,-1.16 0,-0.65 -0.53,-1.17 -1.17,-1.17l-3.94 0c-4.04,0 -7.73,3.34 -7.73,7 0,3.44 2.62,7 7,7 3.22,0 5.84,-2.09 5.84,-4.66 -0.01,-2.8 -2.28,-4.67 -5.67,-4.67z"/>
   <path class="fil0" d="M7 53.69c-0.64,0 -1.17,0.52 -1.17,1.17l0 4.62c0,0.65 0.53,1.17 1.17,1.17 0.65,0 1.17,-0.52 1.17,-1.17l0 -4.62c0,-0.65 -0.52,-1.17 -1.17,-1.17z"/>
   <path class="fil0" d="M30.33 3.49c-4.5,0 -8.16,3.87 -8.16,8.63 0,4.47 6.59,11.26 7.34,12.02 0.22,0.22 0.51,0.35 0.82,0.35 0.32,0 0.62,-0.13 0.83,-0.35 0.75,-0.76 7.34,-7.55 7.34,-12.02 0,-4.76 -3.66,-8.63 -8.17,-8.63zm0 18.14c-2.53,-2.76 -5.83,-7.13 -5.83,-9.51 0,-3.47 2.62,-6.3 5.83,-6.3 3.22,0 5.84,2.82 5.84,6.3 0,2.61 -3.67,7.15 -5.84,9.51z"/>
   <path class="fil0" d="M59.95 23.41c-0.44,-0.19 -0.94,-0.08 -1.28,0.25l-6.17 6.18 0 -21.69c0,-0.64 -0.52,-1.16 -1.17,-1.16l-7 0c-0.64,0 -1.16,0.52 -1.16,1.16l0 24.5 -25.67 0 0 -24.5c0,-0.64 -0.52,-1.16 -1.17,-1.16l-7 0c-0.64,0 -1.16,0.52 -1.16,1.16l0 24.5 -7 0c-0.65,0 -1.17,0.52 -1.17,1.17l0 7c0,0.64 0.52,1.17 1.17,1.17l7 -0.01 0 12.84c0,0.64 0.52,1.16 1.16,1.16l7 0c0.65,0 1.17,-0.52 1.17,-1.16l0 -12.84 25.67 0 0 12.84c0,0.64 0.52,1.16 1.16,1.16l7 0c0.65,0 1.17,-0.52 1.17,-1.16l0 -11.19 7.83 -7.82c0.22,-0.22 0.34,-0.52 0.34,-0.83l0 -10.5c0,-0.47 -0.29,-0.89 -0.72,-1.07zm-9.44 18.92c-0.22,0.21 -0.34,0.51 -0.34,0.82l0 10.5 -4.67 0 0 -12.83c0,-0.65 -0.52,-1.17 -1.17,-1.17l-28 0c-0.64,0 -1.16,0.52 -1.16,1.17l0 12.83 -4.67 0 0 -12.83c0,-0.65 -0.52,-1.17 -1.17,-1.17l-6.99 0 0 -4.66 6.99 0c0.65,0 1.17,-0.53 1.17,-1.17l0 -24.5 4.67 0 0 24.5c0,0.64 0.52,1.17 1.16,1.17l28 0c0.65,0 1.17,-0.53 1.17,-1.17l0 -24.5 4.67 0 0 23.33c0,0.47 0.28,0.9 0.72,1.08 0.43,0.18 0.93,0.08 1.27,-0.25l6.17 -6.18 0 7.2 0 0 -7.82 7.83z"/>
   <path class="fil0" d="M69.87 47.28c-1.17,-2.25 -3.47,-3.65 -6.02,-3.65 -1.13,0 -2.22,0.27 -3.18,0.79l0 -36.27c0,-0.64 -0.53,-1.17 -1.17,-1.17l-23.26 0c-0.42,0 -0.81,0.23 -1.02,0.59 -0.2,0.37 -0.2,0.82 0.02,1.18 0.61,1.02 0.93,2.2 0.93,3.4 0,2.61 -3.67,7.15 -5.84,9.5 -2.53,-2.75 -5.83,-7.12 -5.83,-9.5 0,-1.21 0.32,-2.38 0.93,-3.4 0.21,-0.36 0.22,-0.81 0.01,-1.17 -0.21,-0.37 -0.59,-0.59 -1.01,-0.59l-17.99 0c-3.55,0 -6.44,2.88 -6.44,6.44l0 47.22c0,3.44 2.62,7 7,7 3.22,0 5.84,-2.09 5.84,-4.67l0 -7 49.15 0c4.42,0 8.01,-3.59 8.01,-8.01l0 -0.15c0,-0.19 -0.05,-0.37 -0.13,-0.54zm-7.88 6.37l-50.32 0c-0.65,0 -1.17,0.52 -1.17,1.17l0 8.16c0,1.23 -1.67,2.34 -3.5,2.34 -2.92,0 -4.66,-2.37 -4.66,-4.67l0 -47.22c0,-2.27 1.84,-4.11 4.1,-4.11l0 0 16.18 0c-0.3,0.9 -0.45,1.86 -0.45,2.83 0,4.47 6.59,11.26 7.34,12.02 0.43,0.44 1.22,0.44 1.65,0 0.75,-0.76 7.34,-7.55 7.34,-12.02 0,-0.97 -0.15,-1.93 -0.45,-2.83l20.28 0 0 37.54c0,0.5 0.31,0.94 0.78,1.1 0.46,0.17 0.98,0.02 1.29,-0.36 0.85,-1.04 2.11,-1.64 3.45,-1.64 1.58,0 3.01,0.82 3.81,2.16 -0.07,3.06 -2.59,5.53 -5.67,5.53z"/>
   <path class="fil0" d="M32.5 20.05c-0.41,-0.08 -0.85,0.06 -1.12,0.39 -0.39,0.45 -0.75,0.85 -1.05,1.18 -0.29,-0.33 -0.65,-0.73 -1.04,-1.18 -0.28,-0.33 -0.71,-0.47 -1.13,-0.39 -2.93,0.63 -4.82,2.36 -4.82,4.44 0,2.61 3.07,4.66 7,4.66 3.92,0 7,-2.05 7,-4.66 -0.01,-2.08 -1.9,-3.81 -4.84,-4.44zm-2.17 6.77c-2.67,0 -4.66,-1.23 -4.66,-2.34 0,-0.76 0.95,-1.55 2.33,-1.98 0.86,0.98 1.47,1.61 1.5,1.64 0.44,0.44 1.23,0.44 1.67,0 0.03,-0.03 0.64,-0.66 1.5,-1.63 1.38,0.43 2.33,1.21 2.33,1.98 0,1.1 -1.99,2.33 -4.67,2.33z"/>
   <path class="fil0" d="M31.5 8.15l-2.33 0c-1.29,0 -2.33,1.05 -2.33,2.34l0 2.33c0,1.28 1.04,2.33 2.33,2.33l2.33 0c1.29,0 2.33,-1.05 2.33,-2.33l0 -2.33c0,-1.29 -1.05,-2.34 -2.33,-2.34zm0 4.67l-2.33 0 0 -2.34 2.33 0.01 0 2.33z"/>
  </g>
 </g>
</svg>
