<?xml version="1.0" encoding="UTF-8"?>
<!DOCTYPE svg PUBLIC "-//W3C//DTD SVG 1.1//EN" "http://www.w3.org/Graphics/SVG/1.1/DTD/svg11.dtd">
<!-- Creator: CorelDRAW 2017 -->
<svg xmlns="http://www.w3.org/2000/svg" xml:space="preserve" width="70px" height="70px" version="1.1" style="shape-rendering:geometricPrecision; text-rendering:geometricPrecision; image-rendering:optimizeQuality; fill-rule:evenodd; clip-rule:evenodd"
viewBox="0 0 70 70"
 xmlns:xlink="http://www.w3.org/1999/xlink">
 <defs>
  <style type="text/css">
   <![CDATA[
    .fil0 {fill:#1E83EC}
   ]]>
  </style>
 </defs>
 <g id="Camada_x0020_1">
  <metadata id="CorelCorpID_0Corel-Layer"/>
  <g id="_2094592973296">
   <path class="fil0" d="M35.04 16.24c-11.42,0 -20.72,9.29 -20.72,20.71 0,11.43 9.3,20.72 20.72,20.72 11.43,0 20.72,-9.29 20.72,-20.72 0,-11.42 -9.29,-20.71 -20.72,-20.71zm0 38.69c-9.91,0 -17.98,-8.06 -17.98,-17.98 0,-9.91 8.07,-17.98 17.98,-17.98 9.92,0 17.99,8.07 17.99,17.98 0,9.92 -8.07,17.98 -17.99,17.98z"/>
   <path class="fil0" d="M47.3 30.27c-0.36,-0.66 -1.19,-0.91 -1.85,-0.54 -0.02,0.01 -0.04,0.02 -0.06,0.03 -0.62,0.38 -0.83,1.18 -0.49,1.82 0.9,1.64 1.37,3.49 1.37,5.37 0,6.19 -5.04,11.23 -11.23,11.23 -6.19,0 -11.23,-5.04 -11.23,-11.23 0,-6.19 5.04,-11.23 11.23,-11.23 0.59,0 1.19,0.05 1.77,0.14 0.72,0.12 1.4,-0.36 1.55,-1.06 0.01,-0.03 0.01,-0.05 0.02,-0.07 0.11,-0.75 -0.39,-1.45 -1.14,-1.57 -0.72,-0.11 -1.46,-0.17 -2.2,-0.17 -7.7,0 -13.96,6.26 -13.96,13.96 0,7.7 6.26,13.97 13.96,13.97 7.7,0 13.96,-6.27 13.96,-13.97 0,-2.33 -0.58,-4.64 -1.7,-6.68z"/>
   <path class="fil0" d="M43.78 25.53c-0.07,-0.06 -0.14,-0.12 -0.21,-0.17 -0.08,-0.05 -0.16,-0.09 -0.24,-0.13 -0.08,-0.03 -0.17,-0.06 -0.25,-0.07 -0.18,-0.04 -0.36,-0.04 -0.54,0 -0.09,0.01 -0.17,0.04 -0.25,0.07 -0.09,0.04 -0.17,0.08 -0.24,0.13 -0.07,0.05 -0.14,0.1 -0.21,0.17 -0.06,0.06 -0.12,0.13 -0.17,0.21 -0.05,0.07 -0.09,0.15 -0.12,0.23 -0.02,0.05 -0.04,0.11 -0.06,0.16 0,0.03 -0.01,0.07 -0.02,0.1 -0.02,0.09 -0.03,0.18 -0.03,0.26 0,0.09 0.01,0.18 0.03,0.27 0.02,0.09 0.04,0.18 0.08,0.26 0.03,0.08 0.07,0.16 0.12,0.23 0.05,0.08 0.11,0.15 0.17,0.21 0.07,0.06 0.14,0.12 0.21,0.17 0.08,0.05 0.16,0.09 0.24,0.13 0.08,0.03 0.17,0.06 0.25,0.08 0.09,0.01 0.18,0.02 0.27,0.02 0.09,0 0.18,-0.01 0.27,-0.02 0.09,-0.02 0.17,-0.05 0.25,-0.08 0.07,-0.03 0.14,-0.07 0.21,-0.11 0.01,-0.01 0.02,-0.01 0.03,-0.02 0.07,-0.05 0.14,-0.11 0.21,-0.17 0.06,-0.06 0.12,-0.13 0.17,-0.21 0.05,-0.07 0.09,-0.15 0.12,-0.23 0.04,-0.08 0.06,-0.17 0.08,-0.26 0.02,-0.09 0.03,-0.18 0.03,-0.27 0,-0.36 -0.15,-0.71 -0.4,-0.96z"/>
   <path class="fil0" d="M69.96 56.53l-4.43 -36.11c-0.31,-2.51 -1.1,-4.91 -2.35,-7.11 -0.76,-1.35 -1.69,-2.61 -2.76,-3.74l-0.12 -0.13c-0.91,-0.96 -2.27,-1.21 -3.47,-0.65 -1.2,0.57 -1.87,1.78 -1.71,3.09l5.62 45.78c0.02,0.15 0.04,0.29 0.08,0.44 0.46,2.12 2.36,3.64 4.53,3.64 0.19,0 0.38,-0.01 0.57,-0.03 1.51,-0.19 2.76,-1.08 3.47,-2.31 0.07,-0.13 0.14,-0.26 0.2,-0.4 0.06,-0.13 0.12,-0.27 0.16,-0.42 0.22,-0.64 0.3,-1.33 0.21,-2.05zm-12.13 -44.98c0,-0.05 -0.02,-0.2 0.16,-0.28 0.05,-0.03 0.1,-0.04 0.14,-0.04 0.1,0 0.16,0.07 0.18,0.1l0.12 0.12c0.92,0.97 1.72,2.05 2.38,3.21 1.07,1.89 1.74,3.94 2.01,6.09l2.36 19.25 -3.8 0.47 -3.55 -28.92zm9.3 46.25c-0.25,0.63 -0.82,1.11 -1.54,1.2 -1.05,0.13 -2.01,-0.62 -2.13,-1.67l-1.74 -14.15 3.79 -0.47 1.74 14.15c0.04,0.33 0,0.65 -0.12,0.94z"/>
   <path class="fil0" d="M16.86 9.81c-0.75,-0.09 -1.43,0.44 -1.52,1.19l-1.25 10.13c-0.19,1.57 -1.47,2.76 -3.04,2.86l-0.91 -0.11 1.64 -13.32c0.09,-0.75 -0.44,-1.43 -1.19,-1.52 -0.75,-0.1 -1.44,0.44 -1.53,1.19l-1.63 13.32 -0.91 -0.11c-1.51,-0.48 -2.46,-1.94 -2.26,-3.52l1.24 -10.13c0.09,-0.75 -0.44,-1.43 -1.19,-1.52 -0.75,-0.1 -1.43,0.44 -1.52,1.19l-1.25 10.13c-0.31,2.53 0.99,4.91 3.17,6.04l-4.66 29.93c0,0.01 0,0.01 0,0.02 -0.19,1.27 0.14,2.55 0.93,3.57 0.78,1.03 1.92,1.69 3.2,1.85l0.03 0c0.19,0.02 0.39,0.04 0.59,0.04 1.08,0 2.12,-0.37 2.97,-1.06 1.02,-0.82 1.64,-1.98 1.76,-3.27l2.75 -30.15c2.39,-0.57 4.22,-2.57 4.53,-5.1l1.24 -10.13c0.09,-0.75 -0.44,-1.43 -1.19,-1.52zm-10.06 46.65c-0.05,0.55 -0.31,1.04 -0.74,1.39 -0.43,0.35 -0.97,0.5 -1.52,0.43l-0.02 0c-0.55,-0.07 -1.04,-0.35 -1.37,-0.78 -0.33,-0.44 -0.47,-0.98 -0.39,-1.52l4.61 -29.69 1.08 0.14c0,0 0,0 0,0 0,0 0,0 0,0l1.08 0.13 -2.73 29.9z"/>
  </g>
 </g>
</svg>
