<?xml version="1.0" encoding="UTF-8"?>
<!DOCTYPE svg PUBLIC "-//W3C//DTD SVG 1.1//EN" "http://www.w3.org/Graphics/SVG/1.1/DTD/svg11.dtd">
<!-- Creator: CorelDRAW 2017 -->
<svg xmlns="http://www.w3.org/2000/svg" xml:space="preserve" width="70px" height="70px" version="1.1" style="shape-rendering:geometricPrecision; text-rendering:geometricPrecision; image-rendering:optimizeQuality; fill-rule:evenodd; clip-rule:evenodd"
viewBox="0 0 70 70"
 xmlns:xlink="http://www.w3.org/1999/xlink">
 <defs>
  <style type="text/css">
   <![CDATA[
    .fil0 {fill:#1E83EC}
   ]]>
  </style>
 </defs>
 <g id="Camada_x0020_1">
  <metadata id="CorelCorpID_0Corel-Layer"/>
  <g id="_2094392133328">
   <path class="fil0" d="M58.03 12.41c-0.25,-0.25 -0.6,-0.4 -0.96,-0.4 -0.36,0 -0.71,0.15 -0.97,0.4 -0.25,0.26 -0.4,0.61 -0.4,0.97 0,0.36 0.15,0.71 0.4,0.96 0.26,0.26 0.61,0.41 0.97,0.41 0.36,0 0.71,-0.15 0.96,-0.41 0.26,-0.25 0.4,-0.6 0.4,-0.96 0,-0.36 -0.14,-0.71 -0.4,-0.97z"/>
   <path class="fil0" d="M68.57 67.24l-16.67 0c0.6,-0.8 1.03,-1.73 1.23,-2.74l6.15 0c0.76,0 1.37,-0.61 1.37,-1.36l0 -12.26 6.84 10.59c0.26,0.41 0.7,0.63 1.14,0.63 0.26,0 0.51,-0.07 0.74,-0.22 0.64,-0.41 0.82,-1.26 0.41,-1.89l-8.72 -13.52 7.48 0c0.5,0 0.96,-0.27 1.2,-0.71 0.24,-0.44 0.22,-0.97 -0.05,-1.39l-11.69 -18.11 6.5 0c0.5,0 0.96,-0.27 1.2,-0.71 0.24,-0.44 0.22,-0.98 -0.05,-1.4l-4.87 -7.53c-0.4,-0.64 -1.25,-0.82 -1.88,-0.41 -0.64,0.41 -0.82,1.26 -0.41,1.89l3.5 5.43 -6.5 0c-0.49,0 -0.96,0.27 -1.2,0.71 -0.24,0.44 -0.21,0.97 0.06,1.39l11.68 18.11 -5.45 0c-0.7,-7.19 -6.78,-12.84 -14.15,-12.84l-2.73 0 -1.32 -2.28 1.94 -2.98c0.41,-0.64 0.23,-1.48 -0.4,-1.89 -0.63,-0.41 -1.48,-0.23 -1.89,0.4l-1.18 1.82 -2.71 -4.7 11.2 -17.35 3.75 5.81c0.41,0.64 1.25,0.82 1.89,0.41 0.63,-0.41 0.81,-1.25 0.4,-1.89l-4.9 -7.59c-0.25,-0.39 -0.68,-0.63 -1.15,-0.63 -0.46,0 -0.89,0.24 -1.14,0.63l-11.59 17.95 -3.19 -5.52c-0.24,-0.43 -0.69,-0.69 -1.18,-0.69 -0.49,0 -0.94,0.26 -1.18,0.69l-3.68 6.37c-0.91,-0.6 -1.97,-0.98 -3.11,-1.07 -1.58,-2.81 -4.57,-4.58 -7.83,-4.58 -3.39,0 -6.43,1.89 -7.96,4.82 -0.6,-0.18 -1.22,-0.26 -1.84,-0.26 -3.66,0 -6.63,2.97 -6.63,6.63 0,0.75 0.61,1.36 1.37,1.36l22.02 0 -2.62 4.54 -6.55 0c-7.84,0 -14.22,6.38 -14.22,14.22l0 1.37c0,0 0,0 0,0l0 16.65c0,0.75 0.61,1.36 1.37,1.36l6.14 0c0.21,1.01 0.64,1.94 1.23,2.74l-5.08 0c-0.76,0 -1.37,0.61 -1.37,1.36 0,0.76 0.61,1.37 1.37,1.37l21.3 0c0.75,0 1.36,-0.61 1.36,-1.37 0,-0.75 -0.61,-1.36 -1.36,-1.36l-5.29 0c0.59,-0.8 1.02,-1.73 1.23,-2.74l18.85 0c0.2,1.01 0.63,1.94 1.23,2.74l-9.2 0c-0.75,0 -1.36,0.61 -1.36,1.36 0,0.76 0.61,1.37 1.36,1.37l36.79 0c0.75,0 1.37,-0.61 1.37,-1.37 0,-0.75 -0.62,-1.36 -1.37,-1.36zm-24.31 -33.6l2.17 0c1.19,0 2.33,0.18 3.41,0.51l-5.58 5.58 0 -6.09zm0 9.96l8.23 -8.23c3.25,2.03 5.42,5.64 5.42,9.75l0 2.17 -9.14 0 3.41 -3.41c0.54,-0.53 0.54,-1.4 0,-1.93 -0.53,-0.54 -1.4,-0.54 -1.93,0l-5.11 5.11c-0.07,0.07 -0.13,0.15 -0.19,0.23l-0.69 0 0 -3.69zm-2.74 -9.96l0 9.39c0,0 0,0 0,0l0 4.26 -8.55 0 0 0 2.21 -2.21c0.53,-0.53 0.53,-1.4 0,-1.93 -0.54,-0.53 -1.4,-0.53 -1.93,0l-4.15 4.14 -4.5 0c0.03,-0.02 0.06,-0.05 0.09,-0.08l8.06 -8.06c0.53,-0.53 0.53,-1.4 0,-1.93 -0.54,-0.53 -1.4,-0.53 -1.94,0l-6.22 6.23 0 -9.81 16.93 0zm-12.17 -12.14l2.88 -5 8.32 14.4 -16.63 0 2.62 -4.54 2.45 0c0.75,0 1.36,-0.61 1.36,-1.36 0,-1.29 -0.37,-2.48 -1,-3.5zm-26.37 2.13c0.55,-1.47 1.98,-2.53 3.65,-2.53 0.66,0 1.32,0.17 1.9,0.5 0.36,0.2 0.78,0.23 1.16,0.08 0.38,-0.15 0.68,-0.46 0.8,-0.85 0.85,-2.56 3.24,-4.28 5.94,-4.28 2.49,0 4.73,1.47 5.73,3.74 0.23,0.53 0.76,0.85 1.33,0.82 0.08,0 0.16,-0.01 0.23,-0.01 1.67,0 3.1,1.06 3.65,2.53l-24.39 0zm-0.25 23.43l5.34 -5.34c0.53,-0.53 0.53,-1.4 0,-1.93 -0.53,-0.54 -1.4,-0.54 -1.93,0l-3.21 3.2c1,-5.32 5.68,-9.36 11.29,-9.36l2.17 0.01 0 3.74 -9.92 9.91 -3.74 0 0 -0.23zm13.66 -5.82l0 6.05 -6.05 0 6.05 -6.05zm-2.18 26c-2.26,0 -4.1,-1.84 -4.1,-4.1 0,-2.26 1.84,-4.1 4.1,-4.1 2.26,0 4.09,1.84 4.09,4.1 0,2.26 -1.83,4.1 -4.09,4.1zm32.23 0c-2.26,0 -4.1,-1.84 -4.1,-4.1 0,-2.26 1.84,-4.1 4.1,-4.1 2.26,0 4.1,1.84 4.1,4.1 0,2.26 -1.84,4.1 -4.1,4.1zm0 -10.93c-3.3,0 -6.06,2.35 -6.69,5.46l-18.85 0c-0.64,-3.11 -3.39,-5.46 -6.69,-5.46 -3.3,0 -6.06,2.35 -6.7,5.46l-4.78 0 0 -11.75 15.03 0c0.75,0 1.36,-0.61 1.36,-1.36l0 -15.02 2.74 0 0 15.02c0,0.75 0.61,1.36 1.36,1.36l34.69 0 0 11.75 -4.78 0c-0.63,-3.11 -3.39,-5.46 -6.69,-5.46z"/>
   <path class="fil0" d="M32.92 53.03l-9.7 0c-0.75,0 -1.36,0.61 -1.36,1.37 0,0.75 0.61,1.36 1.36,1.36l9.7 0c0.75,0 1.36,-0.61 1.36,-1.36 0.01,-0.76 -0.61,-1.37 -1.36,-1.37z"/>
   <path class="fil0" d="M38.94 53.43c-0.26,-0.25 -0.61,-0.4 -0.97,-0.4 -0.36,0 -0.71,0.15 -0.96,0.4 -0.26,0.25 -0.4,0.61 -0.4,0.97 0,0.36 0.14,0.71 0.4,0.96 0.25,0.26 0.6,0.4 0.96,0.4 0.36,0 0.71,-0.14 0.97,-0.4 0.25,-0.25 0.4,-0.6 0.4,-0.96 0,-0.36 -0.15,-0.71 -0.4,-0.97z"/>
  </g>
 </g>
</svg>
