<?xml version="1.0" encoding="UTF-8"?>
<!DOCTYPE svg PUBLIC "-//W3C//DTD SVG 1.1//EN" "http://www.w3.org/Graphics/SVG/1.1/DTD/svg11.dtd">
<!-- Creator: CorelDRAW 2017 -->
<svg xmlns="http://www.w3.org/2000/svg" xml:space="preserve" width="2530px" height="220px" version="1.1" style="shape-rendering:geometricPrecision; text-rendering:geometricPrecision; image-rendering:optimizeQuality; fill-rule:evenodd; clip-rule:evenodd"
viewBox="0 0 2530 219.98"
 xmlns:xlink="http://www.w3.org/1999/xlink">
 <defs>
  <style type="text/css">
   <![CDATA[
    .fil2 {fill:#FEFEFE}
    .fil4 {fill:#FAA831}
    .fil1 {fill:#9B3234}
    .fil3 {fill:#0B5FA2}
    .fil8 {fill:black}
    .fil0 {fill:#DADADA}
    .fil6 {fill:#EA001B}
    .fil5 {fill:#F79F1A}
    .fil7 {fill:#FF5F01}
    .fil10 {fill:#007AA7}
    .fil9 {fill:#40489A;fill-rule:nonzero}
   ]]>
  </style>
 </defs>
 <g id="Camada_x0020_1">
  <metadata id="CorelCorpID_0Corel-Layer"/>
  <g id="_1662862120528">
   <path class="fil0" d="M55.39 0.42l352.32 0c30.28,0 55.02,24.75 55.02,55.02l0 109.11c0,30.27 -24.74,55.02 -55.02,55.02l-352.32 0c-30.29,0 -55.03,-24.75 -55.03,-55.02l0 -109.11c0,-30.27 24.74,-55.02 55.03,-55.02z"/>
   <path class="fil0" d="M572.11 0.42l352.33 0c30.28,0 55.02,24.75 55.02,55.02l0 109.11c0,30.27 -24.74,55.02 -55.02,55.02l-352.33 0c-30.28,0 -55.02,-24.75 -55.02,-55.02l0 -109.11c0,-30.27 24.74,-55.02 55.02,-55.02z"/>
   <path class="fil0" d="M1088.84 0.42l352.32 0c30.29,0 55.02,24.75 55.02,55.02l0 109.11c0,30.27 -24.73,55.02 -55.02,55.02l-352.32 0c-30.29,0 -55.02,-24.75 -55.02,-55.02l0 -109.11c0,-30.27 24.73,-55.02 55.02,-55.02z"/>
   <path class="fil0" d="M1605.56 0.42l352.33 0c30.28,0 55.02,24.75 55.02,55.02l0 109.11c0,30.27 -24.74,55.02 -55.02,55.02l-352.33 0c-30.28,0 -55.02,-24.75 -55.02,-55.02l0 -109.11c0,-30.27 24.74,-55.02 55.02,-55.02z"/>
   <path class="fil0" d="M2122.29 0.42l352.32 0c30.29,0 55.03,24.75 55.03,55.02l0 109.11c0,30.27 -24.74,55.02 -55.03,55.02l-352.32 0c-30.28,0 -55.02,-24.75 -55.02,-55.02l0 -109.11c0,-30.27 24.74,-55.02 55.02,-55.02z"/>
   <g>
    <path class="fil1" d="M2212.22 26.76c-13.2,0 -39.62,0 -39.62,0 -17.52,0.84 -31.83,7.88 -35.97,22.43 -2.15,7.59 -3.33,15.91 -5.02,23.77 -8.58,39.99 -16.17,81.08 -24.36,120.26l308.56 0c23.86,0 40.23,-5.04 44.66,-23.97 2.05,-8.8 4.02,-18.76 5.99,-28.43 7.67,-37.66 15.35,-75.34 23.2,-114.06l-277.44 0z"/>
    <path class="fil2" d="M2371.73 126.14c-4.29,4.18 -16.32,5.38 -15.09,-4.65 1.03,-8.31 10.1,-10.09 19.92,-8.89 -0.73,4.55 -1.57,10.35 -4.83,13.54zm-13.54 -32.48c-0.4,2.29 -1.04,4.37 -1.55,6.57 4.92,-1.23 20.19,-5 21.66,1.55 0.48,2.17 -0.35,4.48 -0.97,6.19 -13.81,-1.32 -25.06,0.98 -28.03,10.82 -1.98,6.58 0.23,13.08 4.45,14.89 8.13,3.48 18.03,-0.51 21.46,-5.99 -0.36,1.89 -0.7,3.8 -0.58,6.18l7.15 0c0.07,-6.85 1.07,-12.39 2.12,-18.56 0.9,-5.25 2.6,-10.45 2.33,-15.08 -0.61,-10.61 -18.19,-6.85 -28.04,-6.57zm71.73 35.77c-5.6,0.12 -8.38,-3.35 -8.51,-9.1 -0.22,-10.05 4.2,-21.23 13.15,-22.23 4.17,-0.46 7.2,0.51 10.25,1.55 -2.81,11.29 -1.79,29.49 -14.89,29.78zm18.55 -53.18c-0.7,6.25 -1.66,12.27 -2.89,17.98 -20.39,-6.45 -32.9,8.55 -32.68,27.08 0.05,3.57 0.66,7.13 2.91,9.66 3.86,4.37 14.92,5.41 20.49,1.75 1.08,-0.72 2.18,-2.02 2.9,-2.91 0.54,-0.68 1.39,-2.45 1.54,-1.94 -0.28,1.97 -0.72,3.78 -0.76,6l7.53 0c1.46,-20.85 5.95,-38.65 9.28,-57.62l-8.32 0zm-212.85 50.07c-4.45,4.72 -15.38,4.64 -16.24,-3.28 -0.37,-3.45 0.91,-7.06 1.55,-10.63 0.63,-3.61 1.1,-7.08 1.74,-10.25 4.38,-5.34 17.25,-5.99 18.55,2.91 1.15,7.72 -1.92,17.36 -5.6,21.25zm6.58 -32.66c-7.05,-2.65 -15.62,0.51 -19.34,3.51 0.02,0.13 -0.09,0.15 -0.19,0.15 0.06,-0.05 0.13,-0.1 0.19,-0.15 0,-0.01 0,-0.03 0,-0.04 0.06,-1.29 0.51,-2.18 0.58,-3.47l-7.15 0c-2.99,19.83 -6.52,39.11 -10.25,58.19l8.31 0c1.2,-7.43 2,-15.28 3.68,-22.24 1.9,7.33 14.29,5.92 19.53,3.11 10.78,-5.85 19.11,-33.63 4.64,-39.06zm39.43 13.92l-19.53 0c0.62,-4.5 4.66,-9.42 11.03,-9.67 5.99,-0.23 10.28,2.2 8.5,9.67zm-7.93 -14.7c-6,0.47 -11.08,2.2 -14.69,5.99 -4.42,4.66 -8,14.98 -6.95,24.36 1.49,13.4 18.16,12.92 31.5,9.67 0.24,-2.35 0.8,-4.36 1.16,-6.58 -5.48,2.07 -15.03,4.94 -20.68,1.37 -4.27,-2.7 -4.29,-9.54 -2.9,-15.48 8.96,-0.28 18.28,-0.23 27.26,0 0.57,-4.21 2.19,-8.79 0.78,-12.95 -1.89,-5.48 -8.62,-6.91 -15.48,-6.38zm-73.08 0.78c-0.22,0.03 -0.21,0.3 -0.19,0.57 -1.84,13.71 -4.3,26.75 -6.95,39.64l8.31 0c1.99,-13.8 4.28,-27.29 7.15,-40.21l-8.32 0zm216.93 0.18c-7.35,-3.66 -13.47,2.5 -15.86,6.2 0.69,-1.9 0.73,-4.44 1.36,-6.38l-7.35 0c-1.98,13.8 -4.37,27.21 -7.16,40.21l8.51 0c0.05,-5.33 1.11,-9.27 1.94,-14.5 1.78,-11.16 4.39,-23.4 17.39,-19.72 0.44,-1.88 0.61,-4.03 1.17,-5.81zm-93.39 30.56c-0.76,-1.99 -0.96,-5.25 -0.76,-7.74 0.43,-5.59 2.45,-12.38 5.6,-15.46 4.34,-4.25 12.9,-3.55 19.72,-1.16 0.21,-2.3 0.68,-4.35 0.96,-6.57 -11.19,-1.84 -21.81,-0.69 -27.45,5.21 -5.51,5.79 -9.12,19.08 -6.58,27.46 3.01,9.78 16.41,10.32 27.28,6.58 0.48,-1.98 0.72,-4.18 1.15,-6.2 -5.94,3.09 -17.28,4.69 -19.92,-2.12zm-4.63 -30.74c-7.37,-2.99 -13.16,2.05 -15.85,6.76 0.61,-2.09 0.85,-4.55 1.35,-6.76l-7.36 0c-1.79,13.93 -4.44,27 -6.95,40.21l8.32 0c1.15,-7.85 1.66,-18.41 4.25,-25.9 2.06,-6.01 7.47,-11.1 15.27,-8.32 0.11,-2.21 0.75,-3.9 0.97,-5.99zm-133.98 -16.24c-1.19,7.7 -2.53,15.25 -3.87,22.81 -8.62,0.08 -17.41,0.42 -25.71,-0.19 1.57,-7.39 2.69,-15.23 4.25,-22.62l-9.28 0c-3.33,18.84 -6.34,37.99 -10.06,56.45l9.47 0c1.5,-9.47 2.89,-19.03 4.84,-28.04 8.08,-0.19 17.76,-0.54 25.53,0.2 -1.61,9.35 -3.54,18.37 -5.03,27.84l9.47 0c3.04,-19.12 6.25,-38.09 10.06,-56.45l-9.67 0zm23.58 8.5c1.66,-1.13 3.79,-6.34 1.35,-8.5 -0.76,-0.69 -2.06,-0.88 -3.86,-0.58 -1.67,0.28 -2.63,0.84 -3.28,1.74 -1.06,1.43 -2.02,5.74 -0.39,7.34 1.58,1.56 5.13,0.73 6.18,0z"/>
   </g>
   <g id="VISA.cdr">
    <polygon class="fil3" points="169.83,165.61 188.83,54.53 219.17,54.53 200.17,165.61 "/>
    <path class="fil3" d="M310.02 57.28c-5.98,-2.14 -15.47,-4.58 -27.11,-4.58 -30.04,0 -51.02,15 -51.18,36.61 -0.16,15.93 15.02,24.81 26.5,30.18 11.8,5.52 15.79,8.89 15.63,13.78 0,7.51 -9.34,10.89 -18.07,10.89 -12.11,0 -18.54,-1.69 -28.5,-5.82l-3.99 -1.84 -4.13 24.82c7.05,3.21 20.07,5.82 33.7,5.97 31.87,0 52.41,-14.85 52.71,-37.99 0.15,-12.56 -7.97,-22.22 -25.43,-30.18 -10.57,-5.06 -17.01,-8.43 -17.01,-13.64 0,-4.75 5.51,-9.66 17.31,-9.66 9.96,-0.15 17.16,2 22.67,4.29l2.77 1.23 4.13 -24.06z"/>
    <path class="fil3" d="M387.7 54.68l-23.44 0c-7.21,0 -12.72,1.99 -15.94,9.19l-44.89 101.88 31.72 0c0,0 5.21,-13.78 6.43,-16.69 3.53,0 34.32,0 38.77,0 0.92,3.83 3.67,16.69 3.67,16.69l28.04 0 -24.36 -111.07zm-37.38 71.55c2.44,-6.27 12.1,-30.95 12.1,-30.95 -0.3,0.3 2.45,-6.43 3.99,-10.57l1.98 9.5c0,0 5.82,26.5 7.06,32.02l-25.13 0z"/>
    <path class="fil3" d="M144.55 54.68l-29.72 75.68 -3.07 -15.31c-5.51,-17.78 -22.83,-36.93 -41.98,-46.58l27.13 97.14 32.01 0 47.66 -110.93 -32.03 0z"/>
    <path class="fil4" d="M87.4 54.53l-48.87 0 -0.31 2.45c37.85,9.19 63.13,31.41 73.54,58.07l-10.72 -51.02c-1.84,-7.05 -7.04,-9.19 -13.64,-9.5z"/>
   </g>
   <g>
    <path id="path2997" class="fil5" d="M861.72 92.01c0,38.82 -31.41,70.3 -70.17,70.3 -38.74,0 -70.16,-31.48 -70.16,-70.3 0,-38.83 31.42,-70.3 70.16,-70.3 38.76,0 70.17,31.47 70.17,70.3z"/>
    <path id="path2995" class="fil6" d="M775.15 92.01c0,38.82 -31.41,70.3 -70.15,70.3 -38.76,0 -70.17,-31.48 -70.17,-70.3 0,-38.83 31.41,-70.3 70.17,-70.3 38.74,0 70.15,31.47 70.15,70.3z"/>
    <path id="path2999" class="fil7" d="M748.27 36.66c-16.37,12.88 -26.88,32.87 -26.88,55.34 0,22.46 10.51,42.48 26.88,55.34 16.37,-12.86 26.88,-32.88 26.88,-55.34 0,-22.47 -10.51,-42.46 -26.88,-55.34l0 0z"/>
    <path id="path3057" class="fil5" d="M861.59 129.31l0 -2.51 -0.66 0 -0.75 1.72 -0.76 -1.72 -0.65 0 0 2.51 0.47 0 0 -1.9 0.7 1.64 0.48 0 0.7 -1.64 0 1.9 0.47 0zm-4.14 0l0 -2.08 0.83 0 0 -0.43 -2.13 0 0 0.43 0.83 0 0 2.08 0.47 0z"/>
    <path id="path3006" class="fil8" d="M650.43 197.08l-3.98 0 0 -18.58 3.9 0 0 2.26c0,0 3.43,-2.77 5.47,-2.73 3.96,0.07 6.33,3.45 6.33,3.45 0,0 1.91,-3.45 6.25,-3.45 6.39,0 7.33,5.86 7.33,5.86l0 13.11 -3.82 0 0 -11.55c0,0 0.01,-3.51 -4.15,-3.51 -4.29,0 -4.68,3.51 -4.68,3.51l0 11.55 -3.98 0 0 -11.63c0,0 -0.38,-3.66 -3.98,-3.66 -4.68,0 -4.77,3.74 -4.77,3.74l0.08 11.63z"/>
    <path id="path3008" class="fil8" d="M771.52 178.03c-2.03,-0.04 -5.46,2.73 -5.46,2.73l0 -2.26 -3.91 0 0 18.58 3.99 0 -0.08 -11.63c0,0 0.09,-3.74 4.76,-3.74 0.87,0 1.54,0.21 2.07,0.53l0 -0.01 1.3 -3.61c-0.78,-0.34 -1.67,-0.57 -2.67,-0.59z"/>
    <path id="path3013" class="fil8" d="M827.6 178.03c-2.02,-0.04 -5.45,2.73 -5.45,2.73l0 -2.26 -3.91 0 0 18.58 3.99 0 -0.08 -11.63c0,0 0.09,-3.74 4.75,-3.74 0.87,0 1.55,0.21 2.08,0.53l0 -0.01 1.3 -3.61c-0.78,-0.34 -1.68,-0.57 -2.68,-0.59l0 0z"/>
    <path id="path3015" class="fil8" d="M688.6 177.95c-5.95,0 -9.11,5.36 -9.12,9.84 -0.03,4.59 3.59,9.87 9.29,9.87 3.33,0 6.07,-2.45 6.07,-2.45l-0.02 1.88 3.93 0 0 -18.59 -3.94 0 0 2.34c0,0 -2.56,-2.89 -6.21,-2.89zm0.77 3.79c3.19,0 5.8,2.79 5.8,6.22 0,3.42 -2.61,6.2 -5.8,6.2 -3.2,0 -5.78,-2.78 -5.78,-6.2 0,-3.43 2.58,-6.22 5.78,-6.22z"/>
    <path id="path3020" class="fil8" d="M802.91 177.95c-5.97,0 -9.12,5.36 -9.14,9.84 -0.01,4.59 3.59,9.87 9.3,9.87 3.33,0 6.06,-2.45 6.06,-2.45l0 1.88 3.91 0 0 -18.59 -3.92 0 0 2.34c0,0 -2.58,-2.89 -6.21,-2.89zm0.75 3.79c3.21,0 5.81,2.79 5.81,6.22 0,3.42 -2.6,6.2 -5.81,6.2 -3.2,0 -5.78,-2.78 -5.78,-6.2 0,-3.43 2.58,-6.22 5.78,-6.22z"/>
    <path id="path3022" class="fil8" d="M840.53 177.95c-5.96,0 -9.11,5.36 -9.13,9.84 -0.02,4.59 3.6,9.87 9.3,9.87 3.33,0 6.07,-2.45 6.07,-2.45l-0.02 1.88 3.93 0 0 -25.93 -3.94 0 0 9.68c0,0 -2.57,-2.89 -6.21,-2.89zm0.77 3.79c3.19,0 5.79,2.79 5.79,6.22 0,3.42 -2.6,6.2 -5.79,6.2 -3.21,0 -5.78,-2.78 -5.78,-6.2 0,-3.43 2.57,-6.22 5.78,-6.22z"/>
    <path id="path3024" class="fil8" d="M710.7 197.7c-4.05,0 -7.8,-2.49 -7.8,-2.49l1.72 -2.65c0,0 3.55,1.63 6.08,1.63 1.66,0 4.42,-0.53 4.46,-2.18 0.04,-1.75 -4.65,-2.27 -4.65,-2.27 0,0 -6.98,-0.09 -6.98,-5.85 0,-3.62 3.48,-5.94 7.96,-5.94 2.59,0 7.41,2.27 7.41,2.27l-1.95 3.05c0,0 -3.73,-1.5 -5.69,-1.56 -1.66,-0.07 -3.68,0.73 -3.68,2.18 0,3.94 11.63,-0.31 11.63,7.65 0,5.23 -4.73,6.16 -8.51,6.16l0 0z"/>
    <path id="path3026" class="fil8" d="M725.68 173.12l0 5.41 -3.47 0 0 3.89 3.47 0 0 9.35c0,0 -0.3,6.32 6.48,6.32 1.89,0 5.56,-1.39 5.56,-1.39l-1.57 -4.06c0,0 -1.45,1.24 -3.12,1.2 -3.13,-0.07 -3.05,-2.09 -3.05,-2.09l0 -9.33 6.48 0 0 -3.89 -6.48 0 0 -5.41 -4.3 0 0 0z"/>
    <path id="path3034" class="fil8" d="M749.26 178.19c-6.38,0 -9.57,5.26 -9.55,9.82 0.03,4.7 2.91,9.99 9.94,9.99 3,0 7.24,-2.65 7.24,-2.65l-1.82 -3.16c0,0 -2.89,2.06 -5.42,2.06 -5.08,0 -5.4,-4.97 -5.4,-4.97l13.57 0c0,0 1.03,-11.09 -8.56,-11.09zm-0.57 3.64c0.14,0 0.31,0 0.47,0 4.78,0 4.75,4.52 4.75,4.52l-9.66 0c0,0 -0.24,-4.25 4.44,-4.52z"/>
    <path id="path3037" class="fil8" d="M789.68 192.15l1.82 3.64c0,0 -2.89,1.87 -6.13,1.87 -6.71,0 -10.44,-5.04 -10.44,-9.82 0,-7.51 5.94,-9.72 9.94,-9.72 3.64,0 6.8,2.11 6.8,2.11l-2.06 3.64c0,0 -1.23,-1.94 -4.84,-1.94 -3.63,0 -5.52,3.12 -5.52,6.08 0,3.31 2.21,6.13 5.57,6.13 2.63,0 4.86,-1.99 4.86,-1.99l0 0z"/>
    <path id="path3078" class="fil8" d="M858.89 194.53c-0.55,0.02 -1,0.2 -1.36,0.55 -0.36,0.35 -0.54,0.79 -0.55,1.32 0.01,0.54 0.19,0.96 0.55,1.33 0.36,0.35 0.81,0.53 1.36,0.54 0.55,-0.01 0.99,-0.19 1.35,-0.54 0.36,-0.37 0.55,-0.79 0.56,-1.33 -0.01,-0.53 -0.2,-0.97 -0.56,-1.32 -0.35,-0.35 -0.8,-0.53 -1.35,-0.55zm0 3.33c-0.42,0 -0.77,-0.14 -1.04,-0.42 -0.27,-0.27 -0.42,-0.62 -0.42,-1.04 0,-0.41 0.15,-0.75 0.42,-1.02 0.27,-0.28 0.62,-0.42 1.04,-0.43 0.42,0.01 0.75,0.15 1.03,0.43 0.27,0.27 0.41,0.61 0.42,1.02 -0.01,0.42 -0.15,0.77 -0.42,1.04 -0.28,0.28 -0.61,0.42 -1.03,0.42zm0.12 -2.33l-0.81 0 0 1.74 0.38 0 0 -0.66 0.17 0 0.52 0.66 0.45 0 -0.57 -0.66c0.17,-0.02 0.31,-0.08 0.4,-0.17 0.11,-0.09 0.14,-0.21 0.14,-0.36 0,-0.17 -0.05,-0.3 -0.18,-0.4 -0.11,-0.1 -0.28,-0.15 -0.5,-0.15zm-0.02 0.33c0.11,0 0.19,0.01 0.24,0.05 0.06,0.04 0.09,0.1 0.09,0.17 0,0.08 -0.03,0.14 -0.09,0.18 -0.05,0.04 -0.13,0.05 -0.24,0.05l-0.41 0 0 -0.45 0.41 0z"/>
   </g>
   <g>
    <path class="fil9" d="M1396.82 87.05c-2.98,-11.14 -8.19,-21.7 -15.23,-30.78 -7.05,-9.1 -15.95,-16.72 -25.24,-22.36 -9.29,-5.64 -18.97,-9.3 -25.93,-11.19 -6.96,-1.88 -11.1,-1.07 -15.28,-1.07l-100.28 0 0 0c-2.73,0 -5.44,0 -12.4,1.72 -6.97,1.74 -18.17,4.94 -28.2,10.42 -10.03,5.49 -18.86,13.25 -25.89,22.41 -7.02,9.15 -12.21,19.71 -15.2,30.85 -2.99,11.15 -3.76,22.89 -2.26,34.32 1.5,11.45 5.27,22.6 11.04,32.59 5.78,9.99 13.54,18.84 22.74,25.68 9.18,6.85 19.81,11.71 28.4,14.71 8.6,3.01 15.16,4.18 21.77,4.18l100.28 0 0 0c6.6,0 13.16,-1.17 21.76,-4.18 8.59,-3 19.21,-7.86 28.41,-14.71 9.19,-6.84 16.96,-15.69 22.73,-25.68 5.76,-9.99 9.55,-21.14 11.04,-32.59 1.51,-11.43 0.73,-23.17 -2.26,-34.32l0 0zm-97.51 44.52c-2.83,10.6 -7.78,20.65 -14.46,29.35 -6.68,8.72 -15.09,16.1 -24.59,21.58 -9.51,5.5 -20.11,9.08 -30.99,10.51 -10.89,1.43 -22.05,0.7 -32.65,-2.14 -10.6,-2.85 -20.64,-7.78 -29.35,-14.46 -8.72,-6.68 -16.09,-15.1 -21.59,-24.6 -5.48,-9.51 -9.08,-20.11 -10.5,-31 -1.43,-10.87 -0.7,-22.04 2.15,-32.64 2.83,-10.61 7.78,-20.64 14.46,-29.35 6.67,-8.71 15.09,-16.1 24.59,-21.58 9.51,-5.5 20.11,-9.09 30.99,-10.52 10.88,-1.42 22.06,-0.68 32.65,2.15 10.6,2.84 20.64,7.79 29.35,14.47 8.71,6.68 16.09,15.09 21.59,24.6 5.48,9.49 9.08,20.1 10.5,30.98 1.43,10.89 0.7,22.05 -2.15,32.65l0 0z"/>
    <path class="fil9" d="M1185.32 79.3c-3.73,4.1 -6.71,8.89 -8.71,14.05 -2,5.17 -3.04,10.7 -3.04,16.25 0,5.54 1.04,11.07 3.04,16.24 2,5.16 4.98,9.95 8.71,14.05 3.73,4.09 8.24,7.47 13.19,9.95l0 -80.49c-4.95,2.48 -9.46,5.87 -13.19,9.95l0 0z"/>
    <path class="fil9" d="M1251.5 79.07c-3.81,-4.1 -8.38,-7.48 -13.41,-9.93l0 80.91c5.03,-2.45 9.6,-5.84 13.41,-9.93 3.79,-4.1 6.82,-8.92 8.86,-14.13 2.04,-5.21 3.11,-10.8 3.11,-16.39 0,-5.6 -1.07,-11.18 -3.11,-16.39 -2.04,-5.21 -5.07,-10.03 -8.86,-14.14l0 0z"/>
   </g>
   <g>
    <path class="fil10" d="M1692.68 196.75l-0.59 0c0,-0.28 -0.14,-0.72 -0.14,-0.88 0,-0.14 0,-0.44 -0.44,-0.44l-0.89 0 0 1.32 -0.44 0 0 -3.09 1.33 0c0.58,0 1.02,0.16 1.02,0.74 0,0.44 -0.14,0.59 -0.29,0.74 0.15,0.15 0.29,0.29 0.29,0.59l0 0.58c0,0.16 0,0.16 0.15,0.16l0 0.28zm-0.59 -2.2c0,-0.45 -0.3,-0.45 -0.44,-0.45l-1.03 0 0 0.89 0.89 0c0.28,0 0.58,-0.15 0.58,-0.44l0 0zm2.51 0.59c0,-1.76 -1.48,-3.24 -3.39,-3.24 -1.77,0 -3.24,1.48 -3.24,3.24 0,1.91 1.47,3.38 3.24,3.38 1.91,0 3.39,-1.47 3.39,-3.38l0 0zm-0.44 0c0,1.61 -1.33,2.8 -2.95,2.8 -1.62,0 -2.79,-1.19 -2.79,-2.8 0,-1.48 1.17,-2.8 2.79,-2.8 1.62,0 2.95,1.32 2.95,2.8z"/>
    <path class="fil10" d="M1875.48 135.68c0,4.42 -2.8,6.47 -7.8,6.47l-9.56 0 0 -4.42 9.56 0c0.89,0 1.63,-0.14 1.91,-0.44 0.3,-0.29 0.6,-0.73 0.6,-1.33 0,-0.58 -0.3,-1.17 -0.6,-1.46 -0.28,-0.29 -0.88,-0.45 -1.76,-0.45 -4.56,-0.14 -10.31,0.16 -10.31,-6.32 0,-2.94 1.93,-6.19 7.07,-6.19l9.86 0 0 4.42 -9.12 0c-0.88,0 -1.48,0 -1.92,0.3 -0.44,0.44 -0.73,0.88 -0.73,1.61 0,0.74 0.44,1.18 1.03,1.48 0.58,0.14 1.18,0.29 1.91,0.29l2.65 0c2.79,0 4.56,0.59 5.74,1.62 0.88,1.03 1.47,2.35 1.47,4.42l0 0zm-20.75 -4.42c-1.18,-1.03 -2.95,-1.62 -5.74,-1.62l-2.65 0c-0.73,0 -1.33,-0.15 -1.91,-0.29 -0.59,-0.3 -1.03,-0.74 -1.03,-1.48 0,-0.73 0.14,-1.17 0.73,-1.61 0.44,-0.3 1.04,-0.3 1.92,-0.3l9.12 0 0 -4.42 -9.86 0c-5.3,0 -7.07,3.25 -7.07,6.19 0,6.48 5.75,6.18 10.31,6.32 0.88,0 1.48,0.16 1.76,0.45 0.3,0.29 0.59,0.88 0.59,1.46 0,0.6 -0.29,1.04 -0.59,1.33 -0.44,0.3 -1.02,0.44 -1.91,0.44l-9.56 0 0 4.42 9.56 0c5,0 7.8,-2.05 7.8,-6.47 0,-2.07 -0.59,-3.39 -1.47,-4.42l0 0zm-18.84 6.63l-11.63 0 0 -4.12 11.33 0 0 -4.13 -11.33 0 0 -3.82 11.63 0 0 -4.28 -16.49 0 0 20.61 16.49 0 0 -4.26zm-21.79 -15.31c-1.61,-0.88 -3.53,-1.04 -6.03,-1.04l-11.32 0 0 20.61 5 0 0 -7.5 5.3 0c1.77,0 2.79,0.14 3.52,0.88 0.88,1.03 0.88,2.8 0.88,4.12l0 2.5 4.86 0 0 -3.98c0,-1.91 -0.14,-2.79 -0.73,-3.82 -0.44,-0.58 -1.32,-1.32 -2.5,-1.76 1.32,-0.45 3.53,-2.21 3.53,-5.45 0,-2.35 -0.88,-3.67 -2.51,-4.56l0 0zm-27.96 -1.04l-15.74 0 -6.33 6.77 -6.04 -6.77 -19.87 0 0 20.61 19.58 0 6.33 -6.77 6.03 6.77 9.57 0 0 -6.91 6.17 0c4.28,0 8.54,-1.19 8.54,-6.93 0,-5.59 -4.4,-6.77 -8.24,-6.77l0 0zm23.99 8.54c-0.73,0.3 -1.47,0.3 -2.35,0.3l-6.03 0.14 0 -4.7 6.03 0c0.88,0 1.76,0 2.35,0.44 0.59,0.28 1.04,0.88 1.04,1.77 0,0.88 -0.45,1.61 -1.04,2.05l0 0zm-23.99 1.04l-6.47 0 0 -5.3 6.47 0c1.77,0 2.95,0.72 2.95,2.49 0,1.77 -1.18,2.81 -2.95,2.81l0 0zm-18.98 0.72l7.65 -8.09 0 16.63 -7.65 -8.54zm-11.92 6.05l-12.22 0 0 -4.12 10.89 0 0 -4.13 -10.89 0 0 -3.82 12.36 0 5.44 6.02 -5.58 6.05zm106.56 -31.21l-7.07 0 -9.28 -15.45 0 15.45 -10 0 -1.91 -4.56 -10.3 0 -1.91 4.56 -5.75 0c-2.36,0 -5.45,-0.59 -7.21,-2.35 -1.62,-1.77 -2.5,-4.12 -2.5,-7.81 0,-3.08 0.44,-5.89 2.65,-8.09 1.46,-1.62 4.11,-2.36 7.51,-2.36l4.7 0 0 4.42 -4.7 0c-1.77,0 -2.81,0.3 -3.84,1.18 -0.88,0.89 -1.32,2.5 -1.32,4.71 0,2.2 0.44,3.83 1.32,4.86 0.74,0.74 2.07,1.02 3.39,1.02l2.21 0 7.06 -16.19 7.36 0 8.24 19.44 0 -19.44 7.65 0 8.7 14.28 0 -14.28 5 0 0 20.61zm-58.44 -20.61l-5 0 0 20.61 5 0 0 -20.61zm-10.45 0.89c-1.62,-0.89 -3.38,-0.89 -5.88,-0.89l-11.33 0 0 20.61 4.84 0 0 -7.51 5.3 0c1.77,0 2.95,0.16 3.69,0.88 0.88,1.04 0.73,2.81 0.73,3.98l0 2.65 5 0 0 -4.12c0,-1.77 -0.14,-2.65 -0.88,-3.68 -0.44,-0.59 -1.32,-1.32 -2.35,-1.76 1.32,-0.6 3.53,-2.21 3.53,-5.45 0,-2.36 -1.02,-3.69 -2.65,-4.71l0 0zm-20.75 15.46l-11.48 0 0 -4.13 11.33 0 0 -4.27 -11.33 0 0 -3.67 11.48 0 0 -4.28 -16.48 0 0 20.61 16.48 0 0 -4.26zm-20.16 -16.35l-8.09 0 -6.05 13.98 -6.47 -13.98 -7.95 0 0 19.44 -8.39 -19.44 -7.35 0 -8.84 20.61 5.3 0 1.91 -4.56 10.31 0 1.91 4.56 10.01 0 0 -16.19 7.21 16.19 4.26 0 7.23 -16.19 0 16.19 5 0 0 -20.61zm79.77 11.63l-3.39 -8.09 -3.38 8.09 6.77 0zm-42.68 -3.23c-0.74,0.44 -1.48,0.44 -2.5,0.44l-6.05 0 0 -4.56 6.05 0c0.88,0 1.91,0 2.5,0.28 0.59,0.45 0.89,1.04 0.89,1.93 0,0.88 -0.3,1.61 -0.89,1.91l0 0zm-81.25 3.23l3.39 -8.09 3.38 8.09 -6.77 0zm166.47 -76.24l-175.59 0 0 74.18 6.03 -13.69 12.81 0 1.76 3.38 0 -3.38 15.01 0 3.39 7.36 3.24 -7.36 47.83 0c2.21,0 4.12,0.45 5.59,1.62l0 -1.62 13.11 0 0 1.62c2.2,-1.17 5,-1.62 8.24,-1.62l18.98 0 1.77 3.38 0 -3.38 13.98 0 2.06 3.38 0 -3.38 13.69 0 0 28.85 -13.83 0 -2.65 -4.42 0 4.42 -17.23 0 -1.91 -4.71 -4.26 0 -1.92 4.71 -8.98 0c-3.54,0 -6.19,-0.89 -7.94,-1.77l0 1.77 -21.35 0 0 -6.63c0,-0.87 -0.14,-1.02 -0.74,-1.02l-0.72 0 0 7.65 -41.22 0 0 -3.68 -1.48 3.68 -8.68 0 -1.46 -3.54 0 3.54 -16.63 0 -1.77 -4.71 -4.28 0 -1.91 4.71 -8.53 0 0 86.98 175.59 0 0 -52.83c-1.92,0.89 -4.56,1.32 -7.21,1.32l-12.81 0 0 -1.76c-1.47,1.17 -4.12,1.76 -6.63,1.76l-40.33 0 0 -6.62c0,-0.88 -0.14,-0.88 -0.88,-0.88l-0.73 0 0 7.5 -13.25 0 0 -7.8c-2.21,1.03 -4.7,1.03 -6.91,1.03l-1.48 0 0 6.77 -16.19 0 -3.82 -4.41 -4.27 4.41 -26.05 0 0 -28.85 26.49 0 3.83 4.42 4.12 -4.42 17.81 0c2.05,0 5.44,0.3 6.91,1.77l0 -1.77 15.91 0c1.61,0 4.7,0.3 6.76,1.77l0 -1.77 23.99 0 0 1.77c1.32,-1.18 3.83,-1.77 6.04,-1.77l13.39 0 0 1.77c1.47,-1.03 3.52,-1.77 6.18,-1.77l9.13 0 0 -95.96z"/>
   </g>
  </g>
 </g>
</svg>
