<?xml version="1.0" encoding="UTF-8"?>
<!DOCTYPE svg PUBLIC "-//W3C//DTD SVG 1.1//EN" "http://www.w3.org/Graphics/SVG/1.1/DTD/svg11.dtd">
<!-- Creator: CorelDRAW 2017 -->
<svg xmlns="http://www.w3.org/2000/svg" xml:space="preserve" width="2530px" height="220px" version="1.1" style="shape-rendering:geometricPrecision; text-rendering:geometricPrecision; image-rendering:optimizeQuality; fill-rule:evenodd; clip-rule:evenodd"
viewBox="0 0 2530 219.98"
 xmlns:xlink="http://www.w3.org/1999/xlink">
 <defs>
  <style type="text/css">
   <![CDATA[
    .fil2 {fill:#FFF212}
    .fil11 {fill:#FAA831}
    .fil3 {fill:#ED3237}
    .fil10 {fill:#0B5FA2}
    .fil1 {fill:#3C4190}
    .fil7 {fill:#3E4095}
    .fil0 {fill:#DADADA}
    .fil9 {fill:#0038A8}
    .fil6 {fill:#FEFEFE;fill-rule:nonzero}
    .fil5 {fill:#E3304A;fill-rule:nonzero}
    .fil4 {fill:#3C4190;fill-rule:nonzero}
    .fil8 {fill:#F9DD16;fill-rule:nonzero}
   ]]>
  </style>
 </defs>
 <g id="Camada_x0020_1">
  <metadata id="CorelCorpID_0Corel-Layer"/>
  <g id="_1662930948096">
   <path class="fil0" d="M55.39 0.42l352.32 0c30.28,0 55.02,24.75 55.02,55.02l0 109.11c0,30.27 -24.74,55.02 -55.02,55.02l-352.32 0c-30.29,0 -55.03,-24.75 -55.03,-55.02l0 -109.11c0,-30.27 24.74,-55.02 55.03,-55.02z"/>
   <path class="fil0" d="M572.11 0.42l352.33 0c30.28,0 55.02,24.75 55.02,55.02l0 109.11c0,30.27 -24.74,55.02 -55.02,55.02l-352.33 0c-30.28,0 -55.02,-24.75 -55.02,-55.02l0 -109.11c0,-30.27 24.74,-55.02 55.02,-55.02z"/>
   <path class="fil0" d="M1088.84 0.42l352.32 0c30.29,0 55.02,24.75 55.02,55.02l0 109.11c0,30.27 -24.73,55.02 -55.02,55.02l-352.32 0c-30.29,0 -55.02,-24.75 -55.02,-55.02l0 -109.11c0,-30.27 24.73,-55.02 55.02,-55.02z"/>
   <path class="fil0" d="M1605.56 0.42l352.33 0c30.28,0 55.02,24.75 55.02,55.02l0 109.11c0,30.27 -24.74,55.02 -55.02,55.02l-352.33 0c-30.28,0 -55.02,-24.75 -55.02,-55.02l0 -109.11c0,-30.27 24.74,-55.02 55.02,-55.02z"/>
   <path class="fil0" d="M2122.29 0.42l352.32 0c30.29,0 55.03,24.75 55.03,55.02l0 109.11c0,30.27 -24.74,55.02 -55.03,55.02l-352.32 0c-30.28,0 -55.02,-24.75 -55.02,-55.02l0 -109.11c0,-30.27 24.74,-55.02 55.02,-55.02z"/>
   <g id="aura.cdr">
    <path class="fil1" d="M615.31 22.19l265.63 0 0.3 82.79c-32.08,-12.2 -134.1,-41.4 -265.93,-5.02l0 -77.77z"/>
    <path class="fil2" d="M615.31 197.79l265.63 0 0 -66.23c-47.91,-16.03 -133.06,-40.06 -265.63,-6.02l0 72.25z"/>
    <path class="fil3" d="M880.94 131.56c-47.91,-16.03 -133.06,-40.06 -265.63,-6.02l0 -25.58c131.83,-36.38 233.85,-7.18 265.93,5.02l-0.3 26.58z"/>
    <path class="fil2" d="M699.93 84.37c6.57,-18.16 21.62,-33.86 47.75,-33.66 26.14,0.21 43.57,15.08 48.29,34.62 -33.69,-3.51 -56.14,-4.12 -96.04,-0.96z"/>
    <g>
     <path class="fil4" d="M696.55 140.5l-17.78 26.5 -8.22 -5.51 17.79 -26.5 4.11 -2.2 4.1 7.71zm-8.21 -5.51c1.52,-2.26 4.6,-2.87 6.86,-1.35 2.26,1.52 2.87,4.6 1.35,6.86l-8.21 -5.51zm10.71 7.7l-6.6 0 0 -9.9 6.6 0 4.02 2.07 -4.02 7.83zm0 -9.9c2.72,0 4.95,2.23 4.95,4.95 0,2.73 -2.23,4.95 -4.95,4.95l0 -9.9zm14.92 34.34l-18.95 -26.5 8.05 -5.77 18.96 26.5 -4.03 7.84 -4.03 -2.07zm8.06 -5.77c1.58,2.22 1.08,5.33 -1.14,6.92 -2.23,1.58 -5.33,1.07 -6.92,-1.15l8.06 -5.77zm-11.01 -2.06l6.98 0 0 9.9 -6.98 0 -4.1 -2.19 4.1 -7.71zm0 9.9c-2.72,0 -4.95,-2.22 -4.95,-4.95 0,-2.73 2.23,-4.95 4.95,-4.95l0 9.9zm-1.29 -15.75l5.4 8.03 -8.21 5.53 -5.41 -8.02 4.11 -7.72 4.11 2.18zm-8.22 5.54c-1.52,-2.26 -0.92,-5.36 1.34,-6.88 2.26,-1.52 5.36,-0.92 6.88,1.34l-8.22 5.54zm-15.26 -7.72l19.37 0 0 9.9 -19.37 0 -4.18 -7.6 4.18 -2.3zm0 9.9c-2.73,0 -4.95,-2.22 -4.95,-4.95 0,-2.73 2.22,-4.95 4.95,-4.95l0 9.9zm-9.26 0.43l5.08 -8.03 8.36 5.3 -5.08 8.03 -4.18 2.3 -4.18 -7.6zm8.36 5.3c-1.45,2.3 -4.53,2.99 -6.83,1.53 -2.3,-1.45 -2.99,-4.53 -1.53,-6.83l8.36 5.3zm-10.69 -7.6l6.51 0 0 9.9 -6.51 0 -4.11 -7.71 4.11 -2.19zm0 9.9c-2.73,0 -4.95,-2.22 -4.95,-4.95 0,-2.73 2.22,-4.95 4.95,-4.95l0 9.9zm29.08 -10.89l-15.72 0 0 -9.9 15.72 0 4.13 2.22 -4.13 7.68zm0 -9.9c2.72,0 4.95,2.22 4.95,4.95 0,2.73 -2.23,4.95 -4.95,4.95l0 -9.9zm-0.72 -5.12l4.85 7.34 -8.27 5.46 -4.84 -7.34 8.26 -5.46zm-8.26 5.46c-1.5,-2.28 -0.87,-5.37 1.4,-6.86 2.28,-1.5 5.37,-0.87 6.86,1.4l-8.26 5.46zm5.52 -6.59l-9.33 -3.27 9.12 -0.54 0.08 0.17 0.03 0.07 -0.02 -0.02 0.08 0.15 0.13 0.22 0.08 0.15 0.08 0.15 0.04 0.09 0.01 0.01 0.09 0.16 0.13 0.23 0.09 0.17 0.09 0.16 0.07 0.11 0.02 0.04 0.11 0.17 0.15 0.25 0.11 0.18 0.02 0.05 0.09 0.14 0.2 0.29 0.14 0.25 -0.01 -0.02 0.13 0.19 0.22 0.36 0.05 0.09 0.07 0.1 0.17 0.25 0.12 0.21 0.13 0.19 0.12 0.19 0.13 0.19 -8.26 5.46 -0.16 -0.22 -0.14 -0.24 -0.13 -0.19 -0.13 -0.21 -0.09 -0.14 -0.2 -0.29 -0.18 -0.3 -0.01 -0.02 -0.13 -0.19 -0.25 -0.4 -0.06 -0.11 -0.04 -0.08 -0.14 -0.22 -0.19 -0.29 -0.1 -0.18 -0.05 -0.09 -0.11 -0.17 -0.18 -0.3 -0.11 -0.22 -0.1 -0.16 -0.09 -0.17 -0.05 -0.07 -0.09 -0.16 -0.17 -0.3 -0.12 -0.22 -0.07 -0.14 -0.08 -0.16 -0.03 -0.06 -0.08 -0.15 -0.16 -0.29 -0.11 -0.23 -0.05 -0.09 9.12 -0.53zm-9.12 0.53c-1.2,-2.45 -0.17,-5.43 2.29,-6.62 2.45,-1.2 5.43,-0.17 6.62,2.28l-8.91 4.34zm6.09 5.62l-8.29 -5.43 -0.01 0.03 0.07 -0.1 0.09 -0.16 0.1 -0.15 0.04 -0.08 0.1 -0.17 0.07 -0.1 0.09 -0.16 0.09 -0.15 0.01 -0.02 0.08 -0.15 0.05 -0.09 0.08 -0.17 0.13 -0.22 0 -0.02 0.08 -0.15 0.08 -0.16 0.05 -0.09 0.08 -0.17 0.1 -0.22 0.01 -0.01 0.07 -0.16 0.04 -0.08 0 -0.02 0.09 -0.22 0.06 -0.16 0.04 -0.09 0.07 -0.17 0.09 -0.22 0 0.01 0.04 -0.09 0.06 -0.17 0.04 -0.11 9.33 3.27 -0.06 0.2 -0.07 0.16 -0.06 0.23 -0.13 0.32 -0.04 0.09 -0.07 0.17 -0.09 0.22 -0.06 0.16 -0.04 0.09 -0.13 0.31 -0.12 0.23 -0.07 0.16 -0.14 0.3 -0.05 0.09 -0.08 0.17 -0.1 0.22 -0.08 0.15 -0.08 0.16 -0.15 0.3 -0.06 0.09 -0.07 0.17 -0.13 0.22 -0.08 0.16 -0.17 0.3 -0.09 0.15 -0.09 0.16 -0.12 0.2 -0.1 0.17 -0.15 0.24 -0.1 0.15 -0.09 0.16 -0.14 0.21 -0.02 0.04zm0.02 -0.04c-1.47,2.28 -4.55,2.95 -6.84,1.48 -2.28,-1.47 -2.95,-4.55 -1.48,-6.84l8.32 5.36zm-13.4 2.37l5.09 -7.76 8.29 5.43 -5.09 7.77 -4.14 2.23 -4.15 -7.67zm8.29 5.44c-1.49,2.28 -4.57,2.92 -6.86,1.42 -2.29,-1.49 -2.92,-4.57 -1.43,-6.86l8.29 5.44zm61.91 5.35l0 2.82 -9.9 0 0 -2.82 1.79 -3.82 8.11 3.82zm-9.9 0c0,-2.73 2.22,-4.95 4.95,-4.95 2.73,0 4.95,2.22 4.95,4.95l-9.9 0zm-5.71 8.2l0 -9.9 0 0 0.34 0 0.34 -0.02 0.32 -0.01 0.32 -0.01 0.3 -0.03 0.31 -0.02 0.3 -0.03 0.28 -0.04 0.37 -0.05 0.27 -0.04 0.19 -0.04 0.26 -0.05 0.25 -0.05 0.25 -0.07 0.31 -0.09 0.22 -0.06 0.13 -0.04 0.25 -0.08 0.2 -0.08 0.17 -0.08 0.3 -0.13 0.24 -0.09 0.14 -0.06 0.17 -0.09 0.13 -0.07 0.17 -0.1 0.22 -0.15 0.15 -0.09 0.08 -0.05 0.2 -0.15 0.22 -0.16 0.1 -0.09 6.32 7.64 -0.39 0.3 -0.3 0.23 -0.33 0.23 -0.44 0.32 -0.39 0.24 -0.32 0.2 -0.41 0.23 -0.44 0.25 -0.4 0.19 -0.46 0.22 -0.39 0.17 -0.3 0.13 -0.45 0.19 -0.44 0.15 -0.4 0.16 -0.52 0.17 -0.46 0.11 -0.36 0.09 -0.46 0.12 -0.45 0.1 -0.47 0.11 -0.53 0.09 -0.46 0.06 -0.39 0.06 -0.46 0.06 -0.49 0.05 -0.46 0.06 -0.48 0.02 -0.5 0.04 -0.48 0.01 -0.49 0.02 -0.5 0 0 0zm-6.74 -0.8l2.39 -9.61 0 0 0.12 0.04 0.17 0.04 0.15 0.04 -0.05 -0.02 0.21 0.03 0.16 0.04 0.13 0.02 0.16 0.04 -0.01 -0.01 0.17 0.03 0.17 0.02 0.17 0.03 0.17 0.02 0.14 0.03 0 0 0.19 0.03 0.15 0.01 0.18 0.01 0.17 0.03 -0.01 0 0.19 0.01 0.17 0.01 0.17 0.02 0.18 0.01 0.01 0 0.17 0 0.18 0.01 0.19 0 0.16 0.02 0.03 0 0.18 0 0.18 0 0 9.9 -0.18 0 -0.18 0 -0.36 0 -0.2 -0.02 -0.18 0 -0.18 -0.01 -0.17 0 -0.35 -0.03 -0.18 -0.01 -0.2 -0.01 -0.17 -0.01 -0.17 -0.02 -0.37 -0.02 -0.17 -0.03 -0.18 -0.01 -0.2 -0.04 -0.14 0 -0.37 -0.05 -0.19 -0.03 -0.17 -0.03 -0.17 -0.02 -0.17 -0.03 -0.17 -0.02 -0.35 -0.07 -0.17 -0.04 -0.2 -0.02 -0.16 -0.04 -0.13 -0.03 -0.39 -0.09 -0.15 -0.04 -0.17 -0.04 -0.2 -0.04 0 0zm-5.7 -2.57l6.16 -7.74 0 0 -0.03 -0.03 -0.08 -0.05 0.15 0.1 0.03 0.03 -0.06 -0.04 -0.03 -0.02 0.22 0.14 -0.03 -0.03 -0.24 -0.13 0.11 0.05 0.32 0.17 -0.01 0 -0.18 -0.09 0.2 0.09 0.11 0.05 -0.07 -0.02 0.13 0.05 -0.09 -0.04 0.05 0.01 0.33 0.13 -0.07 -0.02 0.05 0.02 0.36 0.12 -0.08 -0.01 -0.12 -0.05 0.29 0.07 0.15 0.06 -0.05 -0.02 0.3 0.08 0.16 0.05 -0.04 -0.01 0.15 0.04 -2.39 9.61 -0.15 -0.04 -0.36 -0.09 -0.15 -0.05 -0.01 0 -0.34 -0.09 -0.16 -0.05 0 0 -0.4 -0.13 -0.34 -0.12 0.07 0.02 -0.21 -0.06 -0.33 -0.13 0.07 0.03 -0.21 -0.07 -0.32 -0.14 -0.13 -0.05 -0.3 -0.13 -0.11 -0.05 -0.02 -0.02 -0.42 -0.19 -0.22 -0.13 0.12 0.06 -0.11 -0.05 -0.44 -0.23 -0.22 -0.16 0.04 0.04 -0.23 -0.15 -0.22 -0.15 -0.15 -0.1 -0.04 -0.03 -0.23 -0.15 -0.18 -0.16 0 0zm0 0c-2.13,-1.69 -2.48,-4.82 -0.79,-6.95 1.68,-2.13 4.82,-2.48 6.95,-0.79l-6.16 7.74zm-3.37 -4.68l9.38 -3.19 -0.02 -0.07 0.02 0.09 -0.13 -0.32 0.04 0.08 0.04 0.09 0.04 0.08 0.04 0.09 0.04 0.08 0.04 0.09 -0.18 -0.34 -0.11 -0.17 0.21 0.32 0.04 0.08 -0.11 -0.17 0.06 0.08 0.05 0.08 -0.24 -0.31 0.07 0.06 0.34 0.47 -0.24 -0.31 -0.1 -0.13 0.06 0.08 0.07 0.06 0.06 0.08 -0.1 -0.1 0.07 0.06 0.06 0.07 -0.1 -0.11 -0.08 -0.08 0.23 0.21 0.07 0.07 -0.08 -0.08 -0.01 0 -6.16 7.74 -0.17 -0.13 -0.23 -0.21 -0.07 -0.06 0.08 0.08 -0.24 -0.21 -0.23 -0.24 -0.06 -0.06 -0.07 -0.07 -0.23 -0.23 -0.07 -0.08 -0.06 -0.06 -0.07 -0.08 -0.23 -0.26 -0.34 -0.47 0.23 0.31 -0.06 -0.06 -0.34 -0.47 -0.05 -0.08 -0.05 -0.07 -0.21 -0.33 -0.04 -0.08 0.1 0.17 -0.2 -0.32 -0.26 -0.5 -0.04 -0.09 -0.04 -0.08 -0.04 -0.09 -0.04 -0.07 -0.04 -0.1 -0.04 -0.07 -0.21 -0.51 -0.02 -0.09 -0.03 -0.07zm-0.59 -4.65l9.9 0 0 0 0 0.13 0 0.13 0 0.12 -0.02 -0.13 0.02 0.1 0.01 0.39 -0.01 -0.15 0.01 0.1 0 0.11 0.01 0.11 0 0.08 0.01 0.1 0 0.11 -0.01 -0.24 0.01 0.1 0.04 0.42 0 0.07 -0.02 -0.26 0.01 0.09 0.01 0.04 0.02 0.08 -0.07 -0.28 0.01 0 0.1 0.46 0.01 0.08 -0.07 -0.3 0 -0.03 0.09 0.39 -0.1 -0.37 0.03 0.06 0.01 0.07 -0.03 -0.12 -9.38 3.19 -0.07 -0.24 -0.02 -0.07 -0.02 -0.06 -0.13 -0.51 0.06 0.26 -0.05 -0.18 -0.09 -0.46 -0.01 -0.07 0.06 0.29 -0.04 -0.15 -0.09 -0.46 -0.01 -0.07 -0.02 -0.15 -0.01 -0.09 -0.05 -0.44 0 -0.12 0.01 0.22 -0.01 -0.09 -0.04 -0.44 0 -0.1 -0.01 -0.11 0 -0.13 -0.02 -0.11 0 -0.11 -0.01 -0.13 -0.01 -0.39 0.01 0.16 -0.01 -0.13 -0.01 -0.39 0 -0.12 0 -0.13 0 -0.13 0 0zm9.9 -11.88l0 11.88 -9.9 0 0 -11.88 4.95 -4.95 4.95 4.95zm-9.9 0c0,-2.73 2.22,-4.95 4.95,-4.95 2.72,0 4.95,2.22 4.95,4.95l-9.9 0zm10.62 4.95l-5.67 0 0 -9.9 5.67 0 4.95 4.95 -4.95 4.95zm0 -9.9c2.73,0 4.95,2.22 4.95,4.95 0,2.72 -2.22,4.95 -4.95,4.95l0 -9.9zm-4.95 15.59l0 -10.64 9.9 0 0 10.64 0 0 -9.9 0zm9.83 1.45l-9.07 3.98 -0.11 -0.28 -0.08 -0.2 -0.06 -0.21 -0.03 -0.07 -0.14 -0.59 0.08 0.33 -0.03 -0.06 -0.11 -0.56 -0.03 -0.14 0.06 0.27 -0.02 -0.08 -0.09 -0.51 -0.03 -0.14 -0.01 -0.1 -0.01 -0.09 -0.04 -0.44 0 -0.13 0.01 0.18 -0.01 -0.11 -0.04 -0.43 0 -0.13 -0.02 -0.13 0 -0.11 -0.02 -0.15 0 -0.14 -0.01 -0.14 0 -0.36 0 0.07 -0.02 -0.15 0 -0.37 0 -0.15 0 -0.16 0 -0.15 9.9 0 0 0.15 0 0.16 0 0.15 0 -0.07 0.02 0.15 0 0.37 0 -0.11 0.01 0.14 0 0.12 0 0.12 0 0.11 0.01 0.13 0 0.11 -0.01 -0.2 0.01 0.11 0.04 0.41 0 0.08 -0.01 -0.23 0.01 0.09 0.01 0.1 0 0.04 -0.06 -0.32 0.02 0.07 0.1 0.46 0 0.01 -0.1 -0.4 0.03 0.06 0.1 0.5 -0.11 -0.47 0.02 0.07 -0.04 -0.08 -0.02 -0.11 -0.1 -0.27zm0.1 0.27c0.93,2.56 -0.36,5.42 -2.92,6.36 -2.56,0.93 -5.42,-0.37 -6.36,-2.93l9.28 -3.43zm-0.4 -0.81l-3.9 9.09 0 0 -0.14 -0.07 -0.11 -0.03 -0.32 -0.16 -0.22 -0.12 -0.09 -0.05 -0.11 -0.05 -0.22 -0.12 -0.09 -0.05 -0.23 -0.14 -0.3 -0.2 -0.09 -0.06 -0.24 -0.16 -0.27 -0.22 0.12 0.09 -0.08 -0.05 -0.43 -0.36 -0.23 -0.24 -0.07 -0.06 -0.06 -0.07 -0.07 -0.06 -0.25 -0.25 -0.2 -0.25 -0.07 -0.07 -0.22 -0.29 -0.05 -0.08 -0.22 -0.31 -0.15 -0.25 -0.05 -0.08 -0.19 -0.36 -0.04 -0.08 -0.04 -0.07 -0.14 -0.3 9.07 -3.98 -0.07 -0.14 0.04 0.08 0.04 0.07 -0.12 -0.2 0.05 0.07 -0.06 -0.09 -0.12 -0.18 0.05 0.08 -0.11 -0.16 0.06 0.08 -0.1 -0.12 -0.12 -0.11 0.07 0.06 0.06 0.07 0.07 0.06 -0.11 -0.1 -0.27 -0.24 0.08 0.06 0.27 0.22 -0.12 -0.09 -0.08 -0.06 0.1 0.07 -0.15 -0.09 -0.05 -0.04 0.09 0.05 -0.04 -0.01 0.11 0.05 0.09 0.05 -0.02 -0.01 -0.11 -0.05 0.1 0.04 0.07 0.04 0 0zm0 0c2.5,1.06 3.66,3.98 2.59,6.49 -1.06,2.51 -3.98,3.67 -6.49,2.6l3.9 -9.09zm2.35 0.32l0 9.9 0 0 -0.16 0 -0.15 0 -0.37 0 -0.15 -0.01 -0.16 0 -0.38 -0.03 0.07 0 -0.14 0 -0.37 -0.02 -0.15 -0.03 -0.37 -0.03 -0.14 -0.02 -0.18 -0.03 -0.13 -0.02 -0.15 -0.02 -0.35 -0.06 0.08 0.01 -0.17 -0.01 -0.58 -0.12 -0.13 -0.04 0.05 0.01 -0.36 -0.09 -0.13 -0.04 -0.19 -0.03 -0.28 -0.1 -0.13 -0.03 -0.18 -0.07 -0.21 -0.06 -0.1 -0.04 -0.03 -0.02 -0.44 -0.15 -0.17 -0.08 3.9 -9.09 0.04 0.02 -0.21 -0.08 0.21 0.07 0.1 0.04 0.03 0.01 0.05 0.01 0.13 0.04 -0.05 -0.01 0.05 0.01 0.13 0.04 -0.13 -0.04 0.31 0.07 0.13 0.04 -0.33 -0.07 0.09 0.01 0.37 0.07 -0.09 -0.01 0.14 0.01 0.13 0.03 0.1 0 0.15 0.02 -0.08 0 0.13 0 -0.05 0 0.14 0 0.35 0.03 -0.06 0 0.15 0 0.16 0.01 -0.05 0 0.15 0 0.16 0 0 0zm3.21 -0.48l3.17 9.38 -0.03 0.01 -0.19 0.07 -0.35 0.1 -0.15 0.04 -0.08 0.01 -0.19 0.07 -0.21 0.05 -0.09 0.03 -0.14 0.04 -0.35 0.09 -0.35 0.06 0.02 -0.01 -0.15 0.04 -0.35 0.06 -0.16 0.03 -0.14 0.02 -0.37 0.07 -0.14 0.01 0.05 -0.01 -0.35 0.06 -0.38 0.04 -0.15 0.02 -0.14 0.01 -0.15 0.01 -0.17 0.02 -0.15 0.01 -0.16 0.01 -0.36 0.03 -0.37 0 0.04 0 -0.17 0.01 -0.35 0 -0.15 0 0 -9.9 0.15 0 -0.04 0 0.17 -0.01 0.35 0 -0.05 0 -0.05 0 0.16 -0.02 0.15 -0.01 0.15 -0.01 0.14 -0.01 0.17 -0.02 0.15 -0.01 -0.06 0.01 -0.07 0.02 0.37 -0.07 0.14 -0.01 -0.05 0.01 0.14 -0.03 0.16 -0.02 -0.07 0.01 0.16 -0.04 0.31 -0.06 -0.07 0.01 -0.06 0.01 0.14 -0.04 0.2 -0.05 0.1 -0.02 0.07 -0.02 0.2 -0.06 0.15 -0.04 -0.07 0.03 0.09 -0.04 -0.02 0.01zm0.72 -0.23l8.06 5.76 0 -0.01 -0.13 0.18 -0.05 0.08 -0.22 0.27 -0.22 0.25 -0.08 0.08 -0.22 0.23 -0.24 0.22 -0.07 0.08 -0.08 0.07 -0.22 0.2 -0.42 0.32 0.23 -0.19 -0.22 0.2 -0.41 0.28 -0.09 0.07 -0.3 0.19 -0.09 0.06 -0.03 0.01 -0.22 0.13 -0.31 0.18 -0.11 0.05 -0.22 0.12 -0.31 0.14 0.08 -0.04 -0.21 0.11 -0.41 0.18 -0.04 0.01 -0.21 0.09 -0.21 0.08 -0.26 0.11 -0.21 0.05 -0.11 0.05 -3.17 -9.38 0.17 -0.05 0.05 -0.03 0 0 0.08 -0.02 0.02 -0.02 0.22 -0.09 -0.15 0.08 0.02 -0.03 0.31 -0.14 -0.07 0.04 0.01 -0.01 0.1 -0.06 -0.07 0.06 -0.02 0 0.18 -0.12 0.1 -0.05 -0.1 0.06 0.1 -0.06 -0.21 0.15 -0.07 0.04 0.42 -0.31 -0.24 0.18 -0.06 0.05 0.08 -0.06 0.08 -0.08 -0.08 0.09 -0.09 0.08 0.07 -0.08 -0.09 0.09 -0.09 0.12 0.05 -0.08 0 0.03 0 -0.01zm0 0.01c1.59,-2.22 4.68,-2.74 6.9,-1.16 2.22,1.59 2.74,4.68 1.16,6.9l-8.06 -5.74zm0.02 -0.89l9.9 0 0 0 0 0.16 0 0.36 -0.02 0.16 0 0.14 -0.03 0.37 0.01 -0.07 -0.03 0.37 -0.05 0.37 0.01 -0.08 -0.04 0.38 -0.02 0.13 -0.01 0.13 -0.08 0.4 -0.03 0.12 -0.02 0.13 -0.04 0.18 -0.11 0.44 -0.04 0.11 -0.02 0.12 -0.13 0.35 -0.04 0.11 -0.07 0.2 -0.19 0.45 -0.05 0.09 -0.04 0.11 -0.11 0.21 0.02 -0.03 -0.24 0.47 -0.14 0.22 -0.1 0.17 -0.16 0.23 -0.09 0.14 -8.06 -5.76 0.02 -0.02 -0.03 0.05 0 -0.01 -0.04 0.07 -0.13 0.26 0.09 -0.21 0 0.02 0.04 -0.1 0.05 -0.09 -0.11 0.25 0.01 -0.02 0.04 -0.11 -0.05 0.14 0.02 -0.12 0.04 -0.1 -0.05 0.21 0.01 -0.06 0.03 -0.13 0.03 -0.11 -0.03 0.14 0.01 -0.13 0.03 -0.13 -0.01 0.12 0.03 -0.34 0 0.09 -0.02 0.1 0.04 -0.35 -0.02 0.08 0 -0.14 0.02 -0.16 0 0.08 0 -0.16 0 0zm9.9 -10.28l0 10.28 -9.9 0 0 -10.28 4.95 -4.95 4.95 4.95zm-9.9 0c0,-2.73 2.22,-4.95 4.95,-4.95 2.73,0 4.95,2.22 4.95,4.95l-9.9 0zm10.64 4.95l-5.69 0 0 -9.9 5.69 0 4.95 4.95 -4.95 4.95zm0 -9.9c2.73,0 4.95,2.22 4.95,4.95 0,2.72 -2.22,4.95 -4.95,4.95l0 -9.9zm-4.95 24.15l0 -19.2 9.9 0 0 19.2 -4.95 4.95 -4.95 -4.95zm9.9 0c0,2.73 -2.22,4.95 -4.95,4.95 -2.73,0 -4.95,-2.22 -4.95,-4.95l9.9 0zm-10.03 -4.95l5.08 0 0 9.9 -5.08 0 -4.95 -4.95 4.95 -4.95zm0 9.9c-2.73,0 -4.95,-2.22 -4.95,-4.95 0,-2.73 2.22,-4.95 4.95,-4.95l0 9.9zm23.83 -24.15l0 19.2 -9.9 0 0 -19.2 4.95 -4.95 4.95 4.95zm-9.9 0c0,-2.73 2.22,-4.95 4.95,-4.95 2.72,0 4.95,2.22 4.95,4.95l-9.9 0zm10.05 4.95l-5.1 0 0 -9.9 5.1 0 4.95 4.95 -4.95 4.95zm0 -9.9c2.73,0 4.95,2.22 4.95,4.95 0,2.72 -2.22,4.95 -4.95,4.95l0 -9.9zm-4.95 7.86l0 -2.91 9.9 0 0 2.91 -1.38 3.43 -8.52 -3.43zm9.9 0c0,2.72 -2.22,4.95 -4.95,4.95 -2.73,0 -4.95,-2.23 -4.95,-4.95l9.9 0zm-3.16 -7.29l3.67 9.2 -0.04 0.01 0.09 -0.04 -0.1 0.05 -0.11 0.04 0.12 -0.05 -0.21 0.1 0.09 -0.05 0.21 -0.12 -0.42 0.25 -0.11 0.05 0.39 -0.23 -0.22 0.15 -0.22 0.13 0.15 -0.1 -0.1 0.08 -0.08 0.05 -0.01 0.01 -0.11 0.08 -0.08 0.07 -0.11 0.09 -0.12 0.09 0.01 -0.02 0 0 -0.11 0.11 -0.12 0.1 0 0 -0.12 0.12 -0.22 0.19 -0.02 0.03 0.07 -0.08 -0.22 0.22 -0.13 0.12 -0.04 0.07 -7.14 -6.86 0.19 -0.2 0.13 -0.12 0.02 -0.04 0.31 -0.31 0.23 -0.21 0.02 -0.01 0.11 -0.12 0.24 -0.2 0.11 -0.11 0.12 -0.1 0.23 -0.21 0.25 -0.19 0.12 -0.09 0.11 -0.1 0.16 -0.11 0.1 -0.08 0.23 -0.17 0.15 -0.1 0.11 -0.08 0.38 -0.26 0.02 0 -0.02 0 0.6 -0.36 0.12 -0.06 -0.21 0.12 0.42 -0.25 0.32 -0.15 0 0 0.33 -0.16 0.1 -0.04 0.1 -0.05 0.3 -0.12 -0.04 0.02zm0.04 -0.02c2.55,-0.98 5.42,0.28 6.41,2.82 0.99,2.55 -0.27,5.42 -2.82,6.41l-3.59 -9.23zm5.45 -1l0 9.9 0 0 -0.13 0 -0.12 0 0.14 -0.01 -0.13 0.01 -0.11 0 -0.13 0.02 -0.11 0 0.16 0 -0.12 0.01 -0.12 0.01 -0.11 0.02 -0.12 0.01 0.16 -0.03 -0.12 0.03 -0.12 0.01 -0.11 0.03 -0.08 0 0.17 -0.03 -0.17 0.04 -0.07 0.01 -0.1 0.03 -0.12 0.03 0.17 -0.04 -0.12 0.04 -0.02 0 -0.18 0.06 -0.12 0.03 0.23 -0.08 -0.1 0.04 -0.1 0.04 -0.11 0.04 -0.01 0 -3.67 -9.2 0.2 -0.08 0.1 -0.04 0.11 -0.04 0.1 -0.04 0.44 -0.15 0.12 -0.03 0.03 -0.01 0.18 -0.06 0.11 -0.03 0.38 -0.09 0.12 -0.03 0.1 -0.03 0.17 -0.04 0.07 -0.01 0.37 -0.08 0.16 -0.02 0.12 -0.03 0.11 -0.01 0.12 -0.03 0.39 -0.05 0.12 -0.01 0.11 -0.02 0.12 -0.01 0.12 -0.01 0.39 -0.03 0.13 0 0.13 -0.01 0.11 0 0.13 -0.01 0.38 -0.02 0.12 0 0.13 0 0 0zm9.99 8.71l-8.29 -5.41 2.49 7.37 -0.14 -0.05 -0.05 -0.02 -0.23 -0.06 -0.19 -0.06 -0.13 -0.04 -0.19 -0.07 0.09 0.03 -0.18 -0.04 -0.3 -0.09 -0.04 -0.02 -0.07 0 -0.18 -0.03 -0.18 -0.04 -0.18 -0.04 -0.18 -0.04 -0.02 -0.01 -0.01 0 -0.35 -0.06 -0.18 -0.04 0.15 0.03 -0.18 -0.01 -0.35 -0.05 -0.01 0 0 0 -0.18 -0.02 -0.19 -0.01 -0.18 -0.01 -0.01 0 -0.18 0 -0.17 -0.02 0 0 -0.18 0 0 -9.9 0.18 0 0.36 0 0.17 0.02 0.18 0 0.35 0.02 0.19 0.02 0.18 0.01 0.18 0.01 0.36 0.03 0.35 0.05 0.02 0 0.18 0.01 0.52 0.08 0.18 0.04 0.01 0 0.36 0.05 0.35 0.07 0.18 0.04 0.18 0.03 0.18 0.04 0.18 0.04 0.3 0.08 0.35 0.09 0.07 0.01 0.18 0.04 0.45 0.13 0.2 0.07 0.23 0.06 0.19 0.07 0.13 0.04 0.33 0.11 0.22 0.08 2.5 7.37zm-2.5 -7.37c2.58,0.91 3.93,3.74 3.02,6.32 -0.91,2.57 -3.74,3.92 -6.32,3.01l3.3 -9.33zm-7.77 4.99l1.98 -3.03 8.29 5.41 -1.98 3.03 -5.78 1.97 -2.51 -7.38zm8.29 5.41c-1.48,2.28 -4.56,2.92 -6.84,1.44 -2.29,-1.48 -2.93,-4.56 -1.45,-6.85l8.29 5.41zm-8.3 1.53l0 -9.9 0 0 0.13 0 0.13 0 0.38 0 0.13 0.01 0.13 0 0.37 0.04 -0.11 -0.01 0.13 0 0.37 0.04 0.13 0.01 0.38 0.04 0.13 0.02 -0.12 -0.01 0.38 0.04 0.36 0.07 -0.1 -0.02 0.13 0.02 0.36 0.06 0.13 0.03 0.36 0.07 0.13 0.04 -0.1 -0.02 0.36 0.07 0.12 0.04 0.13 0.03 0.36 0.1 0.13 0.04 0.13 0.04 0.13 0.04 0.35 0.1 0.13 0.06 0.13 0.04 -3.28 9.35 -0.13 -0.04 -0.13 -0.05 0.09 0.03 -0.13 -0.04 -0.13 -0.04 -0.13 -0.04 0.09 0.02 -0.13 -0.02 -0.13 -0.04 0.1 0.03 -0.36 -0.08 -0.13 -0.04 0.1 0.02 -0.13 -0.02 0.1 0.01 -0.13 -0.01 -0.36 -0.07 0.1 0.02 0.12 0.01 -0.38 -0.04 -0.13 -0.03 0.12 0.02 -0.13 -0.02 0.11 0.02 -0.13 0 -0.37 -0.04 0.11 0.01 -0.13 0 -0.13 -0.01 0.12 0 -0.13 0 -0.13 0 0 0zm-1.38 0.23l-3.95 -9.07 0 0 0.12 -0.05 0.21 -0.09 0.1 -0.04 0.26 -0.1 0.2 -0.05 0.1 -0.04 0.09 -0.03 0.11 -0.04 0.37 -0.12 0.19 -0.05 0.1 -0.02 0.1 -0.03 0.03 0 0.09 -0.02 0.47 -0.11 0.15 -0.02 0.12 -0.03 0.05 0 0.11 -0.03 0.43 -0.06 0.11 -0.01 0.08 -0.02 0.13 -0.01 0.12 -0.01 0.4 -0.04 0.13 0 0.1 -0.02 0.11 0 0.13 -0.01 0.39 -0.01 0.11 0 0.12 0 0 9.9 -0.12 0 -0.11 0 0.15 -0.01 -0.1 0.01 -0.1 0 -0.13 0.01 -0.11 0 0.2 -0.01 -0.12 0.01 -0.08 0.01 -0.13 0.02 -0.11 0.01 0.22 -0.04 -0.11 0.03 -0.15 0.02 -0.12 0.03 -0.05 0 0.26 -0.05 -0.09 0.02 -0.19 0.06 -0.1 0.02 -0.1 0.03 -0.03 0 0.2 -0.07 -0.11 0.04 -0.09 0.03 -0.1 0.04 0.01 0 0.08 -0.03 -0.11 0.04 0.03 -0.01 -0.07 0.02 0 0zm0 0c-2.49,1.08 -5.43,-0.06 -6.5,-2.56 -1.08,-2.49 0.06,-5.43 2.55,-6.51l3.95 9.07zm0.25 -0.36l-8.68 -4.78 0.02 -0.03 0.02 -0.01 0.21 -0.38 0.17 -0.23 -0.08 0.1 0.22 -0.32 0.18 -0.25 0.05 -0.06 0.06 -0.07 0.22 -0.26 0.26 -0.26 -0.12 0.12 0.23 -0.25 0.07 -0.05 0.05 -0.07 0.47 -0.43 0.25 -0.18 -0.15 0.12 -0.11 0.09 0.46 -0.38 0.08 -0.05 0.31 -0.22 0.25 -0.14 -0.17 0.1 0.08 -0.05 0.47 -0.29 0.09 -0.03 0.08 -0.06 0.36 -0.18 -0.19 0.11 0.23 -0.13 0.35 -0.16 0.06 -0.03 3.95 9.07 -0.11 0.05 0.17 -0.07 0.05 -0.03 -0.35 0.18 0.18 -0.1 -0.08 0.05 -0.09 0.04 0.31 -0.18 -0.08 0.05 -0.32 0.21 0.09 -0.07 0.18 -0.11 -0.08 0.05 0.34 -0.28 -0.24 0.23 -0.3 0.22 0.11 -0.08 0.34 -0.33 -0.05 0.07 -0.07 0.05 0.13 -0.12 -0.24 0.25 0.15 -0.16 0.12 -0.13 -0.05 0.07 -0.05 0.06 0.07 -0.11 0.12 -0.17 -0.15 0.23 0.06 -0.1 0.13 -0.22 -0.05 0.11 0.01 -0.02zm-0.01 0.02c-1.33,2.38 -4.37,3.24 -6.74,1.91 -2.38,-1.32 -3.24,-4.36 -1.91,-6.74l8.65 4.83zm-0.33 1.38l-9.9 0 0 0 0 -0.13 0 -0.38 0.03 -0.14 0 -0.11 0.03 -0.37 0 0.11 0.01 -0.38 0.06 -0.38 -0.02 0.13 0.05 -0.38 0.03 -0.11 0.01 -0.13 0.08 -0.43 0.02 -0.12 0.03 -0.11 0.02 -0.12 0.08 -0.3 0.11 -0.36 0 -0.03 0.02 -0.1 0.11 -0.28 0.11 -0.35 0.05 -0.11 -0.01 0.02 0.13 -0.34 0.11 -0.24 0.09 -0.21 0.05 -0.11 0.05 -0.11 0.05 -0.11 0.16 -0.32 0.1 -0.18 8.68 4.78 -0.02 0.02 0.05 -0.09 -0.05 0.11 -0.06 0.11 -0.05 0.11 -0.01 0.02 0 -0.01 0.05 -0.13 -0.09 0.26 -0.05 0.12 0.04 -0.12 0.02 -0.04 -0.02 0.11 -0.08 0.2 0.02 -0.1 0.03 -0.06 -0.03 0.11 -0.02 0.12 -0.03 0.12 0.03 -0.2 -0.01 0.13 -0.03 0.12 0.03 -0.12 -0.06 0.36 0.02 -0.11 0.01 -0.15 -0.03 0.37 0 -0.11 0 0.12 0 0.12 0 -0.12 0 0.13 0 0zm-9.9 10.06l0 -10.06 9.9 0 0 10.06 -4.95 4.95 -4.95 -4.95zm9.9 0c0,2.73 -2.22,4.95 -4.95,4.95 -2.72,0 -4.95,-2.22 -4.95,-4.95l9.9 0zm-10.62 -4.95l5.67 0 0 9.9 -5.67 0 -4.95 -4.95 4.95 -4.95zm0 9.9c-2.73,0 -4.95,-2.22 -4.95,-4.95 0,-2.73 2.22,-4.95 4.95,-4.95l0 9.9zm43.39 -0.3l-2.05 -9.69 -0.04 0.01 0.21 -0.05 0.02 0 0.18 -0.05 0.19 -0.04 0.06 -0.02 0.2 -0.05 0.13 -0.04 0.18 -0.05 0.08 -0.03 0.19 -0.06 0.18 -0.05 0.05 -0.02 0.19 -0.06 0.19 -0.07 0.18 -0.06 0.2 -0.06 0.04 -0.02 0.24 -0.1 0.2 -0.07 0 0 0.18 -0.07 0.26 -0.11 0.19 -0.08 0.2 -0.07 0.06 -0.03 0.07 -0.03 0.32 -0.15 0.2 -0.08 0.12 -0.05 0.09 -0.04 0.14 -0.08 0.25 -0.12 4.31 8.92 -0.14 0.06 -0.25 0.13 -0.32 0.14 -0.28 0.13 -0.19 0.08 -0.07 0.03 -0.32 0.15 -0.33 0.13 -0.19 0.08 -0.2 0.08 -0.13 0.05 -0.18 0.08 -0.39 0.16 -0.19 0.06 -0.15 0.05 -0.32 0.12 -0.2 0.06 -0.18 0.07 -0.19 0.06 -0.18 0.07 -0.34 0.12 -0.18 0.05 -0.2 0.06 -0.28 0.08 -0.19 0.05 -0.23 0.07 -0.19 0.05 -0.3 0.09 -0.19 0.04 -0.18 0.05 -0.34 0.08 -0.15 0.03 -0.04 0.01zm0.04 -0.01c-2.66,0.58 -5.32,-1.11 -5.9,-3.77 -0.58,-2.67 1.1,-5.32 3.77,-5.9l2.13 9.67zm-7.34 0.74l0 -9.9 0 0 0.21 0 0.2 0 0.06 0 0.2 -0.02 0.2 0 0.21 -0.01 0.2 0 0.03 0 0.21 -0.01 0.19 -0.02 0.21 -0.01 0.2 -0.01 0.19 -0.01 0.05 0 0.18 -0.03 0.2 -0.01 0.19 -0.03 0.2 -0.01 0.04 -0.02 0.19 -0.02 0.2 -0.03 0.17 -0.01 0.18 -0.03 0.19 -0.02 0.02 0 0.19 -0.04 0.18 -0.03 0.2 -0.04 0.18 -0.02 0.04 -0.02 0.14 -0.03 0.2 -0.04 2.05 9.69 -0.17 0.04 -0.22 0.04 -0.35 0.06 -0.18 0.03 -0.2 0.04 -0.18 0.02 -0.19 0.04 -0.36 0.05 -0.19 0.03 -0.18 0.03 -0.22 0.03 -0.2 0.03 -0.19 0.03 -0.35 0.04 -0.2 0.01 -0.19 0.02 -0.2 0.02 -0.21 0.02 -0.36 0.03 -0.19 0.01 -0.2 0.02 -0.21 0.01 -0.19 0.01 -0.21 0.01 -0.36 0.03 -0.21 0 -0.21 0.01 -0.19 0 -0.21 0.02 -0.37 0 -0.2 0 -0.21 0 0 0zm-10.79 -2.11l4.58 -8.78 0.01 0.01 0.16 0.08 0.01 0.01 0.01 0 0.29 0.12 0.08 0.04 0.04 0.01 0.05 0.01 0.18 0.07 0.19 0.06 0.12 0.03 0.2 0.05 0.1 0.03 0.25 0.05 0.22 0.07 0.11 0.01 0.12 0.02 0.14 0.03 0.37 0.05 0.18 0.04 0.14 0 0.39 0.05 0.18 0.03 0.19 0.01 0.18 0.03 0.31 0.01 0.3 0.03 0.22 0 0.32 0.01 0.33 0.01 0.23 0.02 0.25 0 0.34 0 0 9.9 -0.34 0 -0.43 0 -0.44 -0.02 -0.32 -0.01 -0.33 -0.01 -0.43 -0.03 -0.32 -0.02 -0.32 -0.02 -0.41 -0.02 -0.42 -0.04 -0.39 -0.05 -0.2 -0.03 -0.41 -0.05 -0.39 -0.07 -0.18 -0.02 -0.4 -0.06 -0.4 -0.07 -0.41 -0.09 -0.27 -0.07 -0.25 -0.05 -0.39 -0.11 -0.27 -0.07 -0.35 -0.11 -0.27 -0.09 -0.26 -0.06 -0.39 -0.15 -0.38 -0.14 -0.34 -0.14 -0.13 -0.07 -0.37 -0.15 -0.38 -0.2 -0.21 -0.1 0.01 0.01zm-0.01 -0.01c-2.41,-1.26 -3.34,-4.26 -2.08,-6.68 1.26,-2.42 4.26,-3.34 6.68,-2.08l-4.6 8.76zm-5.62 -8.33l9.9 0 0 0 0 -0.08 0 -0.05 -0.02 -0.09 -0.01 -0.08 0.03 0.14 -0.02 -0.06 -0.04 -0.13 -0.02 -0.07 -0.01 -0.06 -0.07 -0.13 -0.01 -0.05 -0.03 -0.05 -0.01 -0.03 -0.03 -0.03 0.09 0.13 -0.07 -0.1 -0.19 -0.23 0.11 0.11 0.09 0.11 -0.08 -0.07 -0.08 -0.09 0.15 0.13 0.02 0.03 0.04 0.02 0.05 0.06 -0.05 -0.06 -0.01 0 0.17 0.11 0.15 0.1 0.03 0.01 0 0 0.13 0.07 -4.58 8.78 -0.23 -0.12 -0.36 -0.2 -0.31 -0.2 -0.16 -0.1 -0.17 -0.11 -0.32 -0.2 -0.34 -0.26 -0.24 -0.19 -0.22 -0.18 -0.23 -0.21 -0.12 -0.1 -0.31 -0.3 -0.31 -0.32 -0.12 -0.13 -0.1 -0.12 -0.39 -0.47 -0.24 -0.36 -0.09 -0.13 -0.18 -0.29 -0.17 -0.28 -0.15 -0.31 -0.15 -0.32 -0.17 -0.39 -0.11 -0.35 -0.11 -0.32 -0.11 -0.42 -0.07 -0.35 -0.02 -0.14 -0.07 -0.37 -0.04 -0.37 -0.02 -0.37 0 -0.36 0 0zm2.49 -5.98l7.17 6.81 -0.02 0.04 -0.13 0.13 -0.08 0.07 0.4 -0.45 -0.05 0.08 -0.36 0.43 0.1 -0.13 0.23 -0.31 -0.05 0.08 -0.05 0.08 -0.05 0.07 0.1 -0.17 0.12 -0.2 -0.04 0.07 -0.04 0.08 0.03 -0.05 -0.04 0.09 0.04 -0.09 -0.03 0.08 0.01 -0.05 0.08 -0.24 -0.06 0.18 0.1 -0.36 -0.01 0.09 -0.03 0.08 0.07 -0.27 -0.02 0.07 -0.01 0.1 0.03 -0.3 0 0.06 -0.02 0.12 0.02 -0.3 0 0.09 -9.9 0 0 -0.09 0.01 -0.46 0.01 -0.06 0 -0.12 0.05 -0.45 0.02 -0.09 0.01 -0.08 0.09 -0.46 0.03 -0.07 0.01 -0.09 0.16 -0.52 -0.02 0.02 0.13 -0.41 0.09 -0.21 0.03 -0.08 0.12 -0.25 0.04 -0.09 0.1 -0.21 0.04 -0.07 0.04 -0.08 0.19 -0.36 0.21 -0.33 0.05 -0.08 0.05 -0.08 0.06 -0.07 0.33 -0.47 0.24 -0.26 -0.24 0.27 0.06 -0.08 0.53 -0.59 0.08 -0.07 0 -0.02 -0.03 0.03zm0.03 -0.03c1.89,-1.97 5.04,-2.02 7,-0.12 1.96,1.9 2.01,5.04 0.12,7l-7.12 -6.88zm4.7 -3.04l3.59 9.22 0 0 -0.03 0 -0.1 0.05 -0.12 0.04 0.22 -0.09 -0.21 0.1 -0.34 0.15 0 0 0.24 -0.12 -0.09 0.05 -0.22 0.12 0.23 -0.13 -0.09 0.06 -0.33 0.17 0.26 -0.15 -0.22 0.15 -0.1 0.05 0.18 -0.11 -0.08 0.05 -0.04 0.03 -0.28 0.19 0.05 -0.04 0.27 -0.19 -0.23 0.18 -0.09 0.06 0.25 -0.2 -0.08 0.07 -0.25 0.22 0.08 -0.07 0.1 -0.11 -0.23 0.24 0.08 -0.09 0.02 -0.02 -7.17 -6.81 0.16 -0.16 0.23 -0.23 -0.08 0.08 0.24 -0.23 0.23 -0.21 -0.09 0.09 0.08 -0.08 0.4 -0.33 0.09 -0.07 -0.08 0.05 0.43 -0.32 0.24 -0.14 -0.11 0.06 0.14 -0.1 0.08 -0.06 0.37 -0.24 0.1 -0.05 -0.04 0.02 0.44 -0.26 -0.11 0.07 0.09 -0.07 0.44 -0.23 -0.01 0.01 0.09 -0.05 0.44 -0.22 0.21 -0.08 -0.11 0.04 0 0 0.43 -0.2 0.12 -0.04 0.1 -0.05 0.21 -0.07 0 0zm0 0c2.55,-0.99 5.42,0.27 6.4,2.81 0.99,2.55 -0.27,5.42 -2.81,6.41l-3.59 -9.22zm5.13 -1.36l1.51 9.8 0 0 -0.24 0.04 -0.14 0.01 0.12 -0.02 -0.13 0.02 -0.18 0.04 -0.11 0.01 -0.13 0.03 0.08 -0.01 -0.08 0.02 -0.35 0.08 -0.18 0.03 0.08 -0.02 -0.08 0.03 -0.13 0.03 -0.13 0.03 -0.06 0 0.11 -0.02 -0.43 0.13 -0.06 0 0.12 -0.03 -0.13 0.04 -0.12 0.04 -0.13 0.04 -0.05 0.01 -0.12 0.04 -0.18 0.07 -0.13 0.04 -0.05 0.01 -0.03 0.01 0.13 -0.05 -0.21 0.09 -0.11 0.04 -3.59 -9.22 0.12 -0.04 0.02 -0.02 0.34 -0.13 0.21 -0.06 0.18 -0.07 0.13 -0.04 0.05 -0.01 0.12 -0.04 0.18 -0.06 0.13 -0.04 0.12 -0.04 0.13 -0.04 0.35 -0.1 0.19 -0.06 -0.17 0.06 0.36 -0.11 0.19 -0.05 0.13 -0.04 0.13 -0.02 0.18 -0.06 0.37 -0.06 0.07 -0.03 -0.09 0.03 0.18 -0.05 0.37 -0.07 0.13 -0.02 0.18 -0.04 0.1 -0.02 0.13 -0.02 0.41 -0.08 0.14 -0.01 0.05 -0.02 0 0zm0 0c2.7,-0.41 5.24,1.45 5.65,4.15 0.42,2.7 -1.44,5.23 -4.14,5.65l-1.51 -9.8zm5.46 -0.53l0.67 9.88 0 0 -0.23 0.01 -0.21 0.01 -0.04 0 -0.18 0.03 -0.36 0.02 -0.18 0.02 -0.19 0.01 -0.19 0.01 0.01 0 -0.17 0.03 -0.33 0.02 -0.17 0.02 -0.17 0.01 -0.17 0.01 0.04 -0.01 -0.13 0.03 -0.35 0.04 -0.15 0.01 -0.13 0 0.08 0 -0.14 0.02 -0.36 0.03 -0.12 0.01 -0.11 0.02 0.15 -0.03 -0.12 0.03 -0.38 0.05 -0.09 0.01 0.16 -0.02 -0.08 0.01 -0.35 0.05 0.04 0 -1.51 -9.8 0.25 -0.02 -0.14 0.02 0.15 -0.04 0.39 -0.05 0.14 -0.01 -0.11 0.03 0.11 -0.03 0.41 -0.05 0.15 -0.02 0.17 -0.01 -0.08 0 0.15 -0.02 0.36 -0.03 0.16 -0.03 0.17 -0.01 -0.04 0.01 0.18 -0.02 0.37 -0.04 0.17 -0.01 0.17 -0.02 0.17 -0.01 0 0 0.2 -0.03 0.37 -0.02 0.2 -0.01 0.18 -0.02 0.21 -0.01 0.02 0 0.21 -0.03 0.38 -0.02 0.21 -0.02 0.18 -0.01 0 0zm0 0c2.71,-0.18 5.09,1.89 5.27,4.6 0.19,2.72 -1.88,5.09 -4.6,5.28l-0.67 -9.88zm5.55 3.54l9.87 0.57 -3.98 4.57 -0.26 0.04 -0.23 0.05 -0.27 0.05 -0.25 0.04 -0.26 0.04 -0.27 0.04 -0.26 0.05 -0.27 0.04 -0.29 0.04 -0.29 0.04 -0.4 0.05 -0.31 0.04 -0.21 0.03 -0.3 0.03 -0.41 0.06 -0.33 0.02 -0.24 0.03 -0.43 0.05 -0.35 0.03 -0.25 0.04 -0.47 0.03 -0.36 0.03 -0.37 0.04 -0.37 0.04 -0.39 0.04 -0.48 0.02 -0.32 0.03 -0.4 0.04 -0.49 0.02 -0.34 0.03 -0.43 0.04 -0.47 0.03 -0.67 -9.88 0.39 -0.02 0.4 -0.04 0.49 -0.03 0.32 -0.03 0.4 -0.03 0.47 -0.03 0.3 -0.03 0.36 -0.04 0.35 -0.01 0.36 -0.04 0.37 -0.02 0.23 -0.04 0.43 -0.04 0.33 -0.03 0.22 -0.02 0.4 -0.06 0.3 -0.02 0.18 -0.03 0.3 -0.04 0.39 -0.05 0.26 -0.01 0.14 -0.03 0.26 -0.04 0.23 -0.04 0.25 -0.03 0.24 -0.03 0.22 -0.04 0.2 -0.04 0.22 -0.04 0.17 -0.02 0.19 -0.03 0.15 -0.04 -3.97 4.58zm3.97 -4.58c2.68,-0.52 5.3,1.22 5.82,3.9 0.52,2.68 -1.22,5.3 -3.9,5.82l-1.92 -9.72zm-3.95 4.02l9.9 0 0 0 0 0.01 0 0.01 0 0.02 0 0.01 0 0.01 0 0.01 0 0.03 0 0.01 0 0.02 0 0.02 0 0.03 0 0.01 -0.14 1.22 -0.01 0.03 0.14 -1.17 0 0.03 0 0.02 0 0.03 0 0.02 0 0.03 0 0.04 -0.09 1 -0.01 0.04 0.09 -0.95 0 0.04 0 0.04 0 0.04 0 0.03 -0.07 0.86 -0.01 0.04 0.06 -0.78 -0.01 0.33 -9.87 -0.57 -0.02 0.24 0.07 -0.86 0.01 -0.03 -0.06 0.77 0 -0.03 0 -0.04 0 -0.04 0 -0.04 0.09 -1 0.01 -0.04 -0.09 0.95 0 -0.04 0 -0.03 0 -0.02 0 -0.03 0 -0.02 0 -0.03 0.14 -1.22 0.01 -0.03 -0.14 1.17 0 -0.01 0 -0.03 0 -0.02 0 -0.02 0 -0.01 0 -0.03 0 -0.01 0 -0.01 0 -0.01 0 -0.02 0 -0.01 0 -0.01 0 0zm1.07 1.59l4.52 -8.8 -0.07 -0.04 0.24 0.13 0.22 0.11 0.31 0.2 0.09 0.06 0.24 0.15 0.27 0.2 0.27 0.21 0.38 0.37 0.06 0.06 0.08 0.08 0.23 0.23 0.21 0.24 0.33 0.43 0.05 0.09 0.06 0.07 0.42 0.71 0.04 0.09 0.05 0.09 0.16 0.35 0.09 0.19 0.08 0.21 0.09 0.29 0.14 0.45 0.04 0.18 0.01 0.04 0.09 0.44 0.07 0.43 0.01 0.12 0.01 0.12 0.03 0.39 0.01 0.39 0 0.13 -9.9 0 0 -0.13 0.02 0.15 0 0.16 -0.02 -0.12 -0.01 -0.12 0.04 0.2 0.04 0.23 -0.04 -0.17 -0.01 -0.05 0.09 0.28 0.01 0.07 0 0 0.01 0.02 0.08 0.16 -0.05 -0.09 -0.04 -0.09 0.31 0.52 -0.06 -0.08 -0.06 -0.09 0.2 0.28 0.08 0.07 0.1 0.11 -0.08 -0.08 -0.06 -0.06 0.22 0.2 0.09 0.08 0.12 0.08 0.05 0.04 -0.09 -0.07 0.13 0.09 0.04 0.02 0.02 0.02 -0.06 -0.04zm0.06 0.04c-2.44,-1.2 -3.45,-4.19 -2.25,-6.64 1.21,-2.44 4.2,-3.45 6.64,-2.24l-4.39 8.88zm-4.27 -0.59l0 -9.9 0 0 0.26 0 0.4 0 0.25 0.01 0.26 0 0.37 0.02 0.25 0.02 0.26 0.01 0.38 0.01 0.23 0.03 0.25 0.01 0.37 0.05 0.23 0.03 0.23 0.03 0.38 0.05 0.2 0.04 0.24 0.02 0.37 0.07 0.2 0.04 0.19 0.04 0.23 0.05 0.37 0.08 0.39 0.11 0.22 0.07 0.17 0.05 0.17 0.05 0.22 0.07 0.39 0.13 0.39 0.17 0.14 0.06 0.24 0.09 0.21 0.11 0.27 0.13 -4.52 8.8 -0.02 0 -0.05 -0.02 -0.08 -0.04 -0.14 -0.07 0.08 0.04 0.08 0.03 -0.12 -0.04 -0.17 -0.05 -0.17 -0.05 -0.11 -0.04 0.02 0.01 0.01 0 -0.16 -0.03 -0.2 -0.03 -0.19 -0.04 -0.02 -0.02 -0.18 -0.02 -0.21 -0.04 -0.04 0 -0.2 -0.03 -0.22 -0.02 -0.07 0 -0.22 -0.02 -0.23 -0.02 -0.1 -0.02 -0.23 -0.01 -0.25 -0.01 -0.11 0 -0.26 0 -0.25 -0.01 -0.14 0 -0.26 0 0 0zm-4.02 0.41l-3.82 -9.12 -0.02 0 0.13 -0.05 0.41 -0.17 0.21 -0.05 0.14 -0.05 0.33 -0.11 0.21 -0.06 0.19 -0.05 0.21 -0.06 0.16 -0.04 0.19 -0.03 0.35 -0.1 0.38 -0.06 0.04 0 0.17 -0.04 0.37 -0.05 0.18 -0.03 0.38 -0.05 0.21 -0.01 0.19 -0.03 0.21 -0.01 0.22 -0.03 0.37 -0.02 0.22 -0.02 0.23 -0.01 0.22 -0.01 0.22 -0.02 0.37 -0.02 0.37 0 0.12 0 0.23 -0.01 0.38 0 0.25 0 0 9.9 -0.25 0 -0.12 0 -0.23 0.01 -0.38 0 -0.09 0 -0.08 0 -0.22 0.01 -0.22 0.01 -0.21 0.02 -0.19 0.01 -0.05 0 -0.2 0.03 -0.18 0.01 -0.19 0.03 -0.19 0.01 0.02 0 -0.18 0.02 0.01 0 -0.17 0.04 -0.33 0.06 0.07 -0.02 0.01 -0.01 -0.11 0.04 -0.16 0.04 -0.1 0.02 -0.09 0.03 -0.08 0.01 0.06 -0.02 -0.14 0.05 -0.05 0.02 0.15 -0.06 -0.1 0.05 -0.03 0zm0.03 0c-2.51,1.07 -5.43,-0.12 -6.5,-2.62 -1.06,-2.51 0.12,-5.43 2.63,-6.5l3.87 9.12zm-5.16 3.22l0.78 -9.87 -4.9 2.88 0.11 -0.19 0.05 -0.12 0.15 -0.31 0.12 -0.22 0.17 -0.3 0.14 -0.22 0.07 -0.1 0.08 -0.12 0.14 -0.22 0.19 -0.27 0.08 -0.11 0.3 -0.38 0.21 -0.2 -0.04 0.02 0.21 -0.22 0.21 -0.21 0.09 -0.09 0.22 -0.22 0.36 -0.32 0.11 -0.08 0.09 -0.08 0.1 -0.08 0.26 -0.19 0.4 -0.27 0.04 -0.03 0.3 -0.18 0.18 -0.11 0.03 -0.01 0.41 -0.23 0.32 -0.15 0.11 -0.05 0.22 -0.09 3.82 9.12 -0.01 0.01 -0.12 0.06 0.08 -0.04 0.18 -0.11 -0.18 0.12 -0.02 0 0.06 -0.03 -0.17 0.11 0.2 -0.14 0.07 -0.04 -0.1 0.07 -0.09 0.08 -0.1 0.08 0.18 -0.17 0.04 -0.04 -0.09 0.09 0.05 -0.05 0.02 -0.01 -0.19 0.21 0.02 -0.03 0.15 -0.17 -0.08 0.11 0.04 -0.07 0.01 -0.01 -0.08 0.11 -0.06 0.11 -0.01 0.01 0.03 -0.06 -0.01 0.01 0.03 -0.05 -0.05 0.11 -0.03 0.07 -4.9 2.88zm4.9 -2.88c-1.13,2.48 -4.08,3.59 -6.56,2.45 -2.48,-1.13 -3.59,-4.07 -2.46,-6.56l9.02 4.11zm-9.67 -7.43l5.55 0.44 -0.78 9.87 -5.55 -0.44 -4.24 -6.68 5.02 -3.19zm-0.78 9.87c-2.71,-0.21 -4.75,-2.61 -4.54,-5.32 0.2,-2.72 2.61,-4.76 5.32,-4.55l-0.78 9.87zm-0.05 -12.2l5.87 7.95 -0.05 0.04 -0.01 0.03 0.04 -0.04 -0.11 0.09 -0.1 0.08 0.03 -0.01 -0.09 0.07 0.02 -0.02 0.03 -0.04 -0.09 0.09 -0.09 0.09 0.03 -0.03 0.03 -0.02 0.05 -0.07 -0.1 0.13 -0.09 0.11 -0.05 0.08 0.13 -0.2 0.01 0 -0.27 0.39 0.11 -0.18 0.04 -0.07 -0.06 0.11 0 0.01 -0.13 0.22 0.1 -0.19 -0.01 0.03 -0.11 0.21 0.04 -0.08 -0.01 0.03 -0.05 0.13 -0.05 0.12 0.02 -0.05 -9.27 -3.49 0.13 -0.31 0.05 -0.11 0.05 -0.13 0.09 -0.21 0.14 -0.31 0.03 -0.03 0.09 -0.22 0.23 -0.4 0 -0.02 0.13 -0.22 0.07 -0.1 0.17 -0.3 0.27 -0.39 -0.12 0.18 0.15 -0.23 0.28 -0.38 0.11 -0.13 0.09 -0.1 0.05 -0.08 0.21 -0.25 0.2 -0.23 0.23 -0.21 0.09 -0.09 0.09 -0.09 0.21 -0.22 0.23 -0.21 0.09 -0.08 0.23 -0.19 0.11 -0.08 0.1 -0.09 0.25 -0.2 0.19 -0.13 -0.05 0.04zm0.05 -0.04c2.21,-1.58 5.32,-1.08 6.9,1.13 1.59,2.21 1.08,5.32 -1.13,6.9l-5.77 -8.03zm6.9 -2.76l2 9.69 -0.01 0 -0.1 0.02 -0.16 0.04 -0.35 0.08 -0.04 0 -0.01 0 -0.18 0.05 -0.35 0.09 -0.15 0.04 0.18 -0.06 -0.16 0.06 -0.34 0.11 -0.12 0.04 0.05 -0.03 -0.15 0.06 -0.17 0.06 0.08 -0.02 -0.33 0.13 -0.09 0.03 0.1 -0.04 -0.22 0.09 -0.08 0.04 0.12 -0.05 -0.14 0.08 -0.04 0.01 -0.13 0.08 -0.13 0.06 -0.04 0.03 -0.01 0 0.04 -0.03 -0.12 0.08 0 0 -0.03 0.01 -5.87 -7.95 0.18 -0.14 0.24 -0.16 0.11 -0.07 0.28 -0.19 0.22 -0.13 0.22 -0.13 0.13 -0.06 0.13 -0.08 0.22 -0.12 0.14 -0.07 0.38 -0.19 0.23 -0.09 0.07 -0.04 0.39 -0.16 0.22 -0.08 -0.01 0 0.39 -0.15 0.16 -0.05 0.16 -0.06 0.39 -0.13 0.22 -0.07 0.03 0 0.17 -0.06 0.54 -0.17 0.22 -0.04 0.04 -0.01 0.18 -0.06 0.38 -0.1 0.35 -0.08 0.04 0 0.23 -0.06 0.32 -0.05 -0.02 0zm8.62 -0.8l0 9.9 0 0 -0.28 0 -0.26 0 -0.15 0 -0.25 0.02 -0.26 0 -0.14 0.01 -0.38 0.01 -0.25 0 -0.13 0.02 -0.24 0 -0.12 0.01 -0.25 0.02 -0.37 0.02 -0.11 0.01 -0.23 0.03 -0.25 0.01 -0.09 0.01 -0.23 0.03 -0.24 0.02 -0.22 0.03 -0.22 0.03 -0.09 0 -0.21 0.04 -0.35 0.03 -0.09 0.02 -0.08 0.01 -0.19 0.04 -0.21 0.04 -0.22 0.04 -0.18 0.02 -0.21 0.04 -0.12 0.03 -2 -9.69 0.3 -0.06 0.21 -0.04 0.23 -0.05 0.22 -0.04 0.21 -0.04 0.25 -0.03 0.36 -0.07 0.35 -0.04 0.09 -0.01 0.24 -0.04 0.37 -0.05 0.23 -0.03 0.24 -0.02 0.24 -0.03 0.23 -0.03 0.38 -0.03 0.24 -0.02 0.24 -0.02 0.39 -0.02 0.11 -0.01 0.25 -0.03 0.38 -0.01 0.24 -0.02 0.39 -0.02 0.25 0 0.14 -0.01 0.38 -0.01 0.26 0 0.27 -0.02 0.39 0 0.26 0 0.28 0 0 0zm8.03 0.7l-2.11 9.67 0.03 0.01 -0.08 -0.02 -0.13 -0.01 -0.18 -0.04 -0.17 -0.03 -0.16 -0.04 0.02 0 -0.17 -0.01 -0.2 -0.03 -0.19 -0.02 -0.2 -0.03 -0.18 -0.03 -0.18 -0.02 -0.07 -0.01 -0.2 -0.02 -0.19 -0.02 -0.2 0 -0.23 -0.03 -0.07 -0.01 -0.22 -0.02 -0.23 -0.01 -0.23 -0.01 -0.23 -0.01 -0.24 -0.02 -0.23 -0.01 -0.12 0 -0.24 0 -0.25 -0.01 -0.26 0 -0.26 -0.02 -0.13 0 -0.26 0 -0.27 0 0 -9.9 0.27 0 0.26 0 0.39 0 0.26 0.02 0.26 0 0.25 0.01 0.24 0 0.38 0.03 0.26 0.01 0.23 0.01 0.24 0.01 0.23 0.02 0.25 0.01 0.22 0.01 0.36 0.02 0.22 0.02 0.24 0.03 0.23 0.02 0.21 0.02 0.35 0.04 0.23 0.02 0.21 0.03 0.2 0.02 0.19 0.03 0.2 0.03 0.22 0.04 0.37 0.05 0.21 0.04 0.17 0.02 0.18 0.04 0.21 0.04 0.26 0.05 0.03 0.01zm-0.03 -0.01c2.68,0.56 4.38,3.2 3.82,5.87 -0.56,2.68 -3.2,4.38 -5.87,3.82l2.05 -9.69zm5.76 2.24l-5.64 8.13 0.02 0.03 0.12 0.06 -0.09 -0.05 -0.3 -0.2 0.18 0.12 0.35 0.18 -0.21 -0.09 -0.2 -0.12 0.01 0.02 -0.1 -0.05 0 0 0.1 0.03 -0.1 -0.03 -0.25 -0.11 0.1 0.04 -0.04 0 -0.13 -0.05 -0.11 -0.04 -0.06 -0.03 0.1 0.03 -0.28 -0.09 -0.14 -0.05 0.07 0.02 -0.08 -0.01 -0.09 -0.03 -0.16 -0.04 -0.14 -0.03 -0.11 -0.03 -0.15 -0.04 -0.12 -0.04 -0.17 -0.04 -0.15 -0.04 -0.07 -0.01 2.11 -9.67 0.27 0.07 0.15 0.04 0.17 0.04 0.2 0.04 0.15 0.04 0.21 0.05 0.14 0.04 0.16 0.04 0.2 0.05 0.2 0.06 0.33 0.11 0.14 0.05 -0.01 -0.01 0.35 0.1 0.21 0.08 0.11 0.04 0.13 0.05 0.2 0.08 0.34 0.14 -0.02 0 0.11 0.04 0.34 0.14 0.2 0.11 0.11 0.05 0.22 0.11 -0.03 -0.01 -0.02 -0.01 0.55 0.28 0.37 0.25 -0.14 -0.09 0.09 0.05 0.27 0.17 0.03 0.03zm-0.03 -0.03c2.25,1.53 2.83,4.64 1.3,6.89 -1.53,2.24 -4.64,2.83 -6.89,1.3l5.59 -8.19zm3.66 4.76l-9.38 3.11 0.05 0.19 -0.01 -0.04 0.09 0.2 0.03 0.06 -0.04 -0.08 -0.1 -0.21 -0.04 -0.09 0.11 0.21 -0.04 -0.07 0.03 0.05 0.1 0.17 -0.2 -0.32 0.06 0.09 0.12 0.18 -0.05 -0.08 0.07 0.12 -0.01 -0.03 -0.06 -0.07 0.1 0.11 -0.06 -0.06 -0.06 -0.07 0.12 0.12 -0.06 -0.06 -0.07 -0.07 -0.06 -0.06 0.29 0.27 -0.07 -0.05 -0.26 -0.24 0.11 0.11 0.16 0.11 -0.14 -0.09 -0.08 -0.06 0.08 0.05 5.64 -8.13 0.23 0.15 0.08 0.07 0.01 0.01 0.29 0.22 0.27 0.24 -0.13 -0.11 0.08 0.05 0.43 0.41 0.06 0.06 0.07 0.07 0.06 0.06 0.25 0.25 0.05 0.06 0.06 0.07 0.21 0.24 0.07 0.08 0.09 0.11 0.18 0.24 0.05 0.08 0.22 0.31 0.15 0.25 -0.11 -0.17 0.21 0.33 0.1 0.2 0.04 0.07 0.2 0.36 0.04 0.09 -0.03 -0.05 0.04 0.08 0.1 0.21 0.17 0.39 0.04 0.11 0.05 0.19zm-0.05 -0.19c0.96,2.56 -0.34,5.42 -2.9,6.38 -2.56,0.96 -5.41,-0.33 -6.38,-2.89l9.28 -3.49zm0.6 4.73l-9.9 0 0 0 0 -0.13 0 -0.13 0 -0.13 0 0.12 0 -0.12 -0.01 -0.37 0 -0.12 0.01 0.16 -0.01 -0.11 0 -0.08 -0.02 -0.1 0 -0.1 -0.01 -0.11 0 -0.1 0.01 0.23 -0.04 -0.39 0 -0.09 0.03 0.26 -0.01 -0.04 0 -0.01 -0.02 -0.08 -0.01 -0.08 -0.01 -0.08 0 -0.01 -0.02 -0.06 -0.01 -0.08 0 0.03 0.01 0.03 -0.01 -0.05 0.13 0.42 0.03 0.13 -0.07 -0.24 9.38 -3.11 -0.04 -0.13 0.08 0.23 0.16 0.55 0.01 0.05 0.04 0.17 0.03 0.15 0.01 0.08 0.01 0.07 0.03 0.14 0.01 0.08 0.01 0.07 0.02 0.08 0.02 0.14 0.02 0.15 0.05 0.44 0 0.09 -0.02 -0.21 0.04 0.44 0 0.11 0.02 0.1 0 0.11 0.01 0.1 0 0.13 0.01 0.13 0.02 0.39 0 0.12 -0.02 -0.15 0.03 0.15 0 0.37 0 0.13 0 0.13 0 0.13 0 0zm-9.9 4.34l0 -4.34 9.9 0 0 4.34 0 0 -9.9 0zm10.07 4.37l-9.51 2.75 0.02 0.09 -0.1 -0.35 -0.03 -0.15 0.02 0.06 -0.11 -0.47 -0.01 -0.1 -0.04 -0.16 -0.06 -0.45 0.01 0.09 -0.03 -0.13 -0.04 -0.4 -0.02 -0.18 -0.02 -0.17 -0.01 -0.19 -0.01 -0.18 -0.01 -0.17 -0.02 -0.18 -0.01 -0.21 -0.03 -0.36 0 -0.19 0 -0.04 -0.02 -0.38 0 -0.23 -0.02 -0.23 0 -0.23 -0.01 -0.25 0 -0.37 0 -0.12 -0.01 -0.25 0 -0.39 0 -0.27 0 -0.27 0 -0.29 9.9 0 0 0.29 0 0.27 0 0.27 0 0.13 0.01 0.25 0 0.38 0 0.11 0.01 0.23 0 0.23 0.02 0.22 0 0.21 0 0.04 0.02 0.35 0 0.19 0 0.03 0.02 0.15 0.01 0.16 0.01 0.17 0.02 0.16 0.01 0.13 0.01 0.14 0 0.1 -0.01 -0.14 0.02 0.13 0.04 0.35 -0.04 -0.22 0.02 0.05 0.01 0.1 -0.05 -0.26 0.06 0.25 0 0 -0.05 -0.19 0.03 0.09zm-0.03 -0.09c0.81,2.61 -0.65,5.39 -3.26,6.19 -2.61,0.81 -5.39,-0.65 -6.2,-3.26l9.46 -2.93zm-3.3 8.73l0 -9.9 -3.56 8.39 -0.17 -0.18 -0.06 -0.08 0.1 0.1 -0.4 -0.42 -0.05 -0.08 -0.07 -0.07 -0.05 -0.07 -0.06 -0.07 -0.23 -0.3 -0.05 -0.06 -0.05 -0.08 -0.05 -0.07 -0.05 -0.07 -0.22 -0.32 -0.04 -0.07 -0.06 -0.07 -0.03 -0.08 -0.06 -0.06 -0.2 -0.38 -0.04 -0.06 -0.13 -0.24 -0.12 -0.23 -0.03 -0.07 -0.1 -0.22 0.04 0.07 -0.04 -0.07 -0.21 -0.57 -0.02 -0.08 0.01 0.05 -0.03 -0.06 -0.06 -0.21 -0.09 -0.26 9.51 -2.75 -0.04 -0.11 -0.01 -0.05 0.02 0.07 0.07 0.2 0.02 0.08 -0.15 -0.41 0.04 0.06 0.09 0.22 -0.03 -0.06 0.03 0.06 -0.04 -0.08 -0.05 -0.07 0.03 0.06 -0.13 -0.22 0.06 0.07 0.04 0.07 0.05 0.07 0.04 0.08 -0.12 -0.19 0.05 0.08 0.05 0.07 0.06 0.08 0.05 0.06 -0.12 -0.14 0.07 0.06 0.05 0.08 0.06 0.07 0.05 0.07 -0.27 -0.3 0.24 0.24 0.06 0.08 -0.04 -0.06 -3.56 8.4zm3.56 -8.4c1.9,1.97 1.85,5.11 -0.12,7.01 -1.96,1.89 -5.1,1.84 -7,-0.12l7.12 -6.89zm-9.5 -1.5l5.94 0 0 9.9 -5.94 0 -3.74 -1.72 3.74 -8.18zm0 9.9c-2.72,0 -4.95,-2.22 -4.95,-4.95 0,-2.73 2.23,-4.95 4.95,-4.95l0 9.9zm1.03 -2.87l-4.31 -8.92 7.04 3.63 0.02 0.17 -0.07 -0.37 0.04 0.16 0.01 0.09 -0.11 -0.36 0.16 0.52 0.01 0.09 -0.1 -0.37 0.03 0.08 -0.1 -0.27 0.04 0.08 0.15 0.43 -0.09 -0.28 0.03 0.08 -0.03 -0.06 -0.13 -0.25 0.13 0.23 -0.06 -0.08 0.04 0.07 0.04 0.08 0.04 0.06 -0.13 -0.22 -0.06 -0.1 0.15 0.23 0.05 0.08 -0.07 -0.1 -0.13 -0.2 0.05 0.07 0.05 0.06 0.05 0.07 0.05 0.06 -0.07 -0.08 -7.49 6.47 -0.18 -0.21 -0.05 -0.06 -0.05 -0.07 -0.06 -0.06 -0.05 -0.07 -0.23 -0.32 -0.16 -0.23 -0.05 -0.08 0.08 0.1 -0.17 -0.23 -0.21 -0.38 -0.04 -0.06 -0.04 -0.08 -0.03 -0.07 -0.13 -0.23 0.05 0.08 -0.21 -0.38 -0.09 -0.22 -0.04 -0.08 -0.14 -0.43 0.09 0.28 -0.04 -0.08 -0.14 -0.43 -0.03 -0.08 -0.16 -0.52 -0.01 -0.09 0.1 0.36 -0.15 -0.51 -0.01 -0.1 -0.02 0 -0.1 -0.52 0 -0.01 7.04 3.63zm-7.04 -3.63c-0.46,-2.69 1.36,-5.26 4.05,-5.72 2.69,-0.45 5.26,1.37 5.72,4.06l-9.77 1.66zm-4.46 -1.92l-0.83 -9.88 0.01 0 0.37 -0.02 0.37 -0.04 0.36 -0.01 0.27 -0.04 0.45 -0.04 0.34 -0.03 0.25 -0.04 0.43 -0.04 0.32 -0.02 0.22 -0.03 0.31 -0.04 0.3 -0.04 0.42 -0.05 0.3 -0.02 0.17 -0.03 0.27 -0.04 0.28 -0.04 0.26 -0.02 0.15 -0.03 0.26 -0.05 0.35 -0.05 0.24 -0.04 0.24 -0.03 0.22 -0.04 0.08 -0.01 0.23 -0.05 0.35 -0.07 0.03 0 0.18 -0.04 0.21 -0.03 0.17 -0.06 0.17 -0.02 2.23 9.64 -0.22 0.05 -0.25 0.05 -0.21 0.04 -0.23 0.07 -0.41 0.07 -0.12 0.02 -0.24 0.05 -0.39 0.06 -0.27 0.04 -0.26 0.05 -0.27 0.04 -0.17 0.03 -0.29 0.05 -0.4 0.05 -0.31 0.06 -0.29 0.03 -0.29 0.04 -0.43 0.05 -0.33 0.03 -0.21 0.03 -0.32 0.04 -0.34 0.03 -0.43 0.06 -0.35 0.02 -0.25 0.04 -0.45 0.04 -0.36 0.03 -0.28 0.04 -0.45 0.03 -0.38 0.04 -0.4 0.04 -0.39 0.03 0.01 0zm-0.01 0c-2.72,0.22 -5.12,-1.82 -5.34,-4.54 -0.22,-2.71 1.82,-5.11 4.53,-5.34l0.81 9.88zm-4.21 0.52l-2.31 -9.62 -0.08 0.02 0.05 -0.02 0.4 -0.1 0.1 -0.01 -0.06 0.01 0.39 -0.08 0.11 -0.01 -0.04 0 0.37 -0.07 0.12 -0.01 -0.08 0 0.41 -0.06 0.18 -0.03 0.14 -0.03 0.14 -0.01 0.17 -0.02 0.18 -0.02 -0.01 0 0.38 -0.05 0.17 -0.01 0.17 -0.03 0.19 -0.02 0.2 -0.03 0.18 -0.01 0.18 -0.03 0.38 -0.03 0.04 0 0.2 -0.02 0.22 -0.01 0.21 -0.03 0.21 -0.01 0.23 -0.03 0.25 -0.03 0.83 9.88 -0.19 0 -0.18 0.02 -0.21 0.02 -0.21 0.02 -0.2 0.02 -0.18 0.02 -0.35 0.03 0.02 0 -0.19 0.02 -0.18 0.02 -0.17 0.02 -0.14 0 -0.17 0.03 -0.17 0.01 0.04 0 -0.32 0.05 -0.13 0.02 -0.12 0.02 -0.14 0.02 -0.15 0.02 -0.1 0 0.14 -0.01 -0.34 0.05 -0.11 0.01 0.11 -0.01 -0.27 0.05 -0.1 0.02 0.15 -0.03 -0.26 0.07 -0.09 0.01 0.2 -0.05 -0.13 0.04 -0.08 0.01zm0.08 -0.01c-2.64,0.67 -5.35,-0.93 -6.03,-3.56 -0.68,-2.64 0.92,-5.36 3.56,-6.03l2.47 9.59zm-0.17 -0.07l-6.63 -7.35 0 0 0.11 -0.09 0.05 -0.06 0.34 -0.27 0.05 -0.04 0.05 -0.04 0.29 -0.19 0.06 -0.04 0.05 -0.04 0.26 -0.17 0.07 -0.04 0.06 -0.04 0.41 -0.22 0.06 -0.02 -0.27 0.14 0.4 -0.22 0.22 -0.11 0.08 -0.03 0.06 -0.03 0.23 -0.1 0.42 -0.15 0.08 -0.02 -0.27 0.09 0.08 -0.04 0.43 -0.14 0.18 -0.07 0.09 -0.03 0.08 -0.02 0.09 -0.03 0.08 -0.02 0.5 -0.15 0.09 -0.01 -0.02 0.01 2.31 9.62 -0.21 0.06 -0.09 0.02 0.33 -0.09 -0.08 0.02 -0.09 0.03 -0.08 0.02 -0.09 0.03 0.02 -0.01 0.28 -0.09 -0.08 0.03 -0.43 0.15 -0.08 0.02 0.28 -0.09 0.06 -0.02 -0.06 0.02 -0.08 0.04 0.09 -0.05 0.27 -0.14 -0.4 0.22 -0.07 0.02 0.28 -0.14 -0.07 0.04 -0.06 0.04 0.13 -0.09 -0.06 0.04 -0.06 0.04 0.18 -0.12 -0.05 0.04 -0.05 0.04 0.23 -0.2 -0.05 0.05 0 -0.01 0 0zm0 0c-2.03,1.82 -5.17,1.66 -6.99,-0.36 -1.82,-2.03 -1.66,-5.17 0.36,-6.99l6.63 7.35zm0.84 -2.13l-9.9 0 0 0 0 -0.05 0.04 -0.66 0.02 -0.06 0 -0.05 0.01 -0.05 0 -0.05 0.12 -0.64 0.01 -0.05 0.01 -0.05 0.01 -0.06 0.28 -0.8 0.02 -0.04 -0.07 0.16 0.23 -0.52 -0.09 0.2 0.01 -0.03 0.38 -0.73 0.04 -0.05 -0.08 0.11 0.3 -0.45 0.04 -0.05 0.02 -0.04 0.31 -0.41 -0.23 0.32 0.3 -0.41 0.31 -0.31 -0.22 0.22 0.04 -0.04 0.3 -0.32 0.05 -0.04 0.04 -0.05 0.23 -0.22 6.63 7.35 0.13 -0.14 -0.04 0.05 -0.05 0.04 0.22 -0.22 -0.04 0.04 -0.3 0.32 0.21 -0.23 0.25 -0.3 -0.32 0.39 0.24 -0.3 -0.03 0.04 -0.04 0.05 0.25 -0.38 -0.13 0.22 -0.04 0.06 0.33 -0.63 -0.02 0.04 -0.14 0.31 0.18 -0.41 -0.1 0.26 -0.03 0.04 0.25 -0.7 -0.01 0.05 -0.02 0.05 -0.01 0.05 0.09 -0.53 0 0.05 -0.01 0.05 0 0.05 -0.02 0.06 0.04 -0.56 0 0.05 0 0zm-1.01 -2.26l-4.42 8.86 0 0 -0.1 -0.05 -0.33 -0.17 -0.22 -0.13 -0.22 -0.14 -0.09 -0.07 -0.09 -0.05 -0.23 -0.16 -0.24 -0.15 -0.27 -0.22 -0.23 -0.21 -0.07 -0.07 0.12 0.11 -0.43 -0.39 -0.4 -0.44 0.1 0.11 -0.06 -0.06 -0.43 -0.55 -0.16 -0.23 -0.05 -0.08 -0.21 -0.36 -0.04 -0.08 -0.21 -0.38 -0.09 -0.22 -0.04 -0.08 -0.23 -0.69 -0.01 -0.06 -0.05 -0.18 -0.1 -0.46 -0.06 -0.52 0 -0.09 -0.01 -0.04 -0.02 -0.49 9.9 0 -0.01 -0.34 0.01 0.12 0 0.09 -0.04 -0.36 -0.06 -0.3 0 -0.03 0.01 0.07 -0.18 -0.54 0.04 0.08 -0.04 -0.06 -0.13 -0.25 0.04 0.08 -0.13 -0.24 0.05 0.08 -0.08 -0.1 -0.32 -0.42 0.06 0.07 0.21 0.24 -0.27 -0.28 -0.3 -0.29 0.27 0.24 0.07 0.06 -0.08 -0.08 -0.12 -0.09 -0.07 -0.05 -0.06 -0.03 0.09 0.06 0.1 0.06 -0.04 -0.04 -0.02 0 -0.11 -0.06 0.1 0.05 0 0zm0 0c2.44,1.21 3.43,4.2 2.22,6.64 -1.21,2.44 -4.19,3.43 -6.64,2.22l4.42 -8.86zm2.82 0.35l0 9.9 0 0 -0.21 0 -0.35 0 -0.21 -0.01 -0.21 0 -0.19 -0.02 -0.18 0 -0.37 -0.02 -0.19 -0.02 -0.38 -0.02 -0.17 -0.03 -0.18 -0.01 -0.19 -0.04 -0.17 -0.01 -0.38 -0.05 -0.19 -0.03 -0.16 -0.03 -0.16 -0.02 -0.39 -0.08 -0.14 -0.04 -0.15 -0.02 -0.46 -0.12 -0.13 -0.04 -0.14 -0.04 -0.18 -0.05 -0.13 -0.04 -0.35 -0.1 -0.21 -0.08 -0.2 -0.08 -0.33 -0.14 -0.12 -0.06 -0.21 -0.09 -0.21 -0.1 4.42 -8.86 0 0 0.03 0.01 0.11 0.05 -0.1 -0.03 0.04 0 0.05 0.02 -0.09 -0.02 0.13 0.03 0.08 0.03 0.14 0.04 0.13 0.04 -0.17 -0.04 0.16 0.02 0.14 0.04 -0.08 -0.02 0.16 0.02 0.15 0.03 0.12 0.03 -0.04 0 0.17 0.01 0.14 0.01 0.19 0.01 0.16 0.03 -0.01 0 0.17 0.01 0.03 0 0.18 0 0.19 0.02 0.18 0 0.21 0.01 0.04 0 0.21 0 0 0zm4.3 -0.57l3.09 9.4 -0.04 0.02 -0.15 0.05 -0.34 0.1 -0.16 0.04 -0.22 0.07 -0.34 0.08 0 0 -0.16 0.05 -0.52 0.11 -0.17 0.03 -0.03 0.01 -0.36 0.08 -0.17 0.03 -0.21 0.04 -0.35 0.05 -0.18 0.02 -0.18 0.03 -0.19 0.03 -0.18 0.02 -0.37 0.05 -0.2 0.02 -0.18 0.02 -0.38 0.03 -0.19 0.01 -0.2 0.01 -0.19 0.02 -0.35 0.02 -0.21 0 -0.21 0.02 -0.19 0 -0.21 0.01 -0.35 0 -0.21 0 0 -9.9 0.21 0 0.04 0 0.2 -0.01 0.2 0 0.21 -0.02 0.18 0 0.04 0 0.19 -0.01 0.2 -0.01 0.19 -0.02 0.02 0 0.18 -0.02 0.19 -0.01 -0.01 0 0.18 -0.03 0.18 -0.03 0.18 -0.02 0.19 -0.03 0.01 0 0.16 -0.04 0.16 -0.02 0 0 0.32 -0.07 0.17 -0.02 -0.19 0.04 0.17 -0.06 0.34 -0.07 0 0 0.12 -0.04 0.15 -0.04 0 0 0.16 -0.05 -0.04 0.01zm1.52 -0.74l7.59 6.36 -0.03 0.03 -0.09 0.1 -0.19 0.22 -0.23 0.23 -0.22 0.22 -0.23 0.2 0.05 -0.05 -0.09 0.09 -0.36 0.33 -0.11 0.08 -0.09 0.07 -0.22 0.17 -0.22 0.16 -0.29 0.19 -0.1 0.07 -0.22 0.14 -0.12 0.07 -0.22 0.14 -0.31 0.16 -0.12 0.06 -0.22 0.12 -0.13 0.06 -0.21 0.11 -0.14 0.06 -0.13 0.07 -0.4 0.18 -0.14 0.05 -0.15 0.06 -0.2 0.08 -0.23 0.09 -0.33 0.11 -0.16 0.05 -0.17 0.06 -3.09 -9.4 0.14 -0.04 0.16 -0.05 -0.03 0 0.09 -0.04 0.08 -0.03 0.14 -0.06 0.15 -0.05 -0.12 0.05 0.13 -0.07 0.14 -0.06 0.06 -0.03 0.13 -0.06 0.03 -0.02 0.12 -0.06 -0.05 0.02 0.01 -0.01 0.12 -0.06 0.01 -0.02 0.11 -0.06 -0.06 0.04 -0.01 0 -0.01 0.01 0.09 -0.08 0.1 -0.08 -0.18 0.17 0.09 -0.09 0.24 -0.21 -0.06 0.06 -0.04 0.04 -0.06 0.06 -0.04 0.04 0.07 -0.08 -0.03 0.03zm0.03 -0.03c1.76,-2.08 4.89,-2.32 6.97,-0.56 2.08,1.77 2.33,4.9 0.56,6.98l-7.53 -6.42zm-0.28 -0.04l9.9 0 0 0 0 0.13 0 0.38 -0.01 0.13 0 0.13 -0.03 0.14 0 0.13 -0.02 0.37 -0.01 0.13 -0.07 0.45 -0.03 0.1 0 0.08 -0.03 0.16 -0.03 0.15 -0.08 0.39 -0.02 0.11 -0.11 0.39 -0.04 0.1 -0.06 0.18 -0.07 0.2 -0.02 0.09 -0.16 0.38 -0.04 0.09 -0.04 0.09 -0.23 0.49 -0.05 0.08 -0.04 0.09 -0.13 0.22 -0.04 0.08 -0.33 0.49 -0.22 0.29 -0.06 0.08 -0.09 0.11 -7.59 -6.36 0.01 -0.02 0.07 -0.07 -0.12 0.15 -0.22 0.34 0.04 -0.08 -0.03 0.07 0.04 -0.09 0.05 -0.08 -0.15 0.31 0.04 -0.09 0.04 -0.09 -0.08 0.19 0.02 -0.09 0.02 0.02 -0.02 -0.03 0.04 -0.1 -0.05 0.18 0.03 -0.11 -0.03 0.19 0 -0.06 0.01 -0.07 0.03 -0.16 0.03 -0.1 -0.04 0.22 0.01 -0.13 0 0.13 0 -0.11 0 -0.11 0 -0.13 0.01 -0.13 0 0.11 0 -0.13 0 0zm9.9 -1.19l0 1.19 -9.9 0 0 -1.19 3.84 -4.82 6.06 4.82zm-9.9 0c0,-2.73 2.22,-4.95 4.95,-4.95 2.73,0 4.95,2.22 4.95,4.95l-9.9 0z"/>
     <path id="1" class="fil4" d="M674.66 164.25l17.79 -26.51 6.6 0 18.95 26.51 -6.98 0 -5.4 -8.03 -19.37 0 -5.08 8.03 -6.51 0zm13.36 -10.89l15.72 0 -4.85 -7.34c-1.47,-2.22 -2.57,-4.05 -3.27,-5.5 -0.6,1.71 -1.43,3.39 -2.51,5.07l-5.09 7.77zm61.1 10.89l0 -2.82c-2.63,2.17 -6.17,3.25 -10.66,3.25 -1.97,0 -3.83,-0.22 -5.54,-0.65 -1.72,-0.43 -2.99,-0.98 -3.82,-1.64 -0.83,-0.66 -1.42,-1.46 -1.76,-2.4 -0.22,-0.65 -0.33,-1.67 -0.33,-3.06l0 -11.88 5.67 0 0 10.64c0,1.71 0.12,2.84 0.34,3.44 0.38,0.86 1.13,1.52 2.29,2.01 1.15,0.5 2.6,0.73 4.3,0.73 1.7,0 3.3,-0.25 4.79,-0.74 1.5,-0.51 2.56,-1.18 3.17,-2.04 0.63,-0.87 0.94,-2.12 0.94,-3.76l0 -10.28 5.69 0 0 19.2 -5.08 0zm18.88 0l0 -19.2 5.1 0 0 2.91c1.31,-1.37 2.52,-2.27 3.63,-2.69 1.1,-0.45 2.32,-0.67 3.65,-0.67 1.91,0 3.86,0.35 5.84,1.06l-1.97 3.02c-1.38,-0.48 -2.77,-0.71 -4.16,-0.71 -1.25,0 -2.36,0.22 -3.35,0.65 -0.99,0.43 -1.69,1.01 -2.12,1.78 -0.63,1.15 -0.95,2.41 -0.95,3.79l0 10.06 -5.67 0zm48.44 -2.38c-2.11,1.03 -4.14,1.75 -6.08,2.18 -1.96,0.42 -4.05,0.63 -6.27,0.63 -3.69,0 -6.52,-0.51 -8.5,-1.55 -1.97,-1.03 -2.97,-2.35 -2.97,-3.95 0,-0.93 0.37,-1.79 1.13,-2.57 0.74,-0.78 1.72,-1.41 2.93,-1.87 1.21,-0.47 2.58,-0.83 4.1,-1.07 1.1,-0.17 2.79,-0.34 5.04,-0.49 4.6,-0.31 7.97,-0.69 10.14,-1.12 0.03,-0.45 0.04,-0.73 0.04,-0.84 0,-1.34 -0.54,-2.28 -1.62,-2.81 -1.44,-0.74 -3.61,-1.1 -6.47,-1.1 -2.68,0 -4.64,0.26 -5.93,0.8 -1.27,0.53 -2.21,1.48 -2.83,2.85l-5.55 -0.45c0.51,-1.35 1.34,-2.45 2.5,-3.28 1.14,-0.85 2.83,-1.5 5.01,-1.94 2.2,-0.45 4.73,-0.69 7.62,-0.69 2.87,0 5.19,0.21 6.97,0.59 1.8,0.39 3.11,0.87 3.97,1.45 0.84,0.59 1.42,1.33 1.76,2.22 0.18,0.55 0.29,1.55 0.29,2.99l0 4.34c0,3.04 0.12,4.95 0.36,5.74 0.24,0.81 0.72,1.58 1.43,2.32l-5.94 0c-0.58,-0.68 -0.97,-1.47 -1.13,-2.38zm-0.48 -7.26c-2.06,0.48 -5.15,0.89 -9.27,1.23 -2.34,0.2 -4,0.4 -4.97,0.65 -0.97,0.24 -1.72,0.59 -2.24,1.05 -0.52,0.47 -0.8,0.98 -0.8,1.55 0,0.87 0.59,1.6 1.73,2.17 1.14,0.57 2.82,0.87 5.03,0.87 2.2,0 4.14,-0.27 5.85,-0.82 1.7,-0.56 2.96,-1.31 3.76,-2.26 0.61,-0.73 0.91,-1.82 0.91,-3.25l0 -1.19z"/>
    </g>
   </g>
   <g id="_1662930950304">
    <path class="fil5" d="M1352.8 197.79l-137.17 0c0,0 -38.43,0 -38.43,-38.43l0 -137.17 137.17 0c0,0 38.43,0 38.43,38.43l0 137.17z"/>
    <polygon class="fil6" points="1257.07,173.12 1248.43,173.12 1248.43,128.82 1257.07,128.82 "/>
    <polygon class="fil6" points="1279.11,173.12 1264.95,173.12 1264.95,112.3 1279.11,112.3 "/>
    <path class="fil6" d="M1240.68 69.95c0,0 14.28,-13.95 38.34,-9.37 0,0 10.59,1.65 18.69,8.86 0,0 1.21,1.13 2.15,0.21 0,0 1.17,-0.93 -0.14,-2.31 0,0 -6.97,-9.68 -20.75,-13.95 0,0 -18.92,-6.77 -38.36,2.37 0,0 -11.96,4.97 -18.6,18.48 0,0 -9.46,3.05 -16.55,7.03 0,0 -2.1,0.83 -1.3,2.45 0,0 0.67,1.17 2.5,0.3 0,0 6.59,-2.27 12.95,-3.69 0,0 -5.11,13.25 0.22,29.68 2.37,7.31 6.7,14.77 13.31,20.74 0,0 1.08,1.15 2.26,0.37 0,0 1.02,-0.74 0.3,-1.95 0,0 -5.27,-7.95 -7.33,-19.23 -1.7,-9.22 -0.89,-21.93 5.5,-32.01 0,0 24.35,-3.39 45.1,4.41 0,0 35.24,11.5 26.37,32.84 0,0 -2.57,7.41 -12.3,14.12 0,0 -1.64,0.95 -0.76,2.31 0,0 0.74,1.05 2.41,0.38 0,0 14.9,-4.85 21.33,-16.83 0,0 13.04,-19.95 -17.71,-36.25 0,0 -8.47,-4.52 -19.34,-6.93 0,0 -19.6,-4.85 -38.29,-2.03z"/>
   </g>
   <g id="_1662930950368">
    <path class="fil7" d="M1723.16 22.19l117.14 0c8.15,0 14.95,2.91 20.59,8.55 5.82,5.63 8.74,12.63 8.74,20.79l0 117.12c0,7.97 -2.92,14.97 -8.74,20.59 -5.64,5.64 -12.44,8.55 -20.59,8.55l-117.14 0c-8.16,0 -15.15,-2.91 -20.79,-8.55 -5.63,-5.62 -8.55,-12.62 -8.55,-20.59l0 -117.12c0,-8.16 2.92,-15.16 8.55,-20.79 5.64,-5.64 12.63,-8.55 20.79,-8.55z"/>
    <path class="fil2" d="M1828.06 121.84l9.52 0 11.65 -11.85 -12.82 0 -8.35 11.85zm-3.5 2.91l-13.6 0 0 25.45c0,6.8 1.75,11.85 5.05,15.15 2.91,2.91 6.8,4.28 11.66,4.28 6.79,0 11.85,-2.72 14.95,-7.97l0.2 0 0 6.99 12.04 0 0 -43.9 -13.59 0 0 25.65c0,1.17 -0.2,2.13 -0.39,2.71 -1.56,3.69 -4.27,5.64 -8.35,5.64 -5.25,0 -7.97,-3.69 -7.97,-10.87l0 -23.13zm-34.96 14.58c-8.94,0 -15.75,1.35 -20.4,4.27 -4.86,2.91 -7.39,7.19 -7.39,12.81 0,3.51 1.36,6.62 3.88,9.14 2.93,2.71 6.62,4.08 11.09,4.08 6.01,0 10.48,-1.94 13.59,-5.63l0.39 0 0 4.65 12.43 0 0 -25.83c0,-5.83 -1.55,-10.3 -4.47,-13.6 -3.49,-3.69 -8.74,-5.63 -15.73,-5.63 -7.19,0 -13.2,1.36 -17.87,4.28l2.52 8.54c3.89,-2.33 8.16,-3.5 13.02,-3.5 6.02,0 8.94,1.95 8.94,6.03l0 0.39zm-33.22 -14.58l-8.36 0 0 -14.76 -13.21 0 0 14.76 -6.21 0 0 10.11 6.21 0 0 17.67c0,6.03 1.17,10.5 3.69,13.02 2.53,2.71 6.22,4.08 10.69,4.08 2.91,0 5.24,-0.39 7.38,-1.17l-0.19 -10.29c-0.39,0.39 -1.17,0.58 -2.53,0.58 -2.14,0 -3.69,-0.78 -4.66,-2.34 -0.78,-1.15 -1.17,-3.1 -1.17,-6.01l0 -15.54 8.36 0 0 -10.11zm18.06 30.51c0,-5.25 5.25,-7.58 15.54,-7.38l0 4.65 -0.2 2.53c-0.57,1.74 -1.74,3.11 -3.3,4.08 -1.54,1.35 -3.49,1.94 -5.62,1.94 -4.28,0 -6.42,-1.94 -6.42,-5.82zm-66.04 -45.27l0 58.66 13.78 0 0 -58.66 -13.78 0z"/>
   </g>
   <g id="_1662930949152">
    <polygon class="fil8" points="2197.11,21.46 2399.79,21.46 2399.79,198.52 2197.11,198.52 "/>
    <path class="fil9" d="M2344.8 53.23l15.99 10.95 15.64 -10.46 0.04 -21.47 -31.67 20.98 0 0zm-92.47 113.86l-15.94 -10.86 -15.96 10.89 0 21.06 31.9 -21.09 0 0zm60.52 -92.93l15.61 10.5 -74.21 50.21 45.87 30.95 21.52 -14.59 -16.73 -11.08 38.61 -25.88 32.3 21.43 -78.03 52.02 -77 -51.65 92.06 -61.91 0 0zm-29.23 71.22l-15.62 -10.51 74.2 -50.2 -45.85 -30.95 -21.53 14.59 16.72 11.09 -38.6 25.88 -32.31 -21.44 77.77 -52.02 77.2 51.89 -91.98 61.67 0 0z"/>
   </g>
   <g id="VISA.cdr">
    <polygon class="fil10" points="169.83,165.61 188.83,54.53 219.17,54.53 200.17,165.61 "/>
    <path class="fil10" d="M310.02 57.28c-5.98,-2.14 -15.47,-4.58 -27.11,-4.58 -30.04,0 -51.02,15 -51.18,36.61 -0.16,15.93 15.02,24.81 26.5,30.18 11.8,5.52 15.79,8.89 15.63,13.78 0,7.51 -9.34,10.89 -18.07,10.89 -12.11,0 -18.54,-1.69 -28.5,-5.82l-3.99 -1.84 -4.13 24.82c7.05,3.21 20.07,5.82 33.7,5.97 31.87,0 52.41,-14.85 52.71,-37.99 0.15,-12.56 -7.97,-22.22 -25.43,-30.18 -10.57,-5.06 -17.01,-8.43 -17.01,-13.64 0,-4.75 5.51,-9.66 17.31,-9.66 9.96,-0.15 17.16,2 22.67,4.29l2.77 1.23 4.13 -24.06z"/>
    <path class="fil10" d="M387.7 54.68l-23.44 0c-7.21,0 -12.72,1.99 -15.94,9.19l-44.89 101.88 31.72 0c0,0 5.21,-13.78 6.43,-16.69 3.53,0 34.32,0 38.77,0 0.92,3.83 3.67,16.69 3.67,16.69l28.04 0 -24.36 -111.07zm-37.38 71.55c2.44,-6.27 12.1,-30.95 12.1,-30.95 -0.3,0.3 2.45,-6.43 3.99,-10.57l1.98 9.5c0,0 5.82,26.5 7.06,32.02l-25.13 0z"/>
    <path class="fil10" d="M144.55 54.68l-29.72 75.68 -3.07 -15.31c-5.51,-17.78 -22.83,-36.93 -41.98,-46.58l27.13 97.14 32.01 0 47.66 -110.93 -32.03 0z"/>
    <path class="fil11" d="M87.4 54.53l-48.87 0 -0.31 2.45c37.85,9.19 63.13,31.41 73.54,58.07l-10.72 -51.02c-1.84,-7.05 -7.04,-9.19 -13.64,-9.5z"/>
   </g>
  </g>
 </g>
</svg>
