<?xml version="1.0" encoding="UTF-8"?>
<!DOCTYPE svg PUBLIC "-//W3C//DTD SVG 1.1//EN" "http://www.w3.org/Graphics/SVG/1.1/DTD/svg11.dtd">
<!-- Creator: CorelDRAW 2017 -->
<svg xmlns="http://www.w3.org/2000/svg" xml:space="preserve" width="91.9478mm" height="24.5532mm" version="1.1" style="shape-rendering:geometricPrecision; text-rendering:geometricPrecision; image-rendering:optimizeQuality; fill-rule:evenodd; clip-rule:evenodd"
viewBox="0 0 9194.78 2455.32"
 xmlns:xlink="http://www.w3.org/1999/xlink">
 <defs>
  <style type="text/css">
   <![CDATA[
    .fil0 {fill:#FEFEFE}
    .fil3 {fill:#1371B8}
    .fil4 {fill:#212121}
    .fil5 {fill:#F8A81F}
    .fil8 {fill:#373435;fill-rule:nonzero}
    .fil6 {fill:#0668B1;fill-rule:nonzero}
    .fil7 {fill:#212121;fill-rule:nonzero}
    .fil1 {fill:url(#id0)}
    .fil2 {fill:url(#id1)}
   ]]>
  </style>
  <linearGradient id="id0" gradientUnits="userSpaceOnUse" x1="924.94" y1="1529.5" x2="924.94" y2="78.4">
   <stop offset="0" style="stop-opacity:1; stop-color:#0668B1"/>
   <stop offset="0.0705882" style="stop-opacity:1; stop-color:#1778C1"/>
   <stop offset="0.121569" style="stop-opacity:1; stop-color:#2A98EB"/>
   <stop offset="0.180392" style="stop-opacity:1; stop-color:#197BC4"/>
   <stop offset="0.239216" style="stop-opacity:1; stop-color:#228AD8"/>
   <stop offset="0.321569" style="stop-opacity:1; stop-color:#1371B8"/>
   <stop offset="0.341176" style="stop-opacity:1; stop-color:#96D2FF"/>
   <stop offset="1" style="stop-opacity:1; stop-color:#0668B1"/>
  </linearGradient>
  <linearGradient id="id1" gradientUnits="userSpaceOnUse" x1="924.94" y1="1529.5" x2="924.94" y2="78.39">
   <stop offset="0" style="stop-opacity:1; stop-color:#FFCC99"/>
   <stop offset="0.0588235" style="stop-opacity:1; stop-color:#839AA5"/>
   <stop offset="0.0901961" style="stop-opacity:1; stop-color:#1778C1"/>
   <stop offset="0.121569" style="stop-opacity:1; stop-color:#2A98EB"/>
   <stop offset="0.180392" style="stop-opacity:1; stop-color:#197BC4"/>
   <stop offset="0.239216" style="stop-opacity:1; stop-color:#228AD8"/>
   <stop offset="0.321569" style="stop-opacity:1; stop-color:#1371B8"/>
   <stop offset="0.341176" style="stop-opacity:1; stop-color:#96D2FF"/>
   <stop offset="1" style="stop-opacity:1; stop-color:#0668B1"/>
  </linearGradient>
 </defs>
 <g id="Camada_x0020_1">
  <metadata id="CorelCorpID_0Corel-Layer"/>
  <g id="_1662930952160">
   <path class="fil0" d="M926.02 2455.34c445.31,-472.76 776.48,-914.16 884.83,-1294.35 55.99,-196.33 50.67,-374.73 -24.94,-563.87 -135.34,-338.68 -459.67,-519.07 -847,-518.72 -98.7,0.09 -192.56,8.92 -280.06,27.16 15.9,39.53 24.67,82.68 24.67,127.91 0,189.31 -153.4,342.72 -342.71,342.72 -89.44,0 -170.84,-34.24 -231.86,-90.32 -14.44,26.29 -27.65,53.89 -39.5,82.92 -71.25,174.87 -87.3,354.82 -44.2,538.84 91.57,390.61 430.9,850.88 900.77,1347.71z"/>
   <path class="fil1" d="M1763.83 1296.84c18.59,-46.09 34.35,-91.39 47.02,-135.85 55.99,-196.33 50.67,-374.73 -24.94,-563.87 -135.34,-338.68 -459.67,-519.07 -847,-518.72 -98.71,0.09 -192.56,8.92 -280.06,27.16 15.9,39.53 24.67,82.68 24.67,127.91 0,189.31 -153.41,342.72 -342.72,342.72 -89.43,0 -170.83,-34.24 -231.85,-90.31 -14.44,26.28 -27.65,53.88 -39.49,82.91 -71.26,174.87 -87.31,354.82 -44.21,538.84 10.69,45.61 24.8,92.18 42.07,139.64 206.09,171.97 523.98,282.23 880.7,282.23 321.15,0 610.84,-89.36 815.81,-232.66z"/>
   <path class="fil2" d="M67.32 1247.27c206.09,171.97 523.98,282.23 880.7,282.23 321.15,0 610.84,-89.36 815.81,-232.66 -586.44,108.09 -1148.17,108.54 -1696.51,-49.57z"/>
   <path class="fil3" d="M4.9 981.8c1.82,20.39 4.36,40.82 7.64,61.31 168.68,-8.13 378.02,-5.77 560.99,-3.71 111.02,1.27 212.49,2.42 289.88,1.05 88.64,-1.88 149.39,-20.12 184.73,-45.32 20.47,-14.56 33.58,-31.91 39.67,-50.46 6.61,-20.12 4.98,-40.96 -4.33,-60.84 -11.6,-24.74 -35.59,-47.71 -70.46,-64.99 -194.9,-96.55 -799.34,2.5 -880.9,-112.51 -15.7,-22.54 -1.88,-45.57 18.3,-59.73 99.22,-69.59 581.53,31.6 669.95,-198.52l-0.58 -0.31c-137.86,223.5 -527.27,94.46 -688.1,169.06 -82.58,38.24 -87.93,115.93 -5.78,161.11 180.4,99.09 700.74,17.4 859.84,96.24 21.95,10.88 36.2,23.47 41.95,35.74 2.48,5.32 3,10.61 1.43,15.4 -2.07,6.37 -7.64,13.08 -16.73,19.54 -26.31,18.77 -75.25,32.4 -150.23,34.01 -76.64,1.33 -177.65,0.18 -288.15,-1.05 -185.32,-2.09 -397.38,-4.49 -569.12,3.98z"/>
   <path class="fil4" d="M926.02 2455.34c47.02,-49.93 92.76,-99.5 137.11,-148.69 1.55,-13.83 3.27,-27.39 7.22,-42.84 15.28,-59.86 63.03,-90.29 112.2,-92.67 36.03,-41.92 70.93,-83.52 104.61,-124.79 -41.84,-53.77 -127.19,-73.81 -191.1,-4.61 -19.03,20.61 -28.41,48.08 -30.77,84 -3.15,47.39 -22.23,134.93 -64.3,166.07 -23.25,17.2 -49.05,30.35 -88.2,26.8 -16.12,-1.49 -32.42,-6.84 -44.87,-13.51 -40.44,-21.55 -58.5,-55.68 -70.74,-102.7 -3.96,-15.27 -7.77,-31.6 -10.58,-47.94 -6.72,-39.16 -3.62,-89.99 -46.47,-125.16 -51.92,-42.61 -113.8,-42.12 -164,0.55 -4.8,4.08 -9.45,9.09 -13.78,14.71 34.02,41.65 69.33,83.65 105.8,125.98 9.16,0.66 18.49,2.44 27.83,5.56 41.31,13.86 75.97,51.34 84.16,99.94 1.45,8.67 2.68,17.23 3.86,25.73 45.85,50.77 93.22,101.97 142.02,153.57zm394.25 -449.96c16.07,-20.08 31.85,-40.09 47.32,-60 -21.14,-22.34 -31.23,-51.12 -40.57,-85.24 -18.33,-66.93 -7.58,-104.79 -36.36,-145.98 -60.88,-87.21 -195.74,-62.62 -221.17,42.53 -10.68,44.07 -5.8,89.79 -33.19,150.94 -33.13,73.98 -118.31,95.2 -179.24,54.25 -41.4,-27.81 -53.84,-68.12 -65.34,-118.77 -6.18,-27.16 -6.83,-53.61 -12.03,-79.98 -9.37,-47.55 -44.31,-84.72 -86.81,-97.37 -76.68,-22.87 -150.61,33.6 -157.56,107.62 -5.61,59.92 -16.14,128.37 -53.3,170.44 15.26,19.64 30.81,39.35 46.67,59.15 3.26,-16.74 5.32,-32.6 6.1,-45.8 2,-34.09 13.73,-63.12 30.97,-81.09 44.9,-46.9 105.57,-57.49 159.09,-22.73 61.7,40.06 54.05,99.99 65.39,155.97 6.15,30.52 14.49,57.48 27.21,82.43 26.56,52.11 96.02,76.83 151.5,54.75 24.77,-9.87 46.88,-29.11 60.09,-51.48 49.21,-83.22 11.79,-264.23 159.7,-261.81 115.36,1.89 115.39,92.58 131.53,172.17zm137.28 -179.72c51.37,-70.85 98.46,-140.53 140.76,-208.9 2.03,-13.27 4.14,-24.47 7.09,-32.39 9.99,-26.83 27.41,-47.7 48.55,-61.7 36.36,-64.58 68.1,-127.89 94.85,-189.83 -11.58,-2.78 -23.42,-3.76 -35.14,-3.05 -29.01,17.91 -59.45,34.79 -91.18,50.6 -34.57,48.64 -19.24,89.74 -45.93,173.42 -5.34,16.81 -16.31,42.97 -27.34,55.89 -2.33,2.7 -3.99,3.92 -6.92,7.2 -17.8,19.81 -52.8,37.49 -89.63,36.41 -34.24,-0.98 -58.48,-17.09 -77.26,-32.68 -31.64,-26.18 -49.88,-83.9 -57.97,-132.35 -30.22,6.98 -61.03,13.12 -92.35,18.39 48.72,14.84 85.23,60.96 88,119.84 1.9,40.5 19.97,109.68 40.93,142.89 20.16,31.93 61.07,55.98 103.54,56.26zm-404.56 -299.37c-12.79,52.64 -31.31,89.58 -74,111.48 -62.9,32.29 -130.6,-1.37 -155.82,-40.3 -12.92,-19.95 -22.23,-47.31 -28.94,-74.91 -29.36,-2.66 -58.36,-6.08 -86.94,-10.21 36.32,16.14 65.34,49.74 72.77,94.63 4.97,30.1 3.31,41.11 12.03,79.95 5.17,22.98 13.52,50.51 22.86,69.31 21,42.42 68.42,69.55 117.35,66.87 27.88,-1.57 47.49,-11.79 65.49,-24.8 37.67,-27.26 50.89,-77.22 60.67,-123.55 5.28,-25.12 5.94,-57.11 12,-80.05 8.16,-30.95 28.3,-57.72 55.41,-74.49 -24.05,2.53 -48.35,4.56 -72.88,6.07zm-520.93 -49.54c-7.34,49.12 -25.74,115.89 -55.08,142.36 -43.61,39.36 -106.59,45.44 -157.5,5.79 -12.85,-9.98 -26.08,-23.91 -33.93,-38.62 -35.52,-66.46 -31.14,-142.65 -41.92,-174.05 -6.3,-18.48 -17.09,-34.57 -27.2,-45.44 -29.12,-31.44 -74.11,-42.99 -115.27,-34.55 27.02,62.48 59.15,126.39 95.98,191.63 4.8,3.35 9.43,7.09 13.84,11.23 25.28,23.66 33.18,47.82 37.88,76.29 42.75,69.33 90.43,140.04 142.62,212.01 43.21,1.64 86.32,-18.89 108.45,-62.75 10.71,-21.21 17.67,-43.45 23.55,-68.44 13.85,-58.7 5.67,-104.17 39.58,-144.59 23.66,-28.17 53.23,-42.45 82.92,-45.37 -38.86,-7.17 -76.87,-15.7 -113.92,-25.5z"/>
   <path class="fil5" d="M340.81 466.94c-128.98,0 -233.49,-104.51 -233.49,-233.49 0,-128.94 104.51,-233.45 233.49,-233.45 128.98,0 233.49,104.51 233.49,233.45 0,128.98 -104.51,233.49 -233.49,233.49z"/>
   <g>
    <path class="fil6" d="M2170.77 1004.21c16.43,35.09 44.66,66.09 84.69,92.95 40.02,26.86 87.98,40.27 143.91,40.27 29.58,0 58.65,-3.55 87.15,-10.69 28.53,-7.1 53.72,-17.8 75.65,-32.05 21.93,-14.28 39.77,-32.08 53.47,-53.46 13.7,-21.39 20.56,-46.88 20.56,-76.46 0,-29.61 -6.6,-55.1 -19.76,-76.49 -13.16,-21.38 -30.71,-38.93 -52.6,-52.63 -21.93,-13.7 -47.16,-24.11 -75.66,-31.25 -28.52,-7.1 -58.11,-10.69 -88.81,-10.69 -55.93,0 -107.19,-6.02 -153.77,-18.09 -46.62,-12.07 -87.19,-30.42 -121.7,-55.1 -34.54,-24.65 -61.41,-56.45 -80.58,-95.38 -19.22,-38.93 -28.79,-85.8 -28.79,-140.61 0,-49.34 9.03,-93.75 27.12,-133.23 18.09,-39.47 43.86,-72.89 77.32,-100.3 33.43,-27.41 73.99,-48.25 121.7,-62.5 47.66,-14.24 100.59,-21.38 158.7,-21.38 1.09,0 14.54,1.08 40.27,3.29 25.78,2.18 56.19,9.03 91.28,20.56 35.09,11.49 71.56,29.33 109.37,53.43 37.85,24.14 69.89,58.66 96.21,103.64 3.3,6.56 6.6,14.79 9.86,24.65 3.3,9.86 4.97,19.72 4.97,29.62 0,20.81 -8.52,41.11 -25.52,60.83 -16.97,19.75 -39.73,29.61 -68.23,29.61 -14.28,0 -27.98,-3 -41.14,-9.06 -13.16,-6.02 -24.11,-13.95 -32.88,-23.81l1.63 1.63c-12.03,-14.25 -24.11,-27.95 -36.18,-41.11 -12.03,-13.16 -25.19,-24.69 -39.47,-34.55 -14.25,-9.86 -30.42,-17.83 -48.51,-23.85 -18.09,-6.02 -39.18,-9.03 -63.33,-9.03 -71.27,0 -122.23,13.71 -152.94,41.11 -30.7,27.41 -46.04,57.57 -46.04,90.45 0,23.01 5.22,42.48 15.63,58.4 10.4,15.87 24.65,28.78 42.74,38.64 18.09,9.86 39.47,17 64.16,21.39 24.65,4.38 50.72,6.56 78.12,6.56 57.02,0 111.29,7.68 162.8,23.02 51.55,15.37 96.75,37.84 135.69,67.42 38.93,29.62 69.64,66.63 92.11,111.04 22.48,44.4 33.71,95.66 33.71,153.77 0,60.29 -11.52,112.92 -34.54,157.87 -23.02,44.95 -54.02,82.22 -92.91,111.84 -38.94,29.58 -84.72,51.8 -137.36,66.59 -52.6,14.83 -108.53,22.22 -167.73,22.22 -12.07,0 -34.55,-1.92 -67.42,-5.76 -32.92,-3.85 -69.9,-14.25 -111,-31.25 -41.15,-17 -82.26,-43.03 -123.36,-78.12 -41.11,-35.09 -75.37,-83.88 -102.81,-146.38 -7.65,-14.25 -10.95,-29.87 -9.86,-46.87 1.09,-17 5.22,-32.34 12.32,-46.04 7.15,-13.7 17.3,-25.23 30.45,-34.55 13.16,-9.31 28.5,-13.95 46.04,-13.95 25.23,0 46.87,7.93 64.96,23.81 18.09,15.92 31.54,35.93 40.31,60.03zm743.36 -407.85c0,-54.81 9.57,-106.36 28.78,-154.61 19.18,-48.21 45.75,-90.45 79.75,-126.62 34.01,-36.18 74.28,-64.96 120.9,-86.35 46.58,-21.35 97.84,-32.05 153.77,-32.05 59.2,0 111.55,10.95 157.04,32.88 45.5,21.93 84.14,50.43 115.97,85.52 33.96,-32.88 73.99,-60.83 120.02,-83.89 46.08,-23.02 97.05,-34.51 152.98,-34.51 54.81,0 105.78,10.7 152.94,32.05 47.13,21.39 87.98,50.17 122.53,86.35 34.55,36.17 61.41,78.41 80.58,126.62 19.18,48.25 28.79,99.8 28.79,154.61l0 601.94c0,25.19 -8.78,46.58 -26.32,64.13 -17.55,17.54 -38.39,26.31 -62.5,26.31 -25.23,0 -46.58,-8.77 -64.12,-26.31 -17.55,-17.55 -26.32,-38.94 -26.32,-64.13l0 -601.94c0,-29.62 -4.93,-57.82 -14.83,-84.68 -9.86,-26.86 -23.81,-50.17 -41.94,-69.93 -18.09,-19.72 -39.73,-35.34 -64.96,-46.87 -25.2,-11.49 -53.14,-17.26 -83.85,-17.26 -29.62,0 -55.64,5.77 -78.12,17.26 -22.47,11.53 -41.4,27.15 -56.73,46.87 -15.37,19.76 -27.15,43.07 -35.38,69.93 -8.23,26.86 -12.33,55.06 -12.33,84.68l0 608.5c0,25.23 -8.77,46.62 -26.31,64.16 -17.55,17.55 -38.94,26.29 -64.13,26.29 -25.23,0 -46.33,-8.74 -63.33,-26.29 -17,-17.54 -25.49,-38.93 -25.49,-64.16l0 -610.13c0,-29.62 -4.38,-57.57 -13.16,-83.89 -8.77,-26.31 -20.84,-49.33 -36.17,-69.09 -15.37,-19.72 -34.55,-35.34 -57.57,-46.87 -23.02,-11.49 -48.79,-17.26 -77.29,-17.26 -29.61,0 -57.02,5.77 -82.25,17.26 -25.23,11.53 -46.87,27.15 -64.96,46.87 -18.09,19.76 -32.08,43.07 -41.94,69.93 -9.86,26.86 -14.79,55.06 -14.79,84.68l0 608.5c0,25.23 -8.77,46.62 -26.32,64.16 -17.54,17.55 -38.93,26.29 -64.13,26.29 -25.23,0 -46.33,-8.74 -63.33,-26.29 -17,-17.54 -25.48,-38.93 -25.48,-64.16l0 -608.5zm1777.84 -345.36c17.54,-36.18 44.95,-54.27 82.21,-54.27 18.67,0 35.38,5.48 50.18,16.42 14.79,10.99 25.48,23.6 32.08,37.85l391.39 920.98c5.51,13.16 8.23,24.65 8.23,34.55 0,20.81 -7.94,40.82 -23.85,60.03 -15.88,19.18 -37.55,28.75 -64.96,28.75 -40.56,0 -67.97,-18.09 -82.22,-54.27l-101.97 -243.39 -416.08 0c-17.55,40.57 -34.8,81.13 -51.81,121.7 -17,40.56 -33.71,81.12 -50.17,121.69 -8.77,18.63 -20.26,32.37 -34.54,41.14 -14.25,8.74 -30.13,13.13 -47.67,13.13 -27.41,0 -49.09,-9.57 -64.96,-28.75 -15.92,-19.21 -23.86,-39.22 -23.86,-60.03 0,-5.51 0.55,-11.53 1.63,-18.09 1.13,-6.6 2.76,-12.07 4.93,-16.46l391.44 -920.98zm82.21 261.47c-12.03,26.32 -23.27,51.81 -33.71,76.49 -10.4,24.65 -21.1,49.05 -32.04,73.19 -10.99,24.11 -21.94,48.8 -32.92,73.99 -10.95,25.23 -22.48,52.09 -34.51,80.59l264.77 0 -131.59 -304.26zm564.14 -218.73c0,-25.2 8.77,-46.58 26.31,-64.13 17.55,-17.54 38.9,-26.32 64.13,-26.32l310.85 0c54.81,0 106.61,10.41 155.41,31.25 48.79,20.85 91.28,49.09 127.45,84.72 36.18,35.63 64.68,77.29 85.52,124.99 20.84,47.67 31.25,98.93 31.25,153.74 0,73.48 -16.46,139.53 -49.34,198.18 -32.88,58.65 -78.95,104.98 -138.15,138.99 28.53,35.09 58.4,70.72 89.65,106.9 31.24,36.18 61.12,70.72 89.61,103.6 14.24,17.55 21.39,37.27 21.39,59.2 0,25.23 -8.78,46.87 -26.32,64.96 -17.55,18.09 -38.93,27.15 -64.13,27.15 -25.23,0 -47.7,-9.86 -67.43,-29.61l-210.5 -251.62 0 1.63c-6.6,-6.56 -13.45,-12.03 -20.56,-16.42 -7.14,-4.39 -14.53,-6.6 -22.22,-6.6l-223.66 0 0 210.51c0,25.23 -8.78,46.62 -26.32,64.16 -17.55,17.55 -38.36,26.29 -62.5,26.29 -25.23,0 -46.58,-8.74 -64.13,-26.29 -17.54,-17.54 -26.31,-38.93 -26.31,-64.16l0 -911.12zm179.26 88.81l0 430.91 222.03 0c29.58,0 57.82,-5.51 84.68,-16.45 26.86,-10.95 50.43,-26.32 70.73,-46.04 20.26,-19.76 36.17,-42.78 47.7,-69.1 11.49,-26.31 17.26,-54.26 17.26,-83.88 0,-29.58 -5.77,-57.53 -17.26,-83.85 -11.53,-26.32 -27.15,-49.08 -46.87,-68.26 -19.76,-19.17 -43.03,-34.54 -69.93,-46.04 -26.86,-11.52 -55.61,-17.29 -86.31,-17.29l-222.03 0zm697.31 0c-25.23,0 -46.33,-8.48 -63.33,-25.48 -16.96,-17 -25.48,-38.1 -25.48,-63.33 0,-25.2 8.52,-46.58 25.48,-64.13 17,-17.54 38.1,-26.32 63.33,-26.32l621.66 0c25.23,0 46.62,8.78 64.13,26.32 17.55,17.55 26.32,38.93 26.32,64.13 0,24.14 -8.77,44.95 -26.32,62.49 -17.51,17.55 -38.9,26.32 -64.13,26.32l-220.36 0 0 822.31c0,25.23 -8.78,46.62 -26.32,64.16 -17.55,17.55 -38.93,26.29 -64.13,26.29 -24.14,0 -45.24,-8.74 -63.33,-26.29 -18.09,-17.54 -27.15,-38.93 -27.15,-64.16l0 -822.31 -220.37 0z"/>
    <path class="fil7" d="M7188.51 293.74c0,-25.2 8.77,-46.58 26.32,-64.13 17.54,-17.54 38.9,-26.32 64.13,-26.32l310.85 0c54.81,0 106.61,10.41 155.4,31.25 48.79,20.85 91.28,49.09 127.46,84.72 36.18,35.63 64.67,77.29 85.51,124.99 20.85,47.67 31.25,98.93 31.25,153.74 0,73.48 -16.46,139.53 -49.34,198.18 -32.87,58.65 -78.95,104.98 -138.15,138.99 28.53,35.09 58.4,70.72 89.65,106.9 31.25,36.18 61.12,70.72 89.61,103.6 14.25,17.55 21.39,37.27 21.39,59.2 0,25.23 -8.77,46.87 -26.32,64.96 -17.54,18.09 -38.93,27.15 -64.12,27.15 -25.23,0 -47.71,-9.86 -67.43,-29.61l-210.51 -251.62 0 1.63c-6.6,-6.56 -13.45,-12.03 -20.55,-16.42 -7.14,-4.39 -14.54,-6.6 -22.22,-6.6l-223.67 0 0 210.51c0,25.23 -8.77,46.62 -26.32,64.16 -17.54,17.55 -38.35,26.29 -62.49,26.29 -25.23,0 -46.59,-8.74 -64.13,-26.29 -17.55,-17.54 -26.32,-38.93 -26.32,-64.16l0 -911.12zm179.26 88.81l0 430.91 222.04 0c29.58,0 57.82,-5.51 84.68,-16.45 26.86,-10.95 50.42,-26.32 70.72,-46.04 20.27,-19.76 36.18,-42.78 47.71,-69.1 11.49,-26.31 17.25,-54.26 17.25,-83.88 0,-29.58 -5.76,-57.53 -17.25,-83.85 -11.53,-26.32 -27.15,-49.08 -46.87,-68.26 -19.76,-19.17 -43.03,-34.54 -69.93,-46.04 -26.86,-11.52 -55.61,-17.29 -86.31,-17.29l-222.04 0zm738.43 -88.81c0,-25.2 8.77,-46.58 26.31,-64.13 17.55,-17.54 38.9,-26.32 64.13,-26.32 24.14,0 45.24,8.78 63.33,26.32 18.09,17.55 27.12,38.93 27.12,64.13l0 911.12c0,25.23 -8.78,46.62 -26.32,64.16 -17.51,17.55 -38.9,26.29 -64.13,26.29 -24.11,0 -45.24,-8.74 -63.33,-26.29 -18.09,-17.54 -27.11,-38.93 -27.11,-64.16l0 -911.12zm284.49 274.67c0,-54.81 10.69,-106.65 32.08,-155.41 21.39,-48.79 50.17,-91.28 86.35,-127.45 36.18,-36.22 78.66,-64.71 127.46,-85.55 48.79,-20.81 100.59,-31.25 155.4,-31.25 54.82,0 106.62,10.44 155.41,31.25 48.79,20.84 91.28,49.33 127.46,85.55 36.18,36.17 64.96,78.66 86.35,127.45 21.38,48.76 32.08,100.6 32.08,155.41l0 355.22c0,54.85 -10.7,106.36 -32.08,154.61 -21.39,48.25 -50.17,90.44 -86.35,126.62 -36.18,36.18 -78.67,64.96 -127.46,86.35 -48.79,21.39 -100.59,32.08 -155.41,32.08 -54.81,0 -106.61,-10.69 -155.4,-32.08 -48.8,-21.39 -91.28,-50.17 -127.46,-86.35 -36.18,-36.18 -64.96,-78.37 -86.35,-126.62 -21.39,-48.25 -32.08,-99.76 -32.08,-154.61l0 -355.22zm180.93 355.22c0,29.62 5.76,57.85 17.25,84.72 11.53,26.86 27.41,50.13 47.71,69.89 20.26,19.72 43.86,35.34 70.72,46.87 26.86,11.49 55.07,17.25 84.68,17.25 30.71,0 59.49,-5.76 86.35,-17.25 26.86,-11.53 50.17,-27.15 69.89,-46.87 19.72,-19.76 35.35,-43.03 46.88,-69.89 11.52,-26.87 17.25,-55.1 17.25,-84.72l0 -355.22c0,-29.62 -5.73,-57.86 -17.25,-84.72 -11.53,-26.86 -27.41,-50.13 -47.71,-69.89 -20.26,-19.72 -43.83,-35.34 -70.69,-46.87 -26.86,-11.49 -55.1,-17.26 -84.72,-17.26 -30.7,0 -59.48,5.77 -86.34,17.26 -26.87,11.53 -50.14,27.15 -69.9,46.87 -19.72,19.76 -35.34,43.03 -46.87,69.89 -11.49,26.86 -17.25,55.1 -17.25,84.72l0 355.22z"/>
   </g>
   <path class="fil6" d="M2026.57 1660.09c-19.29,0 -35.45,-6.48 -48.47,-19.5 -12.98,-13.01 -19.5,-29.14 -19.5,-48.47 0,-19.28 6.52,-35.67 19.5,-49.08 13.02,-13.41 29.18,-20.15 48.47,-20.15l475.79 0c19.28,0 35.67,6.74 49.08,20.15 13.45,13.41 20.16,29.8 20.16,49.08 0,18.46 -6.71,34.41 -20.16,47.86 -13.41,13.41 -29.8,20.11 -49.08,20.11l-168.68 0 0 629.35c0,19.32 -6.7,35.67 -20.11,49.08 -13.45,13.45 -29.8,20.16 -49.09,20.16 -18.49,0 -34.62,-6.71 -48.47,-20.16 -13.84,-13.41 -20.77,-29.76 -20.77,-49.08l0 -629.35 -168.67 0zm597.88 142.25c0,-41.98 8.19,-81.6 24.54,-118.94 16.39,-37.37 38.39,-69.89 66.09,-97.55 27.69,-27.69 60.21,-49.51 97.55,-65.47 37.34,-15.95 76.99,-23.92 118.94,-23.92 41.97,0 81.63,7.97 118.97,23.92 37.34,15.96 69.86,37.78 97.55,65.47 27.66,27.66 49.7,60.18 66.05,97.55 16.38,37.34 24.58,76.96 24.58,118.94l0 271.88c0,41.94 -8.2,81.38 -24.58,118.32 -16.35,36.91 -38.39,69.2 -66.05,96.9 -27.69,27.7 -60.21,49.74 -97.55,66.08 -37.34,16.35 -77,24.55 -118.97,24.55 -41.95,0 -81.6,-8.2 -118.94,-24.55 -37.34,-16.34 -69.86,-38.38 -97.55,-66.08 -27.7,-27.7 -49.7,-59.99 -66.09,-96.9 -16.35,-36.94 -24.54,-76.38 -24.54,-118.32l0 -271.88zm138.48 271.88c0,22.66 4.38,44.26 13.19,64.82 8.81,20.55 20.99,38.39 36.51,53.5 15.51,15.08 33.57,27.05 54.12,35.85 20.55,8.81 42.16,13.24 64.82,13.24 23.52,0 45.53,-4.43 66.08,-13.24 20.55,-8.8 38.39,-20.77 53.51,-35.85 15.11,-15.11 27.04,-32.95 35.88,-53.5 8.81,-20.56 13.2,-42.16 13.2,-64.82l0 -271.88c0,-22.66 -4.39,-44.26 -13.2,-64.81 -8.84,-20.59 -20.98,-38.39 -36.5,-53.51 -15.55,-15.12 -33.57,-27.08 -54.12,-35.89 -20.59,-8.81 -42.2,-13.19 -64.85,-13.19 -23.49,0 -45.5,4.38 -66.09,13.19 -20.55,8.81 -38.39,20.77 -53.47,35.89 -15.12,15.12 -27.08,32.92 -35.89,53.51 -8.81,20.55 -13.19,42.15 -13.19,64.81l0 271.88zm551.3 -487.13c0,-19.29 6.7,-35.64 20.15,-49.09 13.42,-13.41 29.76,-20.12 49.09,-20.12 18.45,0 34.4,6.71 47.81,20.12 13.45,13.45 20.16,29.8 20.16,49.09l0 485.86c0,22.66 4.6,44.26 13.84,64.82 9.21,20.55 21.61,38.39 37.12,53.5 15.52,15.12 33.57,27.05 54.13,35.86 20.55,8.8 42.16,13.23 64.81,13.23 23.49,0 45.53,-4.43 66.09,-13.23 20.55,-8.81 38.39,-20.74 53.5,-35.86 15.12,-15.11 27.05,-32.95 35.85,-53.5 8.81,-20.56 13.24,-42.16 13.24,-64.82l0 -485.86c0,-19.29 6.7,-35.64 20.15,-49.09 13.41,-13.41 29.76,-20.12 49.09,-20.12 18.45,0 34.4,6.71 47.81,20.12 13.45,13.45 20.15,29.8 20.15,49.09l0 485.86c0,41.94 -7.97,81.38 -23.92,118.32 -15.95,36.91 -37.77,69.24 -65.47,96.9 -27.66,27.7 -60.18,49.74 -97.51,66.09 -37.38,16.38 -77,24.54 -118.98,24.54 -41.94,0 -81.6,-8.16 -118.94,-24.54 -37.33,-16.35 -69.85,-38.39 -97.55,-66.09 -27.69,-27.66 -49.7,-59.99 -66.08,-96.9 -16.35,-36.94 -24.54,-76.38 -24.54,-118.32l0 -485.86zm697.31 5.03c0,-19.28 6.71,-35.67 20.16,-49.08 13.41,-13.41 29.8,-20.15 49.08,-20.15l237.88 0c41.98,0 81.64,7.97 118.97,23.92 37.34,15.95 69.86,37.56 97.55,64.82 27.7,27.29 49.49,59.16 65.44,95.66 15.95,36.51 23.92,75.73 23.92,117.71 0,56.22 -12.58,106.76 -37.77,151.67 -25.16,44.88 -60.39,80.33 -105.71,106.36 21.79,26.86 44.66,54.12 68.59,81.82 23.92,27.69 46.76,54.12 68.58,79.28 10.92,13.45 16.39,28.53 16.39,45.31 0,19.32 -6.74,35.89 -20.16,49.74 -13.41,13.84 -29.79,20.77 -49.08,20.77 -19.28,0 -36.5,-7.58 -51.62,-22.66l-161.1 -192.6 0 1.27c-5.04,-5.04 -10.29,-9.24 -15.73,-12.58 -5.47,-3.37 -11.13,-5.04 -17,-5.04l-171.18 0 0 161.1c0,19.32 -6.7,35.67 -20.15,49.08 -13.42,13.45 -29.37,20.16 -47.82,20.16 -19.28,0 -35.67,-6.71 -49.08,-20.16 -13.45,-13.41 -20.16,-29.76 -20.16,-49.08l0 -697.32zm137.21 67.97l0 329.78 169.91 0c22.66,0 44.26,-4.17 64.85,-12.58 20.56,-8.38 38.57,-20.12 54.12,-35.24 15.52,-15.12 27.7,-32.73 36.51,-52.85 8.81,-20.16 13.19,-41.55 13.19,-64.2 0,-22.66 -4.38,-44.08 -13.19,-64.2 -8.81,-20.16 -20.77,-37.56 -35.89,-52.24 -15.12,-14.68 -32.95,-26.43 -53.51,-35.23 -20.55,-8.81 -42.55,-13.24 -66.08,-13.24l-169.91 0z"/>
   <path class="fil8" d="M4923.39 1525.31l16.64 0 116.33 282.18 116.65 -282.18 16.57 0 -124.63 298.82 -17.11 0 -124.45 -298.82zm314.8 298.82l0 -298.82 14.32 0 0 298.82 -14.32 0zm62.93 0l124.45 -298.82 17.11 0 124.63 298.82 -16.57 0 -33.31 -80.19 -166.68 0 -32.99 80.19 -16.64 0zm55.1 -93.64l155.99 0 -78.12 -188.54 -77.87 188.54zm243.21 7.33c-7.87,-19.43 -11.75,-40.42 -11.75,-62.9 0,-22.47 3.88,-43.43 11.75,-62.79 7.76,-19.39 18.34,-35.77 31.72,-49.04 13.3,-13.31 29.11,-23.75 47.41,-31.36 18.31,-7.54 37.78,-11.35 58.33,-11.35 42.99,0 79.46,15.3 109.3,45.97l-9.32 9.86c-11.64,-13.27 -26.28,-23.67 -43.83,-31.14 -17.61,-7.54 -36.28,-11.27 -56.15,-11.27 -18.52,0 -36,3.44 -52.42,10.33 -16.42,6.78 -30.56,16.35 -42.48,28.49 -11.89,12.18 -21.28,27.04 -28.24,44.74 -6.93,17.61 -10.37,36.83 -10.37,57.49 0,20.48 3.44,39.51 10.37,57.27 6.96,17.69 16.35,32.7 28.24,44.95 11.92,12.26 26.06,21.9 42.48,28.9 16.42,7.03 33.9,10.55 52.42,10.55 20.01,0 38.25,-3.96 54.74,-11.97 16.42,-7.9 29.87,-17.4 40.24,-28.27l0 -82.07 -123.22 0 0 -13.45 137.54 0 0 101.17c-13.27,14.87 -29.33,26.57 -48.29,35.17 -18.96,8.59 -39.29,12.86 -61.01,12.86 -20.55,0 -40.02,-3.8 -58.33,-11.52 -18.3,-7.62 -34.11,-18.13 -47.41,-31.43 -13.38,-13.34 -23.96,-29.73 -31.72,-49.19zm315.56 86.31l0 -298.82 182.78 0 0 13.42 -168.46 0 0 124.99 164.87 0 0 13.45 -164.87 0 0 133.51 168.46 0 0 13.45 -182.78 0zm249.84 0l0 -298.82 14.32 0 201.62 272.75 0 -272.75 14.32 0 0 298.82 -14.32 0 -201.62 -275.61 0 275.61 -14.32 0zm293.38 -42.2l11.63 -10.29c10.48,12.69 23.6,23.31 39.37,31.72 15.66,8.44 33.53,12.72 53.33,12.72 16.34,0 30.52,-2.17 42.41,-6.45 11.93,-4.32 20.88,-10.01 26.93,-16.93 6.13,-7.03 10.48,-14.1 13.23,-21.43 2.69,-7.25 4.03,-14.86 4.03,-22.72 0,-10.52 -2.1,-19.76 -6.27,-27.77 -4.1,-7.98 -9.72,-14.47 -16.71,-19.4 -7.04,-5 -15.01,-9.35 -24.08,-13.16 -9.09,-3.8 -18.66,-7.1 -28.74,-10 -10.08,-2.9 -20.08,-5.76 -30.02,-8.66 -10,-2.83 -19.46,-6.2 -28.53,-10.15 -9.02,-3.96 -17.07,-8.52 -24.1,-13.67 -7.04,-5.22 -12.62,-11.96 -16.71,-20.23 -4.21,-8.37 -6.28,-18.02 -6.28,-28.89 0,-15.62 4.39,-29.29 13.2,-41.07 8.81,-11.82 20.23,-20.63 34.29,-26.43 14.1,-5.84 29.4,-8.74 45.97,-8.74 41.83,0 74.09,14.03 96.93,42.09l-11.13 10.33c-20.08,-25.99 -48.61,-39 -85.8,-39 -22.01,0 -40.6,5.98 -55.68,17.87 -15.01,11.93 -22.55,27.08 -22.55,45.53 0,11.56 3.33,21.42 10.08,29.44 6.7,8.04 15.37,14.31 26.06,18.88 10.66,4.57 22.4,8.81 35.16,12.76 12.84,3.95 25.78,8.01 38.76,12.04 12.97,4.02 24.86,9.02 35.52,14.93 10.77,5.87 19.43,14.18 26.21,24.87 6.74,10.73 10.11,23.49 10.11,38.35 0,7.25 -0.9,14.43 -2.79,21.39 -1.77,7 -5.14,14.18 -10.07,21.5 -4.86,7.39 -11.06,13.81 -18.46,19.32 -7.46,5.55 -17.29,10.08 -29.47,13.59 -12.18,3.52 -26.06,5.22 -41.5,5.22 -22.33,0 -42.42,-4.31 -60.36,-12.97 -17.91,-8.67 -32.55,-20.16 -43.97,-34.59zm371.24 -32.62c0,-9.32 1.27,-17.98 3.81,-26.14 2.53,-8.05 5.76,-15.08 9.71,-21.13 3.88,-5.99 9.03,-11.79 15.3,-17.55 6.34,-5.84 12.4,-10.58 18.16,-14.46 5.8,-3.92 12.61,-8.09 20.44,-12.58 -17.18,-27.01 -25.77,-50.1 -25.77,-69.35 0,-19.43 6.49,-35.56 19.5,-48.25 12.91,-12.69 28.68,-19.03 47.2,-19.03 18.13,0 32.41,4.71 42.78,14.1 10.37,9.5 15.51,22.95 15.51,40.49 0,5.95 -0.72,11.64 -2.28,17 -1.52,5.48 -3.44,10.34 -5.84,14.58 -2.32,4.31 -5.54,8.59 -9.57,12.9 -3.95,4.35 -7.83,8.01 -11.56,11.06 -3.74,3.08 -8.45,6.42 -14.03,10.08 -5.69,3.66 -10.62,6.74 -14.86,9.2 -4.21,2.47 -9.57,5.44 -15.99,8.96 -1.96,1.05 -3.37,1.77 -4.42,2.39 10.84,15.73 24.79,32.92 42.05,51.44 15.69,17.47 30.7,33.31 44.8,47.49 12.98,-19.72 24.8,-45.24 35.46,-76.6l14.21 5.44c-0.47,1.19 -1.74,4.57 -3.81,10.22 -2.1,5.62 -3.66,9.57 -4.64,11.82 -0.91,2.21 -2.46,5.94 -4.57,11.27 -2.06,5.22 -3.95,9.46 -5.58,12.76 -1.56,3.3 -3.52,7.18 -5.69,11.71 -2.14,4.57 -4.46,8.81 -6.85,12.8 -2.47,4.02 -4.86,7.9 -7.32,11.71 18.66,18.23 37.7,35.7 57.27,52.49l-23.6 0c-11.27,-9.64 -25.63,-22.84 -43.1,-39.8 -23.96,30.08 -53.58,45.16 -89.07,45.16 -25.16,0 -46.07,-6.99 -62.71,-21.06 -16.64,-14.1 -24.94,-33.75 -24.94,-59.12zm15.66 0c0,10.84 1.96,20.55 5.91,29.11 3.88,8.59 9.28,15.62 16.06,20.99 6.7,5.47 14.35,9.57 22.83,12.39 8.52,2.83 17.62,4.28 27.19,4.28 29.44,0 55.5,-14.28 78.12,-42.88 -22.8,-23.2 -38.53,-40.02 -47.2,-50.32 -17.54,-19.57 -32.11,-37.48 -43.68,-53.83 -8.81,5.07 -16.42,10.08 -22.69,14.86 -6.34,4.86 -12.47,10.44 -18.45,16.93 -5.98,6.49 -10.44,13.81 -13.52,21.9 -3.05,8.12 -4.57,16.92 -4.57,26.57zm41.22 -161.21c0,17.04 7.86,37.63 23.52,61.66 7.18,-3.8 12.33,-6.56 15.55,-8.26 3.12,-1.81 7.76,-4.5 13.96,-8.23 6.13,-3.73 10.69,-6.78 13.59,-9.17 2.9,-2.39 6.49,-5.69 10.73,-9.79 4.28,-4.02 7.33,-7.9 9.28,-11.42 1.85,-3.59 3.67,-7.79 5.15,-12.47 1.56,-4.78 2.32,-9.79 2.32,-15.01 0,-13.3 -3.88,-23.45 -11.74,-30.56 -7.83,-7.06 -18.13,-10.58 -30.89,-10.58 -14.21,0 -26.35,5.07 -36.36,15.22 -10.11,10.08 -15.11,22.99 -15.11,38.61zm-1955.33 480.72l0 -13.41 215.95 0 0 13.41 -101.25 0 0 285.4 -13.92 0 0 -285.4 -100.78 0zm272.72 172.04l0 -185.45 14.32 0 0 185.53c0,33.38 8.3,59.3 24.94,77.65 16.64,18.37 40.63,27.58 71.85,27.58 31.21,0 55.17,-9.21 71.81,-27.58 16.67,-18.35 24.94,-44.27 24.94,-77.65l0 -185.53 14.35 0 0 185.45c0,37.41 -9.57,66.63 -28.6,87.44 -19.14,20.84 -46.62,31.28 -82.5,31.28 -35.93,0 -63.41,-10.44 -82.51,-31.35 -19.07,-20.92 -28.6,-50.1 -28.6,-87.37zm300.99 113.36l0 -298.81 102.95 0c25.23,0 46.22,7.54 63.11,22.54 16.78,15.08 25.23,35.75 25.23,62.1 0,26.39 -8.45,47.13 -25.23,62.35 -16.89,15.19 -37.88,22.8 -63.11,22.8l92.36 129.02 -18.37 0 -91.1 -129.02 -71.52 0 0 129.02 -14.32 0zm14.32 -142.46l88.63 0c21.75,0 39.29,-6.75 52.63,-20.23 13.38,-13.45 20.01,-30.63 20.01,-51.48 0,-20.81 -6.63,-37.92 -20.01,-51.22 -13.34,-13.34 -30.88,-20.01 -52.63,-20.01l-88.63 0 0 142.94zm244.94 142.46l0 -298.81 14.32 0 0 298.81 -14.32 0zm77.18 -42.2l11.63 -10.29c10.48,12.69 23.6,23.31 39.37,31.72 15.66,8.44 33.53,12.72 53.33,12.72 16.35,0 30.52,-2.17 42.41,-6.45 11.93,-4.31 20.88,-10.01 26.94,-16.93 6.12,-7.03 10.47,-14.1 13.23,-21.42 2.68,-7.25 4.02,-14.87 4.02,-22.73 0,-10.52 -2.1,-19.76 -6.27,-27.77 -4.1,-7.98 -9.72,-14.46 -16.71,-19.39 -7.04,-5.01 -15.01,-9.36 -24.07,-13.16 -9.1,-3.81 -18.67,-7.11 -28.75,-10.01 -10.08,-2.9 -20.08,-5.76 -30.02,-8.66 -10,-2.83 -19.46,-6.2 -28.52,-10.15 -9.03,-3.95 -17.08,-8.52 -24.11,-13.67 -7.03,-5.22 -12.62,-11.96 -16.71,-20.23 -4.21,-8.37 -6.27,-18.01 -6.27,-28.89 0,-15.62 4.38,-29.29 13.19,-41.07 8.81,-11.82 20.23,-20.63 34.29,-26.43 14.11,-5.83 29.4,-8.73 45.97,-8.73 41.83,0 74.1,14.03 96.93,42.08l-11.12 10.33c-20.09,-25.99 -48.62,-39 -85.81,-39 -22,0 -40.6,5.98 -55.68,17.87 -15.01,11.93 -22.55,27.08 -22.55,45.53 0,11.57 3.34,21.43 10.08,29.44 6.71,8.04 15.37,14.32 26.06,18.88 10.66,4.57 22.41,8.81 35.17,12.76 12.83,3.95 25.77,8.01 38.75,12.04 12.98,4.02 24.87,9.03 35.52,14.93 10.77,5.88 19.43,14.18 26.21,24.87 6.75,10.73 10.12,23.49 10.12,38.35 0,7.26 -0.91,14.43 -2.79,21.39 -1.78,7 -5.15,14.18 -10.08,21.5 -4.86,7.39 -11.06,13.81 -18.45,19.32 -7.47,5.55 -17.3,10.08 -29.48,13.59 -12.18,3.52 -26.06,5.22 -41.5,5.22 -22.33,0 -42.42,-4.31 -60.36,-12.97 -17.91,-8.67 -32.55,-20.16 -43.97,-34.59zm273.22 42.2l0 -298.81 22.84 0 110.13 267.53 110.31 -267.53 22.83 0 0 298.81 -14.35 0 0 -281.74 -116.4 281.74 -4.64 0 -116.4 -281.74 0 281.74 -14.32 0zm351.59 -70.94c-11.42,-23.31 -17.18,-49.34 -17.18,-78.27 0,-28.89 5.76,-54.95 17.18,-78.3 11.42,-23.31 28.03,-41.83 49.74,-55.57 21.71,-13.81 46.73,-20.66 75.04,-20.66 28.09,0 53.11,6.85 74.89,20.66 21.75,13.74 38.39,32.33 49.96,55.72 11.49,23.38 17.25,49.41 17.25,78.15 0,28.75 -5.76,54.81 -17.25,78.19 -11.57,23.39 -28.21,41.98 -49.96,55.72 -21.78,13.81 -46.8,20.66 -74.89,20.66 -28.31,0 -53.33,-6.85 -75.04,-20.66 -21.71,-13.74 -38.32,-32.26 -49.74,-55.64zm-1.48 -78.27c0,26.97 5.07,51.15 15.22,72.43 10.08,21.32 24.8,38.1 44.05,50.35 19.28,12.26 41.61,18.38 66.99,18.38 25.08,0 47.2,-6.12 66.45,-18.38 19.28,-12.25 34.07,-29.03 44.44,-50.35 10.37,-21.28 15.51,-45.46 15.51,-72.43 0,-27.22 -5.14,-51.58 -15.51,-72.86 -10.37,-21.28 -25.16,-37.99 -44.44,-50.1 -19.25,-12.11 -41.37,-18.16 -66.45,-18.16 -25.38,0 -47.71,6.05 -66.99,18.16 -19.25,12.11 -33.97,28.82 -44.05,50.1 -10.15,21.28 -15.22,45.64 -15.22,72.86z"/>
  </g>
 </g>
</svg>
