<?xml version="1.0" encoding="UTF-8"?>
<!DOCTYPE svg PUBLIC "-//W3C//DTD SVG 1.1//EN" "http://www.w3.org/Graphics/SVG/1.1/DTD/svg11.dtd">
<!-- Creator: CorelDRAW 2017 -->
<svg xmlns="http://www.w3.org/2000/svg" xml:space="preserve" width="200px" height="163px" version="1.1" style="shape-rendering:geometricPrecision; text-rendering:geometricPrecision; image-rendering:optimizeQuality; fill-rule:evenodd; clip-rule:evenodd"
viewBox="0 0 200 163"
 xmlns:xlink="http://www.w3.org/1999/xlink">
 <defs>
  <style type="text/css">
   <![CDATA[
    .fil0 {fill:#2D3038;fill-rule:nonzero}
    .fil2 {fill:#2D3038;fill-rule:nonzero}
    .fil1 {fill:#3D424F;fill-rule:nonzero}
   ]]>
  </style>
 </defs>
 <g id="Camada_x0020_1">
  <metadata id="CorelCorpID_0Corel-Layer"/>
  <g id="_1662931038448">
   <path class="fil0" d="M181.95 12.41c-32.1,-11.87 -84.3,-12.53 -84.3,-12.53 0,0 -47.5,0.66 -79.6,12.53 0,0 -26.75,71.84 -15.12,102.86 11.62,31.03 9.05,-8.45 97.07,-8.45 88.02,0 85.45,39.48 97.07,8.45 11.63,-31.02 -15.12,-102.86 -15.12,-102.86z"/>
   <path class="fil1" d="M136.49 49.98c-0.03,-1.44 -0.14,-2.85 -0.33,-4.22l9.49 -4.91c2.09,3.72 6.77,5.15 10.59,3.17 3.91,-2.02 5.44,-6.83 3.42,-10.74 -1.37,-2.65 -4.02,-4.2 -6.8,-4.3 1.53,-2.33 1.79,-5.39 0.42,-8.04 -2.02,-3.91 -6.83,-5.44 -10.74,-3.42 -3.82,1.98 -5.36,6.62 -3.54,10.48l-8.02 4.15c-6.55,-9.58 -18.28,-15.12 -31.57,-14.88 -12.64,0.22 -23.68,5.61 -30.08,14.57l-7.42 -3.84c1.82,-3.86 0.29,-8.5 -3.54,-10.48 -3.91,-2.02 -8.72,-0.49 -10.74,3.42 -1.37,2.65 -1.1,5.71 0.42,8.04 -2.78,0.1 -5.43,1.65 -6.8,4.3 -2.02,3.91 -0.49,8.72 3.42,10.74 3.82,1.98 8.5,0.55 10.6,-3.17l8.64 4.47c-0.3,1.91 -0.43,3.9 -0.4,5.95 0.09,5.05 1.2,9.83 3.13,14.16l-11.37 5.88c-2.1,-3.72 -6.78,-5.14 -10.6,-3.16 -3.91,2.02 -5.44,6.83 -3.42,10.74 1.37,2.65 4.02,4.2 6.8,4.3 -1.52,2.32 -1.79,5.38 -0.42,8.03 2.02,3.91 6.83,5.44 10.74,3.42 3.83,-1.98 5.36,-6.62 3.54,-10.48l13.24 -6.85c1.33,1.24 2.75,2.38 4.25,3.41l0.09 5.35c0.04,2.26 1.07,3.28 2.65,3.76l0.11 6.49c0.03,1.41 1.2,2.54 2.61,2.52l3.7 -0.07c1.4,-0.02 2.54,-1.19 2.51,-2.6l-0.11 -6.04 0.46 -0.01 0.1 6.04c0.03,1.41 1.2,2.54 2.61,2.52l3.7 -0.07c1.4,-0.02 2.54,-1.2 2.51,-2.61l-0.1 -6.03 0.45 -0.01 0.1 6.04c0.03,1.41 1.2,2.54 2.61,2.51l3.7 -0.06c1.41,-0.03 2.54,-1.2 2.51,-2.61l-0.1 -6.03 0.45 -0.01 0.1 6.03c0.03,1.41 1.2,2.54 2.61,2.52l3.7 -0.07c1.4,-0.02 2.54,-1.19 2.51,-2.6l-0.11 -6.37c1.83,-0.47 3.02,-1.51 2.97,-3.99l-0.09 -5.35c1.24,-0.91 2.41,-1.9 3.52,-2.96l13.83 7.15c-1.82,3.86 -0.28,8.5 3.54,10.48 3.91,2.02 8.72,0.49 10.74,-3.42 1.37,-2.65 1.11,-5.71 -0.42,-8.03 2.78,-0.1 5.43,-1.65 6.8,-4.3 2.02,-3.91 0.49,-8.72 -3.42,-10.74 -3.82,-1.98 -8.5,-0.56 -10.59,3.16l-12.13 -6.27c2,-4.61 3.06,-9.7 2.97,-15.06z"/>
   <path class="fil2" d="M95.18 61.13c-0.18,0.47 -0.15,2.18 -0.47,3.28 -0.21,0.52 -0.47,1.02 -0.78,1.49 -1.51,2.34 -4.11,3.91 -7.09,3.96 -4.77,0.09 -8.71,-3.74 -8.79,-8.54 -0.06,-3.61 2.06,-6.74 5.13,-8.11 0.52,-0.23 1.05,-0.41 1.61,-0.54 4.07,-0.35 7.56,3.85 9.92,6.99 0.23,0.45 0.39,0.94 0.47,1.47z"/>
   <path class="fil2" d="M105.19 60.96c0.19,0.46 0.22,2.16 0.59,3.25 0.22,0.52 0.5,1.01 0.82,1.47 1.59,2.28 4.25,3.76 7.23,3.71 4.77,-0.09 8.57,-4.05 8.49,-8.86 -0.07,-3.6 -2.3,-6.65 -5.42,-7.92 -0.52,-0.21 -1.07,-0.37 -1.63,-0.47 -4.08,-0.22 -7.42,4.11 -9.66,7.32 -0.22,0.46 -0.36,0.96 -0.42,1.5z"/>
   <path class="fil2" d="M96.63 77.73c-1.82,-1.75 1.91,-6.73 3.74,-6.76 1.84,-0.03 5.65,4.9 3.99,6.63 -2.58,0.77 -7.58,0.28 -7.73,0.13z"/>
   <path class="fil2" d="M46.05 122.88l0.24 0.02 0.19 -0.04 0.18 -0.03 0.24 0.03 0.06 0.02 0 0.06 -0.03 0.06 0 0.38 0.01 0.41 0 0.3 -0.01 0.29 -0.06 0.41 0 0.3 -0.01 0.3 -0.01 0.4 0 1 0.01 0.58 0.03 0.41 0.01 0.3 0.01 0.08 0.03 0.08 0.02 0.05 -0.05 0.04 -0.25 0.03 -0.35 -0.08 -0.26 0.01 -0.1 0.03 -0.08 0.03 -0.04 0.05 -0.04 0.1 -0.03 0.25 0.02 0.18 0.02 0.19 0.03 0.26 -0.01 0.27 -0.03 0.17 -0.01 0.18 0.04 0.25 0.03 0.1 0.04 0.05 0.06 0.04 0.1 0.03 0.3 0.03 0.2 -0.02 0.2 -0.02 1.02 0 0.79 0.02 0.21 0.03 0.59 0 0.41 -0.03 0.59 0.02 0.42 -0.02 0.3 0 0.26 -0.01 1 -0.16 0.49 -0.1 0.71 -0.24 0.43 -0.23 0.42 -0.28 0.38 -0.33 0.37 -0.35 0.17 -0.18 0.15 -0.2 0.21 -0.46 0.16 -0.49 0.08 -0.23 0.16 -0.47 0.08 -0.5 0.02 -0.5 0 -0.51 0.01 -0.25 -0.03 -0.48 -0.11 -0.5 -0.06 -0.25 -0.09 -0.23 -0.24 -0.43 -0.15 -0.19 -0.13 -0.2 -0.3 -0.41 -0.32 -0.35 -0.38 -0.31 -0.44 -0.26 -0.43 -0.19 -0.24 -0.09 -0.25 -0.07 -0.46 -0.16 -0.48 -0.12 -0.23 -0.03 -0.26 0 -0.5 0.01 -0.3 -0.01 -0.42 -0.04 -1 0 -0.3 0.01 -0.29 -0.01 -0.41 -0.02 -0.3 0 -0.51 0.03 -0.2 0.03 -0.3 0 -0.3 -0.02 -0.42 -0.05 -0.28 0.04 -0.1 0.03 -0.04 0.04 -0.02 0.07 -0.03 0.09 -0.04 0.26 0 0.35 0.01 0.26 0 0.27 -0.03 0.35 0.02 0.26 0.01 0.09 0.06 0.06 0.06 0.04 0.1 0.02zm3.6 5.05l0 -0.29 -0.02 -0.38 -0.01 -0.28 0 -1.22 -0.01 -0.39 -0.02 -0.27 0.02 -0.28 0.05 -0.38 0.01 -0.29 0 -0.28 0.02 -0.19 0 -0.47 -0.02 -0.07 -0.04 -0.05 -0.02 -0.03 0.04 -0.02 0.42 -0.05 0.29 -0.01 0.29 0.01 0.43 0.01 0.26 0 0.25 0.02 0.25 0.02 0.21 0.06 0.23 0.11 0.22 0.13 0.19 0.15 0.16 0.18 0.15 0.19 0.11 0.2 0.09 0.23 0.08 0.23 0.07 0.23 0.06 0.23 0.04 0.23 0.01 0.26 -0.01 0.25 -0.03 0.25 -0.04 0.25 -0.14 0.49 -0.09 0.23 -0.12 0.23 -0.15 0.2 -0.16 0.18 -0.19 0.18 -0.21 0.14 -0.24 0.13 -0.22 0.06 -0.24 0.04 -0.27 0.03 -0.99 0 -0.29 -0.01 -0.42 -0.03 -0.04 -0.01 0 -0.03 0.02 -0.05 0.02 -0.07zm7.44 -5.06l0.36 0.03 0.37 -0.03 0.16 -0.04 0.08 0.04 0 0.53 -0.07 0.51 0.04 0.52 0.04 0.52 -0.05 1.03 -0.01 0.51 0 1.03 -0.02 0.53 0.02 0.13 -0.06 0.07 -0.43 0 -0.42 -0.01 -0.18 0.07 -0.06 0.15 -0.02 0.44 0.06 0.45 -0.04 0.43 0.02 0.45 0.06 0.15 0.16 0.08 0.46 0.02 0.47 -0.02 0.94 0 0.46 -0.02 0.46 0 0.47 -0.02 0.46 -0.02 0.47 0.04 0.46 -0.02 0.15 -0.06 0.06 -0.15 0.05 -0.43 0 -0.43 0.01 -0.45 -0.04 -0.44 -0.07 -0.13 -0.17 -0.04 -0.47 -0.01 -0.47 -0.03 -0.02 -0.07 0.05 -0.13 0 -0.53 0.02 -0.51 -0.02 -0.53 -0.01 -0.51 0 -1.56 0.01 -0.53 -0.04 -0.51 0.06 -0.51 0.05 -0.03 0.11 0.05 0.38 0.02 0.36 -0.04 0.14 -0.07 0.04 -0.16 0.04 -0.44 -0.03 -0.43 0.03 -0.45 -0.04 -0.41 -0.04 -0.14 -0.15 -0.04 -0.46 -0.06 -0.92 0 -1.39 0.04 -0.48 -0.02 -0.46 -0.04 -0.47 0 -0.46 0.06 -0.16 0.05 -0.08 0.13 -0.02 0.43 0.06 0.45 -0.04 0.43 -0.02 0.44 0.08 0.17 0.17 0.07zm12.63 0.38l0.03 0.23 0 0.31 0.02 0.2 0.07 0.14 0.05 0.02 0.09 0.02 0.29 0.05 0.19 0.02 0.5 -0.02 0.27 0.02 0.41 0 0.28 -0.03 0.08 -0.04 0.06 -0.04 0.04 -0.06 0.04 -0.09 0.03 -0.25 -0.02 -0.18 -0.02 -0.21 -0.03 -0.27 0.03 -0.28 0.01 -0.19 0.01 -0.16 0 -0.27 -0.01 -0.07 -0.01 -0.03 -0.04 -0.01 -0.03 -0.04 -0.2 -0.19 -0.41 -0.33 -0.43 -0.29 -0.23 -0.13 -0.23 -0.13 -0.5 -0.19 -0.52 -0.11 -0.27 -0.03 -0.51 -0.08 -0.53 -0.04 -0.28 0.02 -0.26 0.02 -0.78 0.12 -0.28 0.03 -0.5 0.12 -0.48 0.21 -0.69 0.36 -0.22 0.15 -0.23 0.15 -0.19 0.16 -0.39 0.37 -0.35 0.38 -0.15 0.2 -0.14 0.23 -0.14 0.23 -0.11 0.24 -0.07 0.26 -0.1 0.51 -0.08 0.52 -0.04 0.52 0 0.56 0.02 0.26 0.06 0.5 0.03 0.27 0.1 0.52 0.05 0.26 0.11 0.24 0.28 0.44 0.15 0.21 0.14 0.22 0.16 0.22 0.35 0.36 0.39 0.35 0.45 0.3 0.49 0.22 0.5 0.19 0.5 0.1 0.52 0.09 0.52 0.02 0.54 0.02 0.47 -0.02 0.49 -0.02 0.49 -0.11 0.93 -0.29 0.45 -0.16 0.2 -0.12 0.42 -0.27 0.35 -0.34 0.31 -0.38 0.15 -0.25 0 -0.02 0.01 -0.03 0 -0.56 -0.01 -0.22 0 -1.43 0.01 -0.35 0.02 -0.22 0 -0.23 -0.04 -0.34 -0.02 -0.08 -0.04 -0.04 -0.07 -0.03 -0.08 -0.01 -0.33 -0.04 -1.1 -0.02 -0.45 -0.02 -0.34 0 -0.31 0.01 -0.44 0.03 -0.66 0 -0.44 -0.02 -0.32 0.05 -0.1 0.01 -0.05 0.04 -0.04 0.04 -0.03 0.08 -0.04 0.22 -0.01 0.32 0.01 0.23 -0.01 0.23 0.02 0.3 0.04 0.22 0.06 0.18 0.05 0.05 0.08 0.04 0.32 0.02 0.2 0 0.2 -0.02 0.61 -0.03 0.43 -0.06 0.38 0.06 0.05 0.04 0.06 0.05 0.03 0.1 0.02 0.11 -0.01 0.09 -0.03 0.08 -0.01 0.14 -0.03 0.11 -0.01 0.04 -0.04 0.04 -0.38 0.2 -0.22 0.08 -0.2 0.05 -0.22 0.06 -0.23 0.01 -0.71 0 -0.26 -0.04 -0.27 -0.05 -0.26 -0.07 -0.24 -0.09 -0.26 -0.11 -0.23 -0.14 -0.2 -0.19 -0.18 -0.19 -0.16 -0.21 -0.13 -0.23 -0.1 -0.29 -0.07 -0.21 -0.05 -0.27 -0.03 -0.29 -0.01 -0.28 0.01 -0.31 0.04 -0.27 0.06 -0.27 0.06 -0.25 0.09 -0.27 0.12 -0.24 0.16 -0.2 0.18 -0.21 0.18 -0.19 0.22 -0.17 0.25 -0.14 0.24 -0.11 0.27 -0.06 0.27 -0.06 0.27 -0.04 0.61 0 0.7 0.14 0.38 0.13 0.05 0.03 0.03 0.04 0.03 0.11zm11.1 7.17l0.52 0.01 0.51 0.03 0.02 0 0.55 -0.02 0.54 -0.02 0.57 0.02 0.54 0.04 1.03 -0.02 0.08 -0.02 0.07 -0.02 0.05 -0.04 0.05 -0.06 0.03 -0.08 0.02 -0.07 0.01 -0.39 0.01 -0.42 -0.01 -0.39 -0.01 -0.41 0 -0.06 -0.05 -0.06 -0.05 -0.07 -0.05 -0.05 -0.07 -0.05 -0.08 -0.03 -0.33 0.01 -0.31 0 -0.09 -0.02 -0.08 -0.09 -0.22 -0.37 -0.22 -0.41 -0.19 -0.46 -0.19 -0.47 -0.17 -0.48 -0.19 -0.48 -0.2 -0.46 -0.21 -0.48 -0.2 -0.46 -0.22 -0.46 -0.24 -0.46 -0.24 -0.44 -0.22 -0.46 -0.23 -0.48 -0.35 -0.86 -0.04 -0.08 -0.06 -0.06 -0.06 -0.02 -0.1 -0.02 -0.89 -0.03 -0.03 0 -0.96 0.06 -0.47 -0.01 -0.95 -0.06 -0.48 -0.04 -0.47 0.03 -0.47 0.01 -0.13 0.04 -0.1 0.12 -0.03 0.15 0 0.79 0.02 0.4 0.01 0.4 0.01 0.06 0.05 0.11 0.09 0.1 0.14 0.04 0.51 0 0.14 0.05 0.05 0.08 -0.01 0.1 -0.18 0.47 -0.18 0.43 -0.2 0.44 -0.2 0.41 -0.19 0.42 -0.19 0.44 -0.2 0.42 -0.19 0.42 -0.22 0.43 -0.22 0.4 -0.32 0.73 -0.07 0.09 -0.09 0.02 -0.68 0.03 -0.11 0.01 -0.11 0.06 -0.08 0.11 -0.01 0.13 0.03 0.39 0.02 0.41 -0.01 0.39 0 0.39 0.03 0.15 0.08 0.08 0.09 0.04 0.09 0.02 1.04 -0.03 1.12 0.05 1.11 0 1.05 -0.02 0.11 -0.02 0.1 -0.05 0.08 -0.09 0.01 -0.14 0 -0.34 0.01 -0.35 -0.01 -0.35 0 -0.37 -0.04 -0.12 -0.07 -0.11 -0.09 -0.05 -0.1 -0.03 -0.25 0 -0.1 -0.02 -0.07 -0.07 -0.06 -0.1 -0.03 -0.08 0 -0.09 0.07 -0.18 0.06 -0.19 0.07 -0.13 0.14 -0.06 0.46 0 0.47 -0.01 0.01 0 1.11 0.08 0.5 -0.04 0.52 -0.03 0.12 0.03 0.07 0.05 0.05 0.07 0.04 0.08 0.06 0.16 0.06 0.18 0 0.07 -0.01 0.07 -0.03 0.08 -0.02 0.06 -0.07 0.09 -0.11 0.04 -0.11 0 -0.15 0.02 -0.08 0.04 -0.07 0.08 -0.04 0.13 -0.01 0.35 0 0.35 -0.03 0.68 0.03 0.09 0.04 0.07 0.07 0.07 0.07 0.02 0.06 0.02zm-0.97 -4.97l-0.49 -0.02 -0.5 -0.02 -0.09 -0.01 -0.1 -0.07 -0.08 -0.11 -0.03 -0.12 0.03 -0.11 0.15 -0.31 0.15 -0.34 0.12 -0.33 0.11 -0.33 0.07 -0.09 0.11 -0.03 0.12 0 0.12 0.03 0.07 0.09 0.1 0.34 0.13 0.32 0.14 0.36 0.14 0.33 0.01 0.09 -0.01 0.09 -0.05 0.12 -0.11 0.1 -0.11 0.02zm19.16 0.07l-0.31 -0.38 -0.32 -0.38 -0.27 -0.42 -0.27 -0.43 -1.3 -1.51 -0.54 -0.84 -0.31 -0.39 -0.33 -0.38 -0.06 -0.06 -0.1 0 -0.53 -0.04 -1.59 -0.04 -0.54 0 -0.53 0.07 -0.16 0.05 -0.07 0.14 -0.04 0.44 0.03 0.45 0.01 0.45 0.07 0.43 0.04 0.15 0.12 0.07 0.22 0.02 0.16 -0.04 0.36 0 0.08 0.02 0.06 0.05 0.04 0.16 0.04 0.49 -0.04 0.5 0.03 0.5 0.01 0.49 0 0.5 0.01 0.5 -0.01 0.5 0 0.5 0.04 0.5 -0.01 0.49 -0.08 0.16 -0.07 0.05 -0.1 0.03 -0.36 -0.01 -0.25 -0.04 -0.13 0.01 -0.15 0.07 -0.05 0.15 -0.03 0.43 0.03 0.45 -0.06 0.44 0.02 0.43 0.08 0.15 0.16 0.07 0.57 0.04 0.55 -0.03 1.12 0 1.13 -0.05 0.57 0.05 0.55 -0.01 0.16 -0.05 0.08 -0.17 0.02 -0.43 -0.04 -0.44 0 -0.45 -0.02 -0.43 0 -0.14 -0.08 -0.07 -0.84 -0.05 -0.08 -0.06 0 -0.1 0.06 -0.76 -0.02 -0.45 -0.03 -0.44 -0.02 -0.9 0 -0.04 0.11 -0.06 0.09 -0.02 0.07 0.04 0.05 0.14 0.07 0.13 0.32 0.38 0.33 0.37 0.27 0.4 0.28 0.42 0.3 0.38 0.31 0.39 0.3 0.38 0.3 0.39 0.3 0.41 0.28 0.39 0.3 0.4 0.31 0.39 0.08 0.02 0.12 -0.01 0.5 0.05 0.52 0.03 0.51 -0.01 0.5 -0.08 0.14 -0.04 0.04 -0.14 0.09 -1.03 -0.04 -0.51 -0.03 -0.53 0 -1.04 0.06 -1.03 -0.04 -0.53 -0.04 -0.51 0.02 -0.51 0.04 -0.53 -0.06 -0.53 0 -0.51 0.01 -0.04 0.08 -0.02 0.16 0.02 0.35 -0.03 0.34 -0.05 0.08 -0.03 0.06 -0.03 0.04 -0.12 0.04 -0.43 -0.01 -0.45 0.02 -0.45 -0.02 -0.43 -0.06 -0.13 -0.13 -0.04 -0.56 -0.05 -0.55 0.02 -0.56 -0.02 -0.55 -0.02 -1.11 0.02 -0.57 -0.02 -0.54 0.05 -0.14 0.06 -0.02 0.05 -0.02 0.08 -0.05 0.43 0.01 0.45 -0.02 0.45 -0.02 0.43 -0.02 0.16 0.05 0.11 0.2 0.04 0.27 -0.01 0.5 -0.02 0 0.06 -0.02 0.08 -0.03 0.95 0 0.25 0.01 0.27 0.07 0.46 0.04 0.19 0.04 0.27 -0.04 0.11 -0.09 0.07 -0.12 0 -0.1 -0.07 -0.04 -0.04 -0.06 -0.04zm12.92 -7.48l-0.06 -0.05 -1.07 -0.75 -0.08 -0.02 -0.1 0.04 -0.19 0.21 -0.21 0.14 -0.3 0.07 -0.27 -0.03 -0.3 -0.1 -0.24 -0.1 -0.29 -0.14 -0.35 -0.12 -0.27 -0.04 -0.41 0 -0.28 0.04 -0.27 0.07 -0.3 0.13 -0.32 0.2 -0.19 0.17 -0.19 0.24 -0.18 0.27 -0.09 0.18 -0.06 0.13 0.03 0.08 0.08 0.06 1.14 0.73 0.09 0.04 0.1 -0.03 0.2 -0.26 0.19 -0.15 0.2 -0.09 0.15 -0.03 0.35 0.04 0.3 0.11 0.22 0.12 0.01 -0.01 0.34 0.15 0.32 0.11 0.22 0.04 0.42 0.03 0.3 -0.05 0.19 -0.05 0.21 -0.08 0.19 -0.11 0.23 -0.16 0.14 -0.14 0.12 -0.16 0.13 -0.21 0.14 -0.29 0.05 -0.15 -0.04 -0.08zm-1.15 12.38l0.52 0.01 0.51 0.03 0.01 0 0.56 -0.02 0.54 -0.02 0.57 0.02 0.54 0.04 1.03 -0.02 0.08 -0.02 0.07 -0.02 0.05 -0.04 0.05 -0.06 0.03 -0.08 0.01 -0.07 0.02 -0.39 0.01 -0.42 -0.01 -0.39 -0.02 -0.41 0 -0.06 -0.04 -0.06 -0.05 -0.07 -0.05 -0.05 -0.07 -0.05 -0.08 -0.03 -0.33 0.01 -0.31 0 -0.09 -0.02 -0.08 -0.09 -0.22 -0.37 -0.22 -0.41 -0.19 -0.46 -0.19 -0.47 -0.17 -0.48 -0.19 -0.48 -0.2 -0.46 -0.21 -0.48 -0.2 -0.46 -0.22 -0.46 -0.24 -0.46 -0.24 -0.44 -0.22 -0.46 -0.23 -0.48 -0.35 -0.86 -0.04 -0.08 -0.06 -0.06 -0.06 -0.02 -0.1 -0.02 -0.89 -0.03 -0.03 0 -0.96 0.06 -0.47 -0.01 -0.95 -0.06 -0.49 -0.04 -0.46 0.03 -0.47 0.01 -0.13 0.04 -0.1 0.12 -0.03 0.15 0 0.79 0.02 0.4 0.01 0.4 0.02 0.06 0.04 0.11 0.09 0.1 0.14 0.04 0.51 0 0.13 0.05 0.06 0.08 -0.01 0.1 -0.18 0.47 -0.18 0.43 -0.2 0.44 -0.2 0.41 -0.19 0.42 -0.19 0.44 -0.2 0.42 -0.19 0.42 -0.22 0.43 -0.22 0.4 -0.32 0.73 -0.07 0.09 -0.09 0.02 -0.68 0.03 -0.11 0.01 -0.11 0.06 -0.08 0.11 -0.01 0.13 0.03 0.39 0.02 0.41 -0.01 0.39 0 0.39 0.03 0.15 0.08 0.08 0.09 0.04 0.08 0.02 1.05 -0.03 1.12 0.05 1.11 0 1.05 -0.02 0.11 -0.02 0.09 -0.05 0.09 -0.09 0.01 -0.14 0 -0.34 0.01 -0.35 -0.01 -0.35 0 -0.37 -0.04 -0.12 -0.07 -0.11 -0.09 -0.05 -0.1 -0.03 -0.25 0 -0.1 -0.02 -0.07 -0.07 -0.06 -0.1 -0.03 -0.08 0 -0.09 0.07 -0.18 0.06 -0.19 0.07 -0.13 0.14 -0.06 0.46 0 0.47 -0.01 0.01 0 1.11 0.08 0.5 -0.04 0.52 -0.03 0.12 0.03 0.07 0.05 0.05 0.07 0.04 0.08 0.06 0.16 0.06 0.18 0 0.07 -0.01 0.07 -0.03 0.08 -0.02 0.06 -0.07 0.09 -0.11 0.04 -0.11 0 -0.15 0.02 -0.08 0.04 -0.07 0.08 -0.04 0.13 -0.01 0.35 0 0.35 -0.03 0.68 0.03 0.09 0.04 0.07 0.07 0.07 0.07 0.02 0.06 0.02zm-0.97 -4.97l-0.49 -0.02 -0.5 -0.02 -0.09 -0.01 -0.1 -0.07 -0.08 -0.11 -0.03 -0.12 0.03 -0.11 0.15 -0.31 0.15 -0.34 0.12 -0.33 0.11 -0.33 0.07 -0.09 0.1 -0.03 0.13 0 0.12 0.03 0.07 0.09 0.1 0.34 0.12 0.32 0.15 0.36 0.14 0.33 0.01 0.09 -0.01 0.09 -0.05 0.12 -0.11 0.1 -0.11 0.02zm16.26 -0.32l-0.07 -0.48 -0.07 -0.41 -0.12 -0.51 -0.19 -0.39 -0.26 -0.43 -0.2 -0.36 -0.3 -0.42 -0.28 -0.3 -0.39 -0.35 -0.37 -0.26 -0.44 -0.23 -0.48 -0.19 -0.42 -0.11 -0.44 -0.09 -0.48 -0.08 -0.54 -0.04 -0.39 -0.02 -0.45 0.04 -0.47 0.06 -0.41 0.06 -0.51 0.11 -0.39 0.12 -0.48 0.21 -0.37 0.21 -0.41 0.27 -0.35 0.25 -0.39 0.32 -0.23 0.3 -0.3 0.49 -0.16 0.33 -0.18 0.53 -0.15 0.42 -0.11 0.47 -0.05 0.47 -0.01 0.47 0.01 0.44 0.07 0.49 0.08 0.43 0.13 0.48 0.14 0.42 0.19 0.46 0.27 0.35 0.35 0.35 0.31 0.35 0.34 0.31 0.39 0.23 0.43 0.21 0.45 0.17 0.95 0.3 0.38 0.08 0.46 0.05 0.47 0.02 0.49 0 0.46 -0.03 0.46 -0.11 0.44 -0.13 0.44 -0.12 0.46 -0.17 0.39 -0.21 0.4 -0.27 0.34 -0.27 0.35 -0.37 0.27 -0.34 0.48 -0.8 0.21 -0.47 0.07 -0.43 0.06 -0.5 0.08 -0.42 0.05 -0.5 -0.01 -0.46zm-3.53 2.39l-0.36 0.35 -0.48 0.3 -0.49 0.12 -0.58 0.03 -0.55 -0.07 -0.48 -0.15 -0.43 -0.21 -0.43 -0.37 -0.25 -0.28 -0.2 -0.3 -0.14 -0.3 -0.08 -0.28 -0.06 -0.34 -0.05 -0.43 0.03 -0.39 0.06 -0.38 0.09 -0.29 0.12 -0.31 0.12 -0.24 0.29 -0.39 0.38 -0.33 0.52 -0.27 0.57 -0.15 0.49 -0.04 0.65 0.04 0.43 0.12 0.52 0.31 0.33 0.36 0.33 0.4 0.23 0.49 0.11 0.61 0.01 0.46 -0.03 0.54 -0.12 0.5 -0.24 0.51 -0.31 0.38zm17.17 2.9l0.52 0.01 0.51 0.03 0.02 0 0.55 -0.02 0.54 -0.02 0.57 0.02 0.54 0.04 1.03 -0.02 0.08 -0.02 0.07 -0.02 0.05 -0.04 0.06 -0.06 0.02 -0.08 0.02 -0.07 0.01 -0.39 0.01 -0.42 -0.01 -0.39 -0.01 -0.41 0 -0.06 -0.04 -0.06 -0.06 -0.07 -0.05 -0.05 -0.07 -0.05 -0.08 -0.03 -0.33 0.01 -0.31 0 -0.09 -0.02 -0.08 -0.09 -0.22 -0.37 -0.22 -0.41 -0.18 -0.46 -0.19 -0.47 -0.18 -0.48 -0.19 -0.48 -0.2 -0.46 -0.21 -0.48 -0.2 -0.46 -0.21 -0.46 -0.25 -0.46 -0.24 -0.44 -0.22 -0.46 -0.23 -0.48 -0.35 -0.86 -0.04 -0.08 -0.05 -0.06 -0.07 -0.02 -0.1 -0.02 -0.89 -0.03 -0.03 0 -0.96 0.06 -0.47 -0.01 -0.95 -0.06 -0.48 -0.04 -0.46 0.03 -0.48 0.01 -0.13 0.04 -0.1 0.12 -0.02 0.15 0 0.79 0.01 0.4 0.01 0.4 0.02 0.06 0.04 0.11 0.09 0.1 0.14 0.04 0.51 0 0.14 0.05 0.05 0.08 -0.01 0.1 -0.18 0.47 -0.18 0.43 -0.2 0.44 -0.2 0.41 -0.19 0.42 -0.19 0.44 -0.2 0.42 -0.19 0.42 -0.22 0.43 -0.21 0.4 -0.33 0.73 -0.07 0.09 -0.09 0.02 -0.68 0.03 -0.11 0.01 -0.1 0.06 -0.09 0.11 -0.01 0.13 0.03 0.39 0.03 0.41 -0.02 0.39 0 0.39 0.03 0.15 0.08 0.08 0.1 0.04 0.08 0.02 1.04 -0.03 1.12 0.05 1.11 0 1.05 -0.02 0.11 -0.02 0.1 -0.05 0.08 -0.09 0.01 -0.14 0 -0.34 0.01 -0.35 -0.01 -0.35 0 -0.37 -0.04 -0.12 -0.07 -0.11 -0.09 -0.05 -0.1 -0.03 -0.25 0 -0.1 -0.02 -0.06 -0.07 -0.07 -0.1 -0.03 -0.08 0 -0.09 0.07 -0.18 0.07 -0.19 0.06 -0.13 0.14 -0.06 0.46 0 0.47 -0.01 0.02 0 1.1 0.08 0.5 -0.04 0.52 -0.03 0.12 0.03 0.07 0.05 0.05 0.07 0.04 0.08 0.06 0.16 0.06 0.18 0 0.07 -0.01 0.07 -0.03 0.08 -0.02 0.06 -0.07 0.09 -0.11 0.04 -0.11 0 -0.15 0.02 -0.08 0.04 -0.07 0.08 -0.04 0.13 -0.01 0.35 0 0.35 -0.03 0.68 0.03 0.09 0.04 0.07 0.07 0.07 0.07 0.02 0.06 0.02zm-0.97 -4.97l-0.49 -0.02 -0.5 -0.02 -0.09 -0.01 -0.1 -0.07 -0.08 -0.11 -0.02 -0.12 0.02 -0.11 0.15 -0.31 0.15 -0.34 0.12 -0.33 0.11 -0.33 0.07 -0.09 0.11 -0.03 0.12 0 0.12 0.03 0.07 0.09 0.11 0.34 0.12 0.32 0.15 0.36 0.13 0.33 0.02 0.09 -0.02 0.09 -0.05 0.12 -0.11 0.1 -0.11 0.02zm14.01 -3.68l-0.02 -0.08 -0.07 -0.05 -0.19 -0.15 -0.39 -0.27 -0.22 -0.12 -0.22 -0.11 -0.67 -0.2 -0.48 -0.11 -0.23 -0.04 -0.47 -0.06 -0.23 -0.04 -0.24 -0.02 -0.5 -0.02 -0.23 0.02 -0.49 0.05 -0.47 0.12 -0.22 0.08 -0.23 0.08 -0.23 0.07 -0.43 0.19 -0.42 0.26 -0.38 0.28 -0.18 0.16 -0.13 0.19 -0.2 0.44 -0.18 0.44 -0.08 0.22 -0.04 0.24 -0.03 0.25 0.02 0.25 0.09 0.48 0.15 0.44 0.2 0.42 0.12 0.21 0.17 0.17 0.17 0.16 0.18 0.14 0.4 0.24 0.46 0.19 0.45 0.14 0.46 0.09 0.26 0.04 0.23 0.03 0.71 0 0.3 0.07 0.47 0.12 0.21 0.07 0.28 0.1 0.2 0.13 0.11 0.16 0.06 0.2 -0.06 0.24 -0.11 0.22 -0.17 0.18 -0.23 0.12 -0.23 0.04 -0.25 0.03 -0.27 -0.02 -0.65 0 -0.37 -0.02 -0.21 -0.03 -0.38 -0.08 -0.16 -0.04 -0.05 -0.03 -0.07 -0.04 -0.04 -0.07 -0.01 -0.05 0.02 -0.38 0 -0.15 -0.04 -0.23 -0.02 -0.08 -0.03 -0.07 -0.04 -0.05 -0.08 -0.03 -0.27 -0.03 -0.18 0.03 -0.19 0.03 -0.27 0.01 -0.28 0 -0.21 -0.03 -0.19 -0.01 -0.28 0 -0.09 0.04 -0.13 0.11 -0.1 0.13 -0.04 0.1 0.01 0.4 0.03 0.67 0.01 0.58 0.01 0.3 0.02 0.09 0.02 0.07 0.23 0.17 0.65 0.47 0.25 0.1 0.52 0.18 0.26 0.07 0.24 0.08 0.52 0.15 0.28 0.04 0.26 0.01 0.54 -0.01 0.28 -0.02 0.26 0.02 0.5 0.01 0.24 -0.03 0.52 -0.09 0.47 -0.14 0.48 -0.19 0.44 -0.23 0.43 -0.27 0.37 -0.33 0.15 -0.21 0.11 -0.21 0.19 -0.48 0.09 -0.23 0.1 -0.48 0.01 -0.27 -0.01 -0.25 -0.09 -0.46 -0.08 -0.21 -0.19 -0.44 -0.25 -0.36 -0.15 -0.18 -0.34 -0.31 -0.2 -0.13 -0.22 -0.13 -0.42 -0.19 -0.44 -0.14 -0.48 -0.11 -0.69 -0.12 -0.77 -0.07 -0.51 -0.03 -0.22 -0.04 -0.27 -0.11 -0.2 -0.15 -0.15 -0.23 -0.04 -0.25 0.04 -0.23 0.12 -0.18 0.18 -0.14 0.2 -0.1 0.2 -0.08 0.23 -0.04 0.42 -0.02 0.3 0 0.54 0.06 0.26 0.04 0.05 0.02 0.07 0.04 0.04 0.04 0.01 0.07 0 0.48 0.04 0.18 0.03 0.1 0.03 0.07 0.04 0.02 0.09 0.03 0.3 0.04 0.4 -0.03 0.3 -0.01 0.72 0 0.3 -0.01 0.07 0 0.04 -0.02 0.01 -0.01 0.01 -0.08 0.06 -0.31 0.04 -0.43 0 -0.32 -0.02 -0.33 -0.02 -0.44 -0.02 -0.23zm-98.78 15.25l-0.16 -0.08 -0.36 -0.04 -0.39 0.04 -0.38 -0.03 -0.38 0.03 -0.12 0.02 -0.08 0.1 -0.21 0.53 -0.15 0.55 -0.19 0.53 -0.17 0.53 -0.25 0.52 -0.14 0.53 0.02 0.2 0.18 0.1 0.5 0.02 0.5 -0.05 0.5 0.01 0.5 0 0.12 -0.04 0.07 -0.13 0.13 -0.53 0.07 -0.53 0.11 -0.54 0.11 -0.53 0.15 -0.52 0.07 -0.53 -0.05 -0.16zm4.35 0l-0.17 -0.08 -0.36 -0.04 -0.39 0.04 -0.38 -0.03 -0.38 0.03 -0.12 0.02 -0.08 0.1 -0.21 0.53 -0.14 0.55 -0.19 0.53 -0.18 0.53 -0.24 0.52 -0.15 0.53 0.02 0.2 0.18 0.1 0.5 0.02 0.5 -0.05 0.5 0.01 0.5 0 0.12 -0.04 0.07 -0.13 0.14 -0.53 0.06 -0.53 0.11 -0.54 0.11 -0.53 0.15 -0.52 0.07 -0.53 -0.04 -0.16zm7.35 9.63l0.52 0.01 0.51 0.03 0.02 0 0.55 -0.01 0.54 -0.03 0.57 0.03 0.54 0.04 1.03 -0.03 0.08 -0.01 0.07 -0.03 0.05 -0.04 0.06 -0.06 0.02 -0.08 0.02 -0.07 0.01 -0.39 0.01 -0.42 -0.01 -0.39 -0.01 -0.41 0 -0.06 -0.04 -0.06 -0.06 -0.07 -0.05 -0.05 -0.07 -0.05 -0.08 -0.03 -0.33 0.01 -0.31 0 -0.09 -0.02 -0.08 -0.08 -0.22 -0.38 -0.22 -0.41 -0.18 -0.46 -0.19 -0.47 -0.18 -0.48 -0.19 -0.48 -0.2 -0.46 -0.21 -0.48 -0.2 -0.46 -0.21 -0.46 -0.25 -0.46 -0.24 -0.44 -0.22 -0.46 -0.23 -0.48 -0.35 -0.86 -0.04 -0.08 -0.05 -0.06 -0.07 -0.02 -0.1 -0.02 -0.89 -0.02 -0.03 0 -0.96 0.05 -0.47 -0.01 -0.95 -0.06 -0.48 -0.04 -0.46 0.03 -0.48 0.01 -0.13 0.04 -0.1 0.12 -0.02 0.15 0 0.79 0.01 0.4 0.01 0.4 0.02 0.06 0.04 0.11 0.09 0.1 0.14 0.04 0.51 0 0.14 0.05 0.05 0.08 -0.01 0.1 -0.18 0.47 -0.17 0.43 -0.21 0.44 -0.2 0.42 -0.19 0.41 -0.19 0.44 -0.2 0.42 -0.19 0.42 -0.22 0.43 -0.21 0.41 -0.33 0.73 -0.07 0.08 -0.09 0.02 -0.68 0.03 -0.11 0.01 -0.1 0.06 -0.09 0.11 -0.01 0.13 0.03 0.39 0.03 0.41 -0.02 0.39 0 0.39 0.03 0.15 0.08 0.08 0.09 0.05 0.09 0.01 1.04 -0.03 1.12 0.06 1.11 0 1.05 -0.03 0.11 -0.01 0.1 -0.06 0.08 -0.09 0.01 -0.14 0 -0.34 0.02 -0.35 -0.02 -0.35 0 -0.37 -0.04 -0.12 -0.07 -0.11 -0.09 -0.05 -0.1 -0.03 -0.25 0 -0.1 -0.02 -0.07 -0.07 -0.06 -0.1 -0.03 -0.08 0 -0.09 0.07 -0.18 0.07 -0.19 0.06 -0.13 0.14 -0.06 0.46 0 0.47 -0.01 0.02 0 1.1 0.08 0.51 -0.04 0.51 -0.03 0.12 0.03 0.07 0.05 0.05 0.07 0.04 0.08 0.06 0.17 0.06 0.17 0 0.07 -0.01 0.07 -0.03 0.08 -0.02 0.06 -0.07 0.09 -0.11 0.04 -0.11 0 -0.15 0.02 -0.08 0.04 -0.06 0.09 -0.05 0.12 -0.01 0.35 0 0.35 -0.03 0.68 0.03 0.09 0.04 0.07 0.07 0.07 0.07 0.02 0.06 0.02zm-0.97 -4.97l-0.49 -0.02 -0.5 -0.02 -0.09 -0.01 -0.1 -0.07 -0.08 -0.11 -0.02 -0.12 0.02 -0.11 0.15 -0.31 0.15 -0.34 0.12 -0.33 0.11 -0.33 0.07 -0.09 0.11 -0.03 0.12 0 0.12 0.03 0.07 0.09 0.11 0.34 0.12 0.32 0.15 0.36 0.13 0.33 0.01 0.09 -0.01 0.09 -0.05 0.12 -0.11 0.1 -0.11 0.02zm12.36 -2.2l0.03 0.23 0 0.31 0.03 0.2 0.07 0.14 0.05 0.03 0.08 0.01 0.3 0.05 0.19 0.02 0.5 -0.02 0.27 0.02 0.4 0 0.29 -0.03 0.08 -0.04 0.05 -0.04 0.04 -0.06 0.04 -0.09 0.03 -0.24 -0.01 -0.19 -0.03 -0.21 -0.03 -0.27 0.03 -0.28 0.01 -0.19 0.02 -0.16 0 -0.27 -0.02 -0.07 -0.01 -0.03 -0.04 -0.01 -0.03 -0.04 -0.2 -0.19 -0.41 -0.33 -0.43 -0.29 -0.23 -0.13 -0.23 -0.13 -0.5 -0.19 -0.51 -0.11 -0.27 -0.02 -0.52 -0.09 -0.52 -0.04 -0.29 0.02 -0.26 0.02 -0.78 0.13 -0.27 0.02 -0.5 0.12 -0.49 0.21 -0.69 0.36 -0.21 0.15 -0.23 0.15 -0.19 0.16 -0.4 0.37 -0.35 0.38 -0.15 0.2 -0.13 0.23 -0.15 0.23 -0.11 0.24 -0.07 0.26 -0.09 0.51 -0.08 0.52 -0.04 0.52 0 0.56 0.01 0.26 0.07 0.5 0.03 0.27 0.09 0.53 0.05 0.25 0.11 0.25 0.29 0.43 0.15 0.21 0.13 0.22 0.16 0.22 0.35 0.36 0.4 0.35 0.44 0.3 0.49 0.22 0.5 0.19 0.5 0.11 0.53 0.08 0.51 0.02 0.54 0.02 0.48 -0.02 0.48 -0.02 0.49 -0.11 0.93 -0.29 0.45 -0.16 0.2 -0.12 0.42 -0.27 0.35 -0.34 0.32 -0.38 0.14 -0.25 0 -0.02 0.02 -0.02 0 -0.57 -0.02 -0.22 0 -1.43 0.02 -0.35 0.01 -0.22 0 -0.23 -0.04 -0.34 -0.01 -0.08 -0.04 -0.04 -0.07 -0.03 -0.08 -0.01 -0.34 -0.04 -1.1 -0.02 -0.44 -0.02 -0.34 0 -0.31 0.01 -0.45 0.03 -0.66 0 -0.43 -0.02 -0.33 0.05 -0.09 0.01 -0.06 0.04 -0.04 0.04 -0.02 0.08 -0.05 0.22 -0.01 0.32 0.01 0.23 -0.01 0.23 0.03 0.3 0.04 0.22 0.05 0.19 0.06 0.04 0.08 0.04 0.31 0.02 0.2 0 0.2 -0.02 0.61 -0.03 0.44 -0.05 0.38 0.05 0.05 0.04 0.05 0.05 0.03 0.1 0.03 0.11 -0.02 0.09 -0.02 0.08 -0.02 0.14 -0.02 0.11 -0.02 0.04 -0.04 0.04 -0.38 0.2 -0.21 0.08 -0.21 0.06 -0.21 0.05 -0.23 0.01 -0.72 0 -0.26 -0.04 -0.27 -0.05 -0.25 -0.07 -0.25 -0.09 -0.25 -0.11 -0.23 -0.14 -0.21 -0.19 -0.17 -0.19 -0.16 -0.21 -0.14 -0.23 -0.09 -0.29 -0.07 -0.21 -0.06 -0.27 -0.02 -0.29 -0.02 -0.28 0.02 -0.31 0.04 -0.27 0.05 -0.27 0.07 -0.25 0.08 -0.27 0.12 -0.24 0.16 -0.2 0.18 -0.21 0.19 -0.19 0.22 -0.17 0.24 -0.14 0.24 -0.1 0.27 -0.07 0.27 -0.06 0.27 -0.04 0.61 0 0.71 0.14 0.38 0.13 0.05 0.03 0.03 0.04 0.02 0.11zm11.07 -4.11l-0.64 -0.68 -0.71 -0.62 -0.65 -0.68 -0.07 -0.05 -0.08 -0.04 -0.1 -0.02 -0.7 -0.04 -0.65 0.04 -0.14 0.02 -0.09 0.04 -0.07 0.07 -0.26 0.21 -0.41 0.45 -0.69 0.63 -0.45 0.45 -0.19 0.24 -0.03 0.04 0 0.13 0.07 0.02 0.38 0.04 0.68 -0.06 1.06 0 0.06 0.01 0.05 -0.05 0.64 -0.53 0.04 -0.03 0.03 0.03 0.7 0.57 0.05 0.04 1.05 0 0.66 0.04 0.39 -0.04 0.08 -0.06 0.01 -0.12 -0.02 -0.05zm-0.68 8.22l-0.04 0.23 0.03 0.16 0.01 0.17 -0.04 0.21 -0.04 0.04 -0.04 0 -0.06 -0.01 -0.06 -0.01 -0.35 0 -0.26 -0.02 -0.98 0 -0.48 0.03 -0.37 0.01 -0.05 -0.01 -0.04 -0.04 -0.02 -0.06 -0.01 -0.06 0 -0.29 -0.03 -0.19 -0.01 -0.2 -0.01 -0.28 0.02 -0.14 0.1 -0.11 0.12 -0.07 0.15 -0.01 0.45 -0.03 0.17 -0.02 0.26 -0.02 0.27 0.03 0.36 0.05 0.26 -0.02 0.1 -0.03 0.1 -0.11 0.03 -0.09 0.03 -0.26 -0.01 -0.35 -0.02 -0.26 0.02 -0.27 0.04 -0.35 -0.04 -0.26 -0.03 -0.08 -0.06 -0.04 -0.08 -0.02 -0.38 -0.06 -0.19 -0.01 -0.18 0.01 -0.29 0.01 -0.28 0 -0.19 0.02 -0.2 0 -0.28 -0.04 -0.09 -0.03 -0.05 -0.03 -0.03 -0.07 -0.03 -0.09 -0.04 -0.31 0.01 -0.43 0 -0.33 0.02 -0.08 0.04 -0.05 0.05 -0.06 0.1 -0.01 0.35 -0.01 0.85 0.02 0.35 -0.02 0.5 -0.06 0.35 0.03 0.04 0.03 0.02 0.06 0 0.14 -0.02 0.17 -0.04 0.25 0.04 0.17 0.03 0.08 0.04 0.05 0.06 0.04 0.34 0.05 0.33 0.01 0.25 0 0.25 0.02 0.36 0.02 0.24 -0.04 0.08 -0.02 0.05 -0.06 0.02 -0.08 0.03 -0.09 0.06 -0.48 0 -0.75 -0.01 -0.38 0 -0.76 -0.08 -0.57 -0.03 -0.07 -0.04 -0.05 -0.08 -0.03 -0.3 -0.02 -0.42 0.05 -0.3 0.03 -0.51 0 -0.51 0.01 -0.5 -0.01 -0.22 -0.02 -0.6 -0.01 -0.2 0 -0.51 -0.01 -0.52 0 -0.81 0.01 -0.2 0.03 -0.5 0.02 -0.31 -0.01 -0.72 0 -0.3 -0.03 -0.42 -0.08 -0.29 0.03 -0.1 0.03 -0.04 0.05 -0.03 0.08 -0.01 0.1 -0.04 0.25 -0.03 0.35 0 0.52 0.04 0.35 0.04 0.26 0.02 0.08 0.02 0.04 0.06 0.04 0.08 0.01 0.19 0.03 0.27 -0.03 0.19 0.03 0.08 0.03 0.07 0.04 0.04 0.05 0.03 0.1 0.02 0.29 -0.02 0.41 -0.02 0.59 -0.02 0.41 0 1 0.01 0.6 0.04 0.4 0.01 0.6 -0.01 0.4 -0.04 0.3 -0.03 0.1 -0.03 0.06 -0.05 0.04 -0.08 0.03 -0.19 0.01 -0.28 -0.08 -0.21 0.02 -0.08 0.02 -0.04 0.06 -0.04 0.07 -0.01 0.09 -0.04 0.26 -0.02 0.35 -0.01 0.53 -0.03 0.36 0.04 0.26 0.03 0.08 0.05 0.05 0.07 0.02 0.11 0.01 0.3 0.06 0.42 0.01 0.62 -0.01 0.42 0.01 0.62 0 0.73 0.01 0.31 0 0.42 -0.04 0.31 -0.01 0.3 0.01 0.43 0.04 2.38 0 0.31 0.02 0.22 0.01 0.22 0 0.3 -0.04 0.09 -0.03 0.07 -0.04 0.04 -0.07 0.02 -0.09 0.03 -0.29 -0.03 -0.39 -0.02 -0.28 0 -0.3 -0.03 -0.38 -0.01 -0.28 0.02 -0.3 0.09 -0.39 -0.03 -0.29 -0.03 -0.09 -0.04 -0.07 -0.07 -0.05 -0.09 -0.03 -0.26 -0.03 -0.17 0.02 -0.42 0.04 -0.26 0 -0.34 0.01 -0.24 0.02 -0.1 0.01 -0.06 0.03 -0.03 0.05 -0.03 0.08zm10.51 -1.84l-0.31 -0.38 -0.33 -0.38 -0.27 -0.42 -0.27 -0.43 -1.29 -1.51 -0.55 -0.84 -0.31 -0.39 -0.32 -0.38 -0.07 -0.06 -0.09 0 -0.53 -0.04 -1.6 -0.04 -0.54 0 -0.53 0.07 -0.16 0.05 -0.07 0.14 -0.04 0.45 0.03 0.44 0.01 0.45 0.07 0.43 0.04 0.15 0.12 0.07 0.22 0.02 0.16 -0.04 0.37 0 0.08 0.02 0.05 0.05 0.04 0.16 0.04 0.49 -0.04 0.5 0.03 0.5 0.01 0.49 0 0.5 0.02 0.5 -0.02 0.5 0 0.5 0.05 0.5 -0.02 0.49 -0.08 0.16 -0.07 0.05 -0.09 0.03 -0.37 -0.01 -0.24 -0.04 -0.14 0.01 -0.14 0.07 -0.06 0.15 -0.03 0.43 0.03 0.45 -0.05 0.44 0.01 0.44 0.08 0.14 0.16 0.07 0.57 0.04 0.56 -0.02 1.12 0 1.12 -0.06 0.57 0.06 0.55 -0.02 0.17 -0.05 0.08 -0.16 0.01 -0.44 -0.04 -0.44 0 -0.45 -0.01 -0.43 0 -0.14 -0.08 -0.07 -0.84 -0.05 -0.08 -0.05 0 -0.11 0.05 -0.76 -0.01 -0.45 -0.03 -0.44 -0.03 -0.89 0 -0.05 0.11 -0.06 0.1 -0.02 0.06 0.04 0.06 0.14 0.07 0.13 0.32 0.38 0.32 0.37 0.28 0.4 0.28 0.42 0.3 0.38 0.31 0.39 0.3 0.38 0.29 0.4 0.3 0.4 0.28 0.39 0.3 0.4 0.31 0.39 0.08 0.03 0.13 -0.02 0.5 0.06 0.51 0.02 0.51 -0.01 0.51 -0.08 0.13 -0.04 0.04 -0.14 0.1 -1.03 -0.04 -0.51 -0.03 -0.53 0 -1.04 0.05 -1.03 -0.04 -0.52 -0.04 -0.52 0.03 -0.51 0.04 -0.53 -0.07 -0.53 0 -0.51 0.01 -0.04 0.09 -0.02 0.16 0.02 0.35 -0.03 0.34 -0.05 0.08 -0.03 0.05 -0.03 0.04 -0.12 0.04 -0.43 -0.01 -0.45 0.03 -0.44 -0.03 -0.44 -0.05 -0.13 -0.14 -0.04 -0.55 -0.04 -0.56 0.01 -0.55 -0.01 -0.56 -0.03 -1.11 0.03 -0.56 -0.03 -0.54 0.05 -0.14 0.06 -0.03 0.05 -0.01 0.08 -0.06 0.44 0.02 0.44 -0.03 0.45 -0.01 0.43 -0.03 0.16 0.05 0.11 0.21 0.04 0.27 -0.01 0.5 -0.01 0 0.05 -0.03 0.08 -0.03 0.95 0 0.25 0.02 0.28 0.07 0.45 0.04 0.19 0.04 0.27 -0.04 0.11 -0.1 0.07 -0.12 0 -0.09 -0.07 -0.05 -0.04 -0.05 -0.04zm14.04 3.41l-0.18 -0.24 -0.29 -0.29 -0.21 -0.21 -0.2 -0.25 -0.28 -0.28 -0.23 -0.19 -0.08 -0.05 -0.06 -0.02 -0.05 0.02 -0.08 0.02 -0.23 0.19 -0.26 0.16 -0.26 0.14 -0.27 0.12 -0.3 0.1 -0.29 0.06 -0.3 0.04 -0.28 0.02 -0.3 -0.02 -0.52 -0.13 -0.74 -0.31 -0.24 -0.13 -0.19 -0.16 -0.18 -0.2 -0.13 -0.23 -0.11 -0.24 -0.11 -0.27 -0.07 -0.25 -0.07 -0.25 -0.05 -0.27 -0.01 -0.27 0.02 -0.29 0.06 -0.27 0.07 -0.26 0.08 -0.23 0.11 -0.24 0.13 -0.23 0.15 -0.22 0.17 -0.17 0.19 -0.18 0.22 -0.17 0.23 -0.14 0.24 -0.11 0.25 -0.06 0.25 -0.05 0.29 -0.01 0.28 0 0.19 -0.01 0.19 0 0.22 0.02 0.27 0.09 0.07 0.04 0.05 0.04 0.04 0.05 0.04 0.08 0.02 0.35 -0.06 0.25 -0.03 0.25 0.03 0.36 0.04 0.09 0.06 0.04 0.06 0.03 0.1 0.03 0.28 0.04 0.39 0.01 0.29 -0.01 0.7 0.02 0.28 -0.02 0.1 -0.03 0.08 -0.04 0.06 -0.07 0.02 -0.09 0.03 -0.37 -0.03 -0.27 -0.04 -0.26 -0.01 -0.38 0 -0.36 0.03 -0.26 0.01 -0.25 -0.01 -0.38 -0.02 -0.04 -0.09 -0.1 -0.34 -0.3 -0.37 -0.27 -0.42 -0.23 -0.41 -0.17 -0.45 -0.12 -0.46 -0.1 -0.45 -0.07 -0.46 -0.02 -0.54 0.01 -0.51 0.05 -0.52 0.11 -0.5 0.14 -0.5 0.17 -0.46 0.23 -0.43 0.31 -0.38 0.36 -0.4 0.32 -0.21 0.18 -0.16 0.21 -0.13 0.22 -0.41 0.95 -0.16 0.5 -0.11 0.5 -0.04 0.52 0.01 0.55 0.06 0.51 0.02 0.24 0.06 0.29 0.13 0.5 0.19 0.48 0.25 0.48 0.28 0.42 0.36 0.39 0.38 0.36 0.39 0.34 0.48 0.26 0.49 0.18 0.75 0.24 0.52 0.11 0.51 0.05 0.56 0.01 0.25 -0.01 0.26 -0.04 0.51 -0.09 0.53 -0.08 0.49 -0.14 0.48 -0.2 0.22 -0.14 0.23 -0.13 0.42 -0.27 0.39 -0.36 0.08 -0.06 0.04 -0.07 -0.01 -0.07 -0.04 -0.08zm1.08 -6.06l0.37 0.03 0.36 -0.03 0.16 -0.04 0.09 0.04 0 0.53 -0.07 0.51 0.04 0.52 0.04 0.52 -0.05 1.03 -0.02 0.52 0 1.02 -0.01 0.53 0.01 0.14 -0.05 0.06 -0.43 0 -0.42 -0.01 -0.18 0.07 -0.07 0.15 -0.01 0.44 0.05 0.45 -0.04 0.43 0.03 0.45 0.05 0.15 0.17 0.08 0.46 0.03 0.47 -0.03 0.93 0 0.46 -0.01 0.46 0 0.48 -0.03 0.46 -0.02 0.47 0.05 0.46 -0.03 0.15 -0.06 0.05 -0.15 0.06 -0.43 0 -0.43 0.01 -0.45 -0.04 -0.44 -0.07 -0.13 -0.17 -0.04 -0.48 -0.01 -0.46 -0.03 -0.02 -0.06 0.05 -0.14 0 -0.53 0.01 -0.51 -0.01 -0.53 -0.01 -0.51 0 -1.56 0.01 -0.53 -0.04 -0.51 0.05 -0.51 0.06 -0.03 0.1 0.05 0.38 0.02 0.37 -0.04 0.13 -0.07 0.04 -0.16 0.05 -0.44 -0.03 -0.43 0.03 -0.44 -0.05 -0.42 -0.04 -0.14 -0.14 -0.04 -0.47 -0.05 -0.91 0 -1.4 0.04 -0.47 -0.03 -0.46 -0.04 -0.47 0 -0.46 0.07 -0.17 0.04 -0.08 0.13 -0.01 0.44 0.05 0.44 -0.04 0.43 -0.01 0.44 0.08 0.17 0.16 0.07zm13.37 7.55l0.51 0.01 0.51 0.03 0.02 0 0.55 -0.01 0.54 -0.03 0.57 0.03 0.54 0.04 1.03 -0.03 0.08 -0.01 0.07 -0.03 0.05 -0.04 0.06 -0.06 0.02 -0.08 0.02 -0.07 0.01 -0.39 0.01 -0.42 -0.01 -0.39 -0.01 -0.41 0 -0.06 -0.04 -0.06 -0.06 -0.07 -0.05 -0.05 -0.07 -0.05 -0.08 -0.03 -0.32 0.01 -0.32 0 -0.09 -0.02 -0.08 -0.08 -0.22 -0.38 -0.21 -0.41 -0.19 -0.46 -0.19 -0.47 -0.18 -0.48 -0.19 -0.48 -0.2 -0.46 -0.2 -0.48 -0.21 -0.46 -0.21 -0.46 -0.25 -0.46 -0.24 -0.44 -0.22 -0.46 -0.23 -0.48 -0.35 -0.86 -0.04 -0.08 -0.05 -0.06 -0.07 -0.02 -0.1 -0.02 -0.89 -0.02 -0.03 0 -0.96 0.05 -0.47 -0.01 -0.95 -0.06 -0.48 -0.04 -0.46 0.03 -0.48 0.01 -0.13 0.04 -0.1 0.12 -0.02 0.15 0 0.79 0.01 0.4 0.01 0.4 0.02 0.06 0.04 0.11 0.09 0.1 0.14 0.04 0.51 0 0.14 0.05 0.05 0.08 -0.01 0.1 -0.18 0.47 -0.17 0.43 -0.21 0.44 -0.2 0.42 -0.19 0.41 -0.19 0.44 -0.2 0.42 -0.19 0.42 -0.22 0.43 -0.21 0.41 -0.33 0.73 -0.07 0.08 -0.09 0.02 -0.68 0.03 -0.1 0.01 -0.11 0.06 -0.08 0.11 -0.02 0.13 0.03 0.39 0.03 0.41 -0.02 0.39 0 0.39 0.03 0.15 0.08 0.08 0.1 0.05 0.08 0.01 1.04 -0.03 1.12 0.06 1.11 0 1.06 -0.03 0.1 -0.01 0.1 -0.06 0.08 -0.09 0.01 -0.14 0 -0.34 0.02 -0.35 -0.02 -0.35 0 -0.37 -0.04 -0.12 -0.07 -0.11 -0.09 -0.05 -0.09 -0.03 -0.26 0 -0.1 -0.02 -0.06 -0.07 -0.07 -0.1 -0.03 -0.08 0 -0.09 0.07 -0.18 0.07 -0.19 0.06 -0.13 0.14 -0.06 0.46 0 0.47 -0.01 0.02 0 1.11 0.08 0.5 -0.04 0.51 -0.03 0.12 0.03 0.07 0.05 0.05 0.07 0.04 0.08 0.06 0.17 0.07 0.17 0 0.07 -0.02 0.07 -0.02 0.08 -0.03 0.06 -0.07 0.09 -0.11 0.04 -0.11 0 -0.15 0.02 -0.08 0.04 -0.06 0.09 -0.04 0.12 -0.02 0.35 0 0.35 -0.02 0.68 0.02 0.09 0.04 0.07 0.07 0.07 0.07 0.02 0.07 0.02zm-0.98 -4.97l-0.48 -0.02 -0.51 -0.02 -0.09 -0.01 -0.09 -0.07 -0.09 -0.11 -0.02 -0.12 0.02 -0.11 0.15 -0.31 0.15 -0.34 0.12 -0.33 0.11 -0.33 0.07 -0.09 0.11 -0.03 0.12 0 0.12 0.03 0.07 0.09 0.11 0.34 0.12 0.32 0.15 0.36 0.13 0.33 0.02 0.09 -0.02 0.09 -0.05 0.12 -0.11 0.1 -0.11 0.02zm14.01 -3.68l-0.02 -0.08 -0.07 -0.05 -0.19 -0.15 -0.39 -0.27 -0.22 -0.12 -0.21 -0.11 -0.68 -0.2 -0.47 -0.11 -0.23 -0.04 -0.48 -0.06 -0.23 -0.04 -0.24 -0.02 -0.5 -0.02 -0.23 0.02 -0.49 0.05 -0.47 0.12 -0.22 0.08 -0.23 0.08 -0.23 0.07 -0.43 0.19 -0.42 0.26 -0.38 0.28 -0.17 0.16 -0.14 0.19 -0.2 0.44 -0.18 0.44 -0.08 0.22 -0.04 0.24 -0.03 0.25 0.02 0.25 0.09 0.48 0.15 0.44 0.2 0.42 0.12 0.21 0.17 0.17 0.17 0.16 0.18 0.14 0.4 0.24 0.46 0.19 0.45 0.14 0.46 0.09 0.26 0.04 0.23 0.03 0.71 0 0.3 0.07 0.48 0.12 0.2 0.07 0.28 0.1 0.2 0.13 0.11 0.16 0.06 0.2 -0.06 0.24 -0.11 0.22 -0.17 0.18 -0.23 0.12 -0.23 0.04 -0.24 0.03 -0.27 -0.02 -0.65 0 -0.38 -0.02 -0.21 -0.03 -0.37 -0.08 -0.17 -0.04 -0.05 -0.03 -0.07 -0.04 -0.04 -0.07 -0.01 -0.05 0.02 -0.38 0 -0.15 -0.04 -0.23 -0.02 -0.08 -0.03 -0.07 -0.04 -0.05 -0.08 -0.03 -0.27 -0.03 -0.18 0.03 -0.19 0.03 -0.27 0.01 -0.28 0 -0.2 -0.03 -0.19 -0.01 -0.29 0 -0.09 0.04 -0.12 0.11 -0.11 0.14 -0.04 0.09 0.01 0.4 0.03 0.67 0.01 0.58 0.01 0.3 0.02 0.09 0.02 0.07 0.23 0.18 0.65 0.46 0.25 0.1 0.53 0.18 0.25 0.07 0.24 0.08 0.52 0.15 0.28 0.04 0.26 0.01 0.54 -0.01 0.29 -0.02 0.25 0.02 0.5 0.01 0.25 -0.03 0.51 -0.09 0.47 -0.14 0.48 -0.19 0.44 -0.23 0.44 -0.27 0.36 -0.33 0.15 -0.21 0.11 -0.21 0.19 -0.48 0.09 -0.23 0.1 -0.48 0.01 -0.27 -0.01 -0.25 -0.08 -0.46 -0.08 -0.21 -0.19 -0.44 -0.26 -0.36 -0.15 -0.18 -0.34 -0.31 -0.2 -0.13 -0.22 -0.13 -0.42 -0.18 -0.44 -0.15 -0.48 -0.11 -0.69 -0.12 -0.77 -0.07 -0.51 -0.03 -0.22 -0.04 -0.27 -0.11 -0.2 -0.15 -0.15 -0.23 -0.04 -0.25 0.04 -0.23 0.12 -0.18 0.18 -0.13 0.2 -0.11 0.2 -0.08 0.23 -0.04 0.42 -0.02 0.3 0 0.54 0.06 0.26 0.04 0.05 0.02 0.07 0.05 0.04 0.04 0.01 0.06 0 0.48 0.04 0.19 0.03 0.09 0.03 0.07 0.04 0.03 0.09 0.02 0.3 0.04 0.41 -0.02 0.29 -0.02 0.72 0 0.3 -0.01 0.07 0 0.04 -0.01 0.01 -0.02 0.01 -0.08 0.06 -0.31 0.04 -0.43 0 -0.31 -0.01 -0.34 -0.03 -0.44 -0.02 -0.23zm4.1 -0.97l-0.17 -0.09 -0.5 -0.06 -0.5 0.04 -0.5 0 -0.5 0.02 -0.15 0.04 -0.07 0.12 -0.12 0.53 -0.06 0.54 -0.12 0.52 -0.12 0.55 -0.15 0.52 -0.07 0.53 0.06 0.18 0.16 0.09 0.38 0.03 0.39 -0.04 0.38 0.02 0.38 -0.01 0.12 -0.04 0.08 -0.12 0.2 -0.52 0.15 -0.54 0.19 -0.54 0.21 -0.52 0.22 -0.52 0.15 -0.54 -0.04 -0.19zm4.26 0l-0.17 -0.09 -0.5 -0.06 -0.5 0.04 -0.5 0 -0.5 0.02 -0.15 0.04 -0.07 0.12 -0.12 0.53 -0.06 0.54 -0.12 0.52 -0.12 0.55 -0.15 0.52 -0.07 0.53 0.06 0.18 0.16 0.09 0.38 0.03 0.39 -0.04 0.38 0.02 0.38 -0.01 0.12 -0.04 0.08 -0.12 0.2 -0.52 0.15 -0.54 0.19 -0.54 0.21 -0.52 0.23 -0.52 0.14 -0.54 -0.04 -0.19zm-75.21 19.44l-0.02 -0.49 -0.09 -0.46 -0.12 -0.49 -0.2 -0.42 -0.31 -0.37 -0.38 -0.32 -0.39 -0.25 -0.46 -0.19 -0.45 -0.15 -0.48 -0.12 -0.48 -0.02 -0.48 0.02 -0.96 0 -0.95 -0.03 -0.95 -0.05 -0.47 0.02 -0.48 0.02 -0.47 -0.02 -0.47 -0.02 -0.49 -0.02 -0.46 0.07 -0.05 0.07 0.01 0.13 0 1.33 0.05 0.43 0.02 0.1 0.02 0.06 0.06 0.03 0.09 0.04 0.19 0.03 0.15 -0.02 0.37 -0.02 0.08 0.01 0.08 0.06 0.05 0.08 0.02 0.09 0.01 0.49 0 0.49 0.03 0.97 -0.02 0.47 0 0.49 0.03 0.97 -0.08 0.98 -0.01 0.11 -0.06 0.09 -0.08 0.07 -0.11 0.03 -0.32 -0.03 -0.33 0 -0.16 0.01 -0.09 0.1 -0.03 0.2 0.01 0.27 0.07 0.47 -0.05 0.48 -0.03 0.19 0.03 0.27 0.04 0.09 0.04 0.07 0.08 0.04 0.09 0.03 0.26 0.02 0.22 -0.01 0.47 -0.04 0.95 0 0.96 0.03 0.47 -0.04 0.47 -0.03 0.48 0.04 0.47 -0.03 0.08 -0.01 0.06 -0.03 0.06 -0.13 0.03 -0.21 0 -0.21 -0.03 -0.44 0.04 -0.43 0.03 -0.23 -0.03 -0.19 -0.02 -0.09 -0.04 -0.07 -0.08 -0.05 -0.07 -0.03 -0.15 -0.03 -0.33 0 -0.47 0.03 -0.07 -0.04 -0.02 -0.08 0 -0.38 -0.02 -0.39 0.04 -0.07 0.09 -0.03 0.82 -0.05 0.41 0.02 0.42 0.02 0.47 -0.02 0.47 -0.05 0.48 -0.12 0.89 -0.37 0.4 -0.21 0.37 -0.33 0.31 -0.36 0.23 -0.42 0.18 -0.46 0.06 -0.46 0 -0.5zm-3.09 0.75l-0.17 0.13 -0.17 0.09 -0.22 0.07 -0.21 0.03 -0.23 -0.02 -0.33 -0.02 -0.61 0 -0.16 -0.02 -0.23 0 -0.08 -0.01 -0.08 -0.03 -0.06 -0.07 -0.01 -0.08 -0.03 -0.43 0 -1.03 0.03 -0.12 0.07 -0.09 0.11 -0.07 0.1 -0.03 0.45 0 0.61 0.03 0.45 0 0.21 0.02 0.2 0.06 0.18 0.08 0.16 0.11 0.15 0.12 0.12 0.15 0.08 0.19 0.03 0.21 -0.03 0.25 -0.08 0.19 -0.1 0.16 -0.15 0.13zm3.74 -1.89l0.37 0.03 0.36 -0.03 0.16 -0.04 0.09 0.04 0 0.53 -0.07 0.51 0.04 0.52 0.04 0.52 -0.05 1.03 -0.02 0.52 0 1.02 -0.01 0.53 0.01 0.14 -0.05 0.07 -0.43 0 -0.42 -0.02 -0.18 0.07 -0.07 0.15 -0.01 0.44 0.05 0.45 -0.04 0.43 0.03 0.45 0.05 0.15 0.17 0.08 0.46 0.03 0.47 -0.03 0.93 0 0.46 -0.01 0.46 0 0.48 -0.03 0.46 -0.02 0.47 0.05 0.46 -0.03 0.15 -0.06 0.05 -0.14 0.06 -0.44 0 -0.43 0.01 -0.45 -0.04 -0.44 -0.07 -0.12 -0.17 -0.04 -0.48 -0.02 -0.46 -0.02 -0.02 -0.07 0.05 -0.14 0 -0.53 0.01 -0.51 -0.01 -0.53 -0.01 -0.51 0 -1.56 0.01 -0.52 -0.04 -0.52 0.05 -0.51 0.06 -0.03 0.11 0.05 0.37 0.02 0.37 -0.04 0.13 -0.07 0.04 -0.16 0.05 -0.44 -0.03 -0.43 0.03 -0.44 -0.05 -0.42 -0.04 -0.14 -0.14 -0.04 -0.46 -0.05 -0.92 0 -1.4 0.04 -0.47 -0.03 -0.46 -0.04 -0.47 0 -0.46 0.07 -0.17 0.04 -0.08 0.13 -0.01 0.44 0.05 0.44 -0.04 0.43 -0.01 0.44 0.08 0.17 0.16 0.07zm16.26 6.91l0.03 -0.88 0 -0.17 -0.04 -0.26 -0.02 -0.09 -0.04 -0.06 -0.15 -0.06 -0.47 -0.02 -0.47 0.03 -0.11 -0.01 -0.08 -0.07 -0.42 -0.53 -0.39 -0.56 -0.04 -0.08 0 -0.1 0.04 -0.1 0.06 -0.07 0.53 -0.29 0.44 -0.32 0.33 -0.47 0.22 -0.51 0.15 -0.54 0.04 -0.59 -0.02 -0.47 -0.08 -0.47 -0.19 -0.43 -0.25 -0.41 -0.26 -0.39 -0.34 -0.36 -0.38 -0.25 -0.43 -0.23 -0.43 -0.15 -0.49 -0.09 -0.45 -0.07 -1.42 -0.04 -0.93 0.05 -0.47 0 -0.46 -0.01 -0.48 0 -0.46 -0.02 -0.94 0 -0.94 -0.05 -0.12 0.03 -0.11 0.06 -0.06 0.07 -0.03 0.1 -0.03 0.43 0 0.86 0.02 0.44 0 0.15 0.08 0.08 0.27 0.02 0.76 -0.08 0.04 0.02 0.01 0.08 -0.01 0.15 0.04 0.5 0.02 0.5 -0.02 0.5 -0.04 0.5 0.05 1 -0.03 0.5 -0.04 0.5 0.04 0.5 -0.02 0.5 -0.02 0.08 -0.02 0.06 -0.14 0.05 -0.38 0.02 -0.38 -0.05 -0.11 -0.01 -0.05 0.07 -0.05 0.48 0.02 0.49 -0.02 0.49 -0.02 0.5 -0.02 0.13 0.05 0.09 0.47 0.04 0.49 -0.03 0.96 0 0.96 -0.06 0.47 0.05 0.48 0.02 0.48 -0.02 0.48 -0.05 0.15 -0.05 0.05 -0.05 0.01 -0.07 0.02 -0.39 0 -0.4 0.04 -0.39 0 -0.21 -0.04 -0.25 -0.06 -0.08 -0.05 -0.05 -0.09 -0.03 -0.36 -0.04 -0.36 0.01 -0.06 -0.01 -0.05 -0.04 -0.03 -0.12 0 -0.76 0.03 -0.15 0.04 -0.04 0.07 -0.03 0.12 0.02 0.12 0.02 0.23 0 0.23 0.02 0.15 0.04 0.12 0.11 0.6 0.73 0.27 0.38 0.25 0.39 0.02 0.07 0 0.06 -0.04 0.57 -0.02 0.57 0.03 0.13 0.1 0.07 0.47 0.07 0.47 -0.01 0.48 -0.04 0.47 -0.03 0.47 0.03 0.48 0.01 0.47 0.04 0.47 -0.03 0.07 -0.09 -0.03 -0.15 0.03 -0.45zm-3.42 -4.92l-0.15 0.14 -0.18 0.09 -0.2 0.07 -0.5 0.02 -0.19 0.03 -0.19 0.04 -0.27 0.02 -0.27 -0.02 -0.18 0 -0.18 -0.01 -0.27 0 -0.09 -0.03 -0.05 -0.04 -0.04 -0.07 0 -0.09 -0.01 -0.29 -0.02 -0.19 0 -0.48 0.02 -0.29 0 -0.19 0.01 -0.2 0 -0.28 0.01 -0.08 0.03 -0.09 0.05 -0.05 0.09 -0.03 0.27 0.02 0.17 0.02 0.19 0.03 0.26 0.01 0.27 -0.01 0.17 -0.03 0.19 -0.01 0.27 -0.01 0.25 0.02 0.2 0.1 0.18 0.12 0.13 0.15 0.12 0.16 0.1 0.21 0.05 0.2 0.02 0.23 -0.02 0.23 -0.05 0.21 -0.08 0.19 -0.11 0.18zm11.89 5.56l0.51 0.01 0.52 0.03 0.01 0 0.55 -0.01 0.55 -0.03 0.56 0.03 0.54 0.04 1.03 -0.03 0.08 -0.01 0.07 -0.03 0.06 -0.04 0.05 -0.06 0.03 -0.08 0.01 -0.06 0.01 -0.4 0.02 -0.42 -0.02 -0.39 -0.01 -0.4 0 -0.07 -0.04 -0.06 -0.05 -0.06 -0.06 -0.06 -0.07 -0.05 -0.08 -0.03 -0.32 0.02 -0.31 0 -0.1 -0.03 -0.08 -0.08 -0.22 -0.38 -0.21 -0.41 -0.19 -0.46 -0.19 -0.47 -0.18 -0.47 -0.19 -0.49 -0.2 -0.46 -0.2 -0.48 -0.21 -0.45 -0.21 -0.46 -0.24 -0.46 -0.25 -0.45 -0.21 -0.46 -0.23 -0.47 -0.36 -0.87 -0.04 -0.08 -0.05 -0.05 -0.07 -0.03 -0.09 -0.02 -0.9 -0.02 -0.02 0 -0.96 0.05 -0.48 -0.01 -0.94 -0.06 -0.49 -0.04 -0.46 0.03 -0.47 0.01 -0.14 0.04 -0.09 0.13 -0.03 0.14 0 0.79 0.01 0.4 0.02 0.4 0.01 0.07 0.04 0.1 0.09 0.1 0.14 0.04 0.51 0 0.14 0.05 0.05 0.08 -0.01 0.1 -0.18 0.47 -0.17 0.43 -0.2 0.44 -0.21 0.42 -0.19 0.42 -0.19 0.43 -0.2 0.42 -0.19 0.42 -0.22 0.43 -0.21 0.41 -0.33 0.73 -0.06 0.08 -0.1 0.03 -0.67 0.02 -0.11 0.02 -0.11 0.05 -0.08 0.11 -0.02 0.13 0.03 0.39 0.03 0.41 -0.02 0.39 0 0.4 0.03 0.14 0.08 0.08 0.1 0.05 0.08 0.01 1.04 -0.03 1.12 0.06 1.11 0 1.06 -0.03 0.11 -0.01 0.09 -0.06 0.08 -0.09 0.01 -0.14 0 -0.34 0.02 -0.35 -0.02 -0.35 0 -0.37 -0.04 -0.12 -0.06 -0.1 -0.1 -0.06 -0.09 -0.03 -0.26 0 -0.09 -0.02 -0.07 -0.07 -0.07 -0.09 -0.03 -0.09 0 -0.09 0.07 -0.18 0.07 -0.19 0.07 -0.13 0.13 -0.06 0.46 0 0.48 -0.01 0.01 0 1.11 0.08 0.5 -0.04 0.51 -0.03 0.12 0.03 0.07 0.06 0.06 0.06 0.04 0.08 0.05 0.17 0.07 0.17 0 0.07 -0.02 0.07 -0.02 0.08 -0.03 0.07 -0.07 0.08 -0.11 0.04 -0.1 0 -0.15 0.03 -0.08 0.04 -0.07 0.08 -0.04 0.12 -0.02 0.35 0 0.35 -0.02 0.68 0.02 0.09 0.04 0.07 0.07 0.07 0.07 0.02 0.07 0.02zm-0.98 -4.97l-0.48 -0.02 -0.5 -0.02 -0.1 -0.01 -0.09 -0.07 -0.08 -0.11 -0.03 -0.12 0.03 -0.1 0.15 -0.32 0.14 -0.33 0.13 -0.34 0.1 -0.33 0.07 -0.09 0.11 -0.03 0.12 0 0.12 0.03 0.07 0.09 0.11 0.34 0.12 0.33 0.15 0.35 0.13 0.34 0.02 0.08 -0.02 0.09 -0.05 0.12 -0.11 0.1 -0.11 0.02zm13.87 -4.74l-0.25 -0.03 -0.25 0.01 -0.5 0.04 -0.99 0.03 -0.5 0 -0.5 -0.01 -0.5 0 -1.49 -0.04 -0.5 0.02 -0.5 0.02 -0.5 -0.03 -0.49 -0.04 -0.5 0.03 -0.5 0.01 -0.5 -0.03 -0.49 0.06 -0.08 0.01 -0.06 0.03 -0.03 0.05 -0.02 0.08 -0.06 0.56 0 0.57 0.04 0.55 0.04 0.57 -0.03 0.55 0.03 0.56 0.01 0.09 0.03 0.06 0.04 0.02 0.09 0.03 0.48 0.04 0.47 -0.03 0.49 0.04 0.23 0.03 0.25 -0.03 0.1 -0.02 0.07 -0.06 0.04 -0.05 0.02 -0.09 0.05 -0.23 0.01 -0.3 -0.01 -0.54 0.05 -0.11 0.12 -0.03 0.26 -0.04 0.24 -0.03 0.08 0.02 0.1 0.06 0.04 0.07 0.03 0.1 0.01 0.47 0 2.41 -0.03 0.49 -0.03 0.47 0 0.49 -0.02 0.47 0.01 0.15 -0.04 0.07 -0.43 0.01 -0.18 -0.01 -0.27 0.02 -0.15 0.04 -0.04 0.06 -0.03 0.08 -0.04 0.24 0.02 0.2 0.04 0.44 -0.02 0.44 0.02 0.44 0 0.16 0.08 0.08 0.27 0.04 0.22 0 0.5 -0.04 1.94 -0.05 0.49 0 0.49 -0.02 0.5 0.04 0.24 0.02 0.23 -0.04 0.07 -0.06 0 -0.12 -0.01 -0.47 0 -0.48 0.05 -0.46 0 -0.29 -0.03 -0.18 -0.05 -0.08 -0.12 -0.01 -0.48 0.04 -0.46 -0.02 -0.04 -0.09 0.04 -0.14 -0.02 -0.48 -0.02 -0.48 0.02 -0.48 0.02 -0.48 0.02 -0.49 0.01 -0.47 0 -0.96 -0.03 -0.49 -0.01 -0.47 0.03 -0.11 0.04 -0.04 0.17 -0.07 0.21 -0.02 0.2 -0.02 0.08 0.02 0.08 0.06 0.04 0.09 0.03 0.12 0.04 0.48 0.09 0.49 0.02 0.08 0.02 0.07 0.05 0.04 0.08 0.01 0.27 0.03 0.2 -0.01 0.49 -0.07 0.47 0.05 0.28 0.02 0.21 -0.03 0.07 -0.01 0.06 -0.04 0.04 -0.07 0.02 -0.08 0.04 -0.38 -0.02 -0.18 -0.04 -0.55 0.02 -0.57 0.02 -0.55 -0.01 -0.56 -0.03 -0.57 -0.04 -0.14 -0.05 -0.05 -0.08 -0.02zm7.08 9.71l0.52 0.01 0.51 0.03 0.02 0 0.55 -0.01 0.54 -0.03 0.57 0.03 0.54 0.04 1.03 -0.03 0.08 -0.01 0.07 -0.03 0.05 -0.04 0.06 -0.06 0.02 -0.08 0.02 -0.06 0.01 -0.4 0.01 -0.42 -0.01 -0.39 -0.01 -0.4 0 -0.07 -0.04 -0.06 -0.06 -0.06 -0.05 -0.06 -0.07 -0.05 -0.08 -0.03 -0.33 0.02 -0.31 0 -0.09 -0.03 -0.08 -0.08 -0.22 -0.38 -0.21 -0.41 -0.19 -0.46 -0.19 -0.47 -0.18 -0.47 -0.19 -0.49 -0.2 -0.46 -0.2 -0.48 -0.21 -0.45 -0.21 -0.46 -0.25 -0.46 -0.24 -0.45 -0.22 -0.46 -0.23 -0.47 -0.35 -0.87 -0.04 -0.08 -0.05 -0.05 -0.07 -0.03 -0.1 -0.02 -0.89 -0.02 -0.03 0 -0.96 0.05 -0.47 -0.01 -0.95 -0.06 -0.48 -0.04 -0.46 0.03 -0.48 0.01 -0.13 0.04 -0.1 0.13 -0.02 0.14 0 0.79 0.01 0.4 0.01 0.4 0.02 0.07 0.04 0.1 0.09 0.1 0.14 0.04 0.51 0 0.14 0.05 0.05 0.08 -0.01 0.1 -0.18 0.47 -0.17 0.43 -0.21 0.44 -0.2 0.42 -0.19 0.42 -0.19 0.43 -0.2 0.42 -0.19 0.42 -0.22 0.43 -0.21 0.41 -0.33 0.73 -0.07 0.08 -0.09 0.03 -0.68 0.02 -0.11 0.02 -0.1 0.05 -0.08 0.11 -0.02 0.13 0.03 0.39 0.03 0.41 -0.02 0.39 0 0.4 0.03 0.14 0.08 0.08 0.1 0.05 0.08 0.01 1.04 -0.03 1.12 0.06 1.11 0 1.06 -0.03 0.1 -0.01 0.1 -0.06 0.08 -0.09 0.01 -0.14 0 -0.34 0.02 -0.35 -0.02 -0.35 0 -0.37 -0.04 -0.12 -0.07 -0.1 -0.09 -0.06 -0.09 -0.03 -0.26 0 -0.1 -0.02 -0.06 -0.07 -0.07 -0.09 -0.03 -0.09 0 -0.09 0.07 -0.18 0.07 -0.19 0.06 -0.13 0.14 -0.06 0.46 0 0.47 -0.01 0.02 0 1.1 0.08 0.51 -0.04 0.51 -0.03 0.12 0.03 0.07 0.06 0.05 0.06 0.04 0.08 0.06 0.17 0.07 0.17 0 0.07 -0.02 0.07 -0.03 0.08 -0.02 0.07 -0.07 0.08 -0.11 0.04 -0.11 0 -0.15 0.03 -0.08 0.04 -0.06 0.08 -0.04 0.12 -0.02 0.35 0 0.35 -0.03 0.68 0.03 0.09 0.04 0.07 0.07 0.07 0.07 0.02 0.06 0.02zm-0.97 -4.97l-0.49 -0.02 -0.5 -0.02 -0.09 -0.01 -0.09 -0.07 -0.09 -0.11 -0.02 -0.12 0.02 -0.1 0.15 -0.32 0.15 -0.33 0.12 -0.34 0.11 -0.33 0.07 -0.09 0.11 -0.03 0.12 0 0.12 0.03 0.07 0.09 0.11 0.34 0.12 0.33 0.15 0.35 0.13 0.34 0.02 0.08 -0.02 0.09 -0.05 0.12 -0.11 0.1 -0.11 0.02zm14.01 -3.67l-0.02 -0.09 -0.07 -0.05 -0.19 -0.15 -0.39 -0.27 -0.22 -0.12 -0.21 -0.11 -0.68 -0.2 -0.48 -0.11 -0.22 -0.04 -0.48 -0.06 -0.23 -0.04 -0.24 -0.02 -0.5 -0.02 -0.23 0.02 -0.49 0.05 -0.47 0.12 -0.22 0.09 -0.23 0.08 -0.23 0.06 -0.43 0.19 -0.42 0.26 -0.38 0.28 -0.18 0.17 -0.13 0.19 -0.2 0.43 -0.18 0.44 -0.08 0.22 -0.04 0.25 -0.03 0.24 0.02 0.25 0.09 0.48 0.15 0.44 0.2 0.42 0.12 0.21 0.17 0.17 0.17 0.17 0.18 0.13 0.4 0.24 0.46 0.19 0.45 0.14 0.46 0.09 0.26 0.04 0.23 0.03 0.71 0 0.3 0.07 0.47 0.12 0.21 0.07 0.28 0.11 0.2 0.12 0.11 0.16 0.06 0.2 -0.06 0.25 -0.11 0.21 -0.17 0.18 -0.23 0.12 -0.23 0.04 -0.25 0.03 -0.27 -0.01 -0.64 0 -0.38 -0.03 -0.21 -0.03 -0.37 -0.08 -0.17 -0.04 -0.05 -0.03 -0.07 -0.04 -0.04 -0.07 -0.01 -0.05 0.02 -0.38 0 -0.15 -0.04 -0.23 -0.02 -0.08 -0.03 -0.07 -0.04 -0.05 -0.08 -0.03 -0.27 -0.03 -0.18 0.03 -0.19 0.03 -0.27 0.01 -0.28 0 -0.21 -0.02 -0.19 -0.02 -0.28 0 -0.09 0.04 -0.13 0.11 -0.1 0.14 -0.04 0.09 0.01 0.41 0.03 0.66 0.01 0.58 0.01 0.3 0.02 0.09 0.02 0.07 0.23 0.18 0.65 0.46 0.25 0.1 0.52 0.18 0.26 0.07 0.24 0.08 0.52 0.15 0.28 0.04 0.26 0.01 0.54 -0.01 0.28 -0.02 0.26 0.02 0.5 0.01 0.25 -0.03 0.51 -0.09 0.47 -0.14 0.48 -0.18 0.44 -0.23 0.44 -0.28 0.36 -0.33 0.15 -0.21 0.11 -0.21 0.19 -0.48 0.09 -0.22 0.1 -0.49 0.01 -0.27 -0.01 -0.25 -0.08 -0.46 -0.09 -0.21 -0.19 -0.44 -0.25 -0.36 -0.15 -0.18 -0.34 -0.31 -0.2 -0.13 -0.22 -0.12 -0.42 -0.19 -0.44 -0.15 -0.48 -0.11 -0.69 -0.12 -0.77 -0.07 -0.51 -0.03 -0.22 -0.04 -0.27 -0.11 -0.2 -0.14 -0.15 -0.24 -0.04 -0.25 0.04 -0.23 0.12 -0.18 0.18 -0.13 0.2 -0.11 0.2 -0.08 0.23 -0.04 0.42 -0.02 0.3 0 0.54 0.06 0.26 0.04 0.05 0.02 0.07 0.05 0.04 0.04 0.01 0.06 0 0.48 0.04 0.19 0.03 0.09 0.03 0.07 0.04 0.03 0.09 0.02 0.3 0.04 0.41 -0.02 0.29 -0.02 0.72 0 0.3 -0.01 0.07 0 0.04 -0.01 0.01 -0.02 0.01 -0.08 0.06 -0.31 0.04 -0.43 0 -0.31 -0.02 -0.34 -0.02 -0.43 -0.02 -0.23zm4.51 1.27l-0.02 -0.52 0 -0.51 0.03 -0.52 -0.03 -0.5 -0.05 -0.17 -0.15 -0.08 -0.58 0 -0.57 0.07 -0.57 -0.03 -0.56 0.04 -0.15 0.04 -0.07 0.13 -0.04 0.5 0.03 0.52 0.02 1.03 -0.02 0.5 -0.02 0.51 0.03 1.03 0.01 0.5 0.04 1.54 0.06 0.12 0.15 0.04 0.54 0.09 0.54 0 0.55 0.01 0.54 -0.04 0.15 -0.07 0.04 -0.15 0.03 -0.51 -0.04 -0.52 0.04 -0.5 0.04 -0.51 -0.05 -1.03 0.04 -0.51 0.04 -0.5zm0.05 5.98l-0.05 -0.22 -0.08 -0.2 -0.14 -0.18 -0.15 -0.15 -0.19 -0.13 -0.17 -0.11 -0.21 -0.1 -0.21 -0.06 -0.24 -0.03 -0.32 0.04 -0.27 0.08 -0.23 0.14 -0.2 0.16 -0.19 0.21 -0.16 0.23 -0.1 0.26 -0.04 0.27 0.03 0.29 0.1 0.27 0.14 0.24 0.19 0.22 0.21 0.13 0.24 0.11 0.27 0.05 0.33 0.02 0.25 0 0.23 -0.02 0.22 -0.05 0.19 -0.07 0.17 -0.15 0.15 -0.19 0.12 -0.18 0.09 -0.22 0.05 -0.22 0 -0.21 -0.03 -0.23z"/>
  </g>
 </g>
</svg>
